<svg width="18" height="18" viewBox="0 0 18 18" fill="none" xmlns="http://www.w3.org/2000/svg">
<path d="M8.75 1C5.57943 1 3 3.59944 3 6.79457C3 10.7598 8.14569 16.581 8.36477 16.8269C8.57055 17.0579 8.92982 17.0575 9.13523 16.8269C9.35431 16.581 14.5 10.7598 14.5 6.79457C14.4999 3.59944 11.9205 1 8.75 1ZM8.75 9.70998C7.15481 9.70998 5.85706 8.40213 5.85706 6.79457C5.85706 5.187 7.15484 3.87919 8.75 3.87919C10.3452 3.87919 11.6429 5.18704 11.6429 6.7946C11.6429 8.40217 10.3452 9.70998 8.75 9.70998Z" fill="#FA4B5E"/>
</svg>
