<svg width="38" height="38" viewBox="0 0 38 38" fill="none" xmlns="http://www.w3.org/2000/svg">
<rect width="38" height="38" rx="19" fill="#FAB515"/>
<path d="M18.75 11C15.5794 11 13 13.5994 13 16.7946C13 20.7598 18.1457 26.581 18.3648 26.8269C18.5705 27.0579 18.9298 27.0575 19.1352 26.8269C19.3543 26.581 24.5 20.7598 24.5 16.7946C24.4999 13.5994 21.9205 11 18.75 11ZM18.75 19.71C17.1548 19.71 15.8571 18.4021 15.8571 16.7946C15.8571 15.187 17.1548 13.8792 18.75 13.8792C20.3452 13.8792 21.6429 15.187 21.6429 16.7946C21.6429 18.4022 20.3452 19.71 18.75 19.71Z" fill="white"/>
</svg>
