<svg width="32" height="32" viewBox="0 0 32 32" fill="none" xmlns="http://www.w3.org/2000/svg">
<rect width="32" height="32" rx="16" fill="#34CECE"/>
<path d="M24.0814 12.2651C23.8065 11.1823 23.2205 10.2486 22.3867 9.56489C21.5745 8.89893 20.5795 8.53212 19.585 8.53212C18.8226 8.53212 18.0953 8.73829 17.4234 9.14483C16.8928 9.46598 16.4155 9.90274 15.9986 10.4479C15.0503 9.20668 13.7984 8.53212 12.4138 8.53212C11.4197 8.53212 10.4251 8.89893 9.613 9.56489C8.77949 10.2486 8.19359 11.1822 7.91865 12.265C7.71701 13.0592 7.6252 14.1738 8.02306 15.5144H10.5215L11.4236 13.7022C11.5056 13.5376 11.673 13.4336 11.8561 13.4336C12.0394 13.4336 12.2067 13.5376 12.2886 13.7022L13.9279 16.9948L15.5672 13.7022C15.6491 13.5376 15.8165 13.4336 15.9997 13.4336C16.1829 13.4336 16.3502 13.5376 16.4322 13.7022L17.3344 15.5144H20.7028C20.9699 15.5144 21.1863 15.7318 21.1863 15.9999C21.1863 16.2682 20.9699 16.4857 20.7028 16.4857H17.0355C16.8524 16.4857 16.685 16.3817 16.603 16.2171L15.9997 15.0052L14.3604 18.2978C14.2784 18.4624 14.111 18.5662 13.9279 18.5662C13.7447 18.5662 13.5773 18.4624 13.4954 18.2978L11.8562 15.0052L11.2528 16.2172C11.1708 16.3817 11.0034 16.4857 10.8203 16.4857H8.38528C8.54687 16.8456 8.74435 17.2183 8.98415 17.6022C10.3005 19.7106 12.5827 21.6642 15.7669 23.4086C15.839 23.4482 15.9187 23.4679 15.9985 23.4679C16.0782 23.4679 16.1578 23.4482 16.23 23.4087C19.4151 21.664 21.6979 19.7106 23.0149 17.6023C24.4379 15.3242 24.3803 13.4426 24.0814 12.2651Z" fill="white"/>
</svg>
