<svg width="33" height="32" viewBox="0 0 33 32" fill="none" xmlns="http://www.w3.org/2000/svg">
<rect width="33" height="32" rx="16" fill="#34CECE"/>
<path d="M15.0575 13.9176C15.036 14.0842 15.0142 14.2464 14.9927 14.4033C14.9883 14.435 14.9844 14.4653 14.98 14.4966L15.7228 14.2256V13.6759L15.0575 13.9176Z" fill="white"/>
<path d="M17.9426 13.9178L17.2773 13.6759V14.2256L18.02 14.4966C18.0159 14.4653 18.0117 14.435 18.0073 14.4033C17.9858 14.2466 17.9638 14.0844 17.9426 13.9178Z" fill="white"/>
<path d="M19.3501 10.8187C18.6817 10.8187 18.3135 11.1868 18.3135 11.855C18.3135 12.8179 18.4187 13.5882 18.5208 14.333C18.6625 15.3693 18.785 16.2639 18.5677 17.3473C18.4884 17.7434 18.4083 18.0714 18.3376 18.3608C18.2912 18.5504 18.2477 18.7284 18.2094 18.9059C18.1291 19.2854 18.0544 19.7308 18.0544 20.4054C18.0544 21.1114 18.5519 21.7329 19.2371 21.8834C19.8843 22.0269 20.484 22.2363 21.0208 22.506C21.1747 22.5826 21.3216 22.6617 21.4649 22.7386C21.9607 23.0049 22.3887 23.235 22.9058 23.2531C23.1178 23.2596 23.317 23.1837 23.4748 23.035C23.6442 22.8757 23.7442 22.6508 23.7494 22.4181C23.853 17.2527 22.1861 13.1511 20.5936 11.5262C20.1457 11.0695 19.704 10.8179 19.3498 10.8179L19.3501 10.8187Z" fill="white"/>
<path d="M16.2409 8.74623H16.7591V14.7049H16.2409V8.74623Z" fill="white"/>
<path d="M13.65 10.8187C13.2958 10.8187 12.8541 11.0702 12.4061 11.527C10.8139 13.1519 9.14676 17.2533 9.25064 22.4189C9.25582 22.651 9.35557 22.8762 9.52526 23.0355C9.68304 23.1842 9.88641 23.2573 10.0934 23.2536C10.6113 23.2355 11.0393 23.0055 11.5351 22.7391C11.6784 22.6619 11.8253 22.5829 11.98 22.506C12.5157 22.2368 13.1157 22.0272 13.7624 21.8839C14.4482 21.7334 14.9456 21.1119 14.9456 20.4059C14.9456 19.7313 14.871 19.2859 14.7904 18.9051C14.7523 18.7287 14.7088 18.551 14.6624 18.3611C14.5919 18.0717 14.5116 17.7437 14.4324 17.3476C14.215 16.2641 14.3375 15.3695 14.4792 14.3333C14.5813 13.5884 14.6865 12.8182 14.6865 11.8552C14.6865 11.1868 14.3184 10.8189 13.65 10.8189V10.8187Z" fill="white"/>
</svg>
