<svg width="14" height="20" viewBox="0 0 14 20" fill="none" xmlns="http://www.w3.org/2000/svg">
<path d="M13.9751 9.93203C13.8472 8.98393 13.0444 8.27539 12.0873 8.27539C11.5425 8.27539 11.0223 8.50837 10.66 8.91469C10.4452 9.15563 10.4663 9.52629 10.7067 9.74109C10.8152 9.83725 10.9533 9.88971 11.0969 9.88971C11.2639 9.88971 11.423 9.8185 11.5339 9.69403C11.6744 9.53662 11.8762 9.4463 12.0873 9.4463C12.4964 9.4463 12.8291 9.77904 12.8291 10.1881V19.2189C12.8291 19.5417 13.0918 19.8044 13.4146 19.8044C13.7373 19.8044 14 19.5417 14 19.2189V10.0996C14 10.0425 13.9916 9.98649 13.9751 9.93203Z" fill="white"/>
<path d="M10.3563 8.64358C10.4462 8.54145 10.5483 8.44749 10.6545 8.36578H9.84155L8.55418 6.17091C8.55875 5.97788 8.52987 5.78224 8.46348 5.59187C8.46214 5.58803 8.46079 5.58419 8.45944 5.58039C7.8717 3.92248 5.83076 3.34487 4.4444 4.41353C4.04127 4.72425 3.6591 5.0878 3.30556 5.47058C1.82397 7.07485 0.89066 9.11665 0.532467 11.2799L0.000244141 14.4936H1.63438V18.9874C1.63438 19.4386 2.00021 19.8044 2.45142 19.8044C2.90263 19.8044 3.26847 19.4386 3.26847 18.9874V14.4936H4.49403V18.9874C4.49403 19.4386 4.85987 19.8044 5.31108 19.8044C5.76229 19.8044 6.12812 19.4386 6.12812 18.9874V14.4936H7.21749L6.58996 10.7042C6.4087 9.60969 6.7887 8.50529 7.5843 7.7512L8.66509 9.59543C8.81216 9.84463 9.08178 9.99987 9.37183 9.99987H10.385C10.0213 9.62812 10.0091 9.03576 10.3563 8.64358Z" fill="white"/>
<path d="M10.1676 4.28054C11.2957 4.28054 12.2102 3.36603 12.2102 2.23793C12.2102 1.10982 11.2957 0.195312 10.1676 0.195312C9.03951 0.195312 8.125 1.10982 8.125 2.23793C8.125 3.36603 9.03951 4.28054 10.1676 4.28054Z" fill="white"/>
</svg>
