<svg width="22" height="20" viewBox="0 0 22 20" fill="none" xmlns="http://www.w3.org/2000/svg">
<path fill-rule="evenodd" clip-rule="evenodd" d="M10.6778 19.4271C10.7775 19.4846 10.8887 19.5134 11 19.5134C11.1119 19.5134 11.2239 19.4843 11.324 19.4261C11.4315 19.3636 13.9856 17.87 16.5855 15.6196C18.1261 14.2861 19.3589 12.9637 20.2498 11.689C21.4017 10.041 21.9905 8.4561 21.9999 6.97828C22.0112 5.18207 21.3183 3.44794 20.0986 2.22063C18.9873 1.10224 17.5398 0.486328 16.0227 0.486328C13.9646 0.486328 12.083 1.63922 11 3.46543C9.91709 1.63918 8.03545 0.486328 5.97739 0.486328C4.37152 0.486328 2.86582 1.16893 1.73755 2.40849C0.628011 3.6275 0.0110251 5.24751 0.000111035 6.97012C-0.00921315 8.45052 0.568758 10.0379 1.71808 11.6881C2.60624 12.9634 3.84082 14.2864 5.38743 15.6203C7.99691 17.8709 10.5695 19.3646 10.6778 19.4271ZM11.8843 5.6576L16.4844 13.2866C16.6718 13.5972 16.6773 13.9864 16.4989 14.3022C16.3205 14.6181 15.9844 14.8143 15.6216 14.8143H6.42136C6.05863 14.8143 5.72249 14.6181 5.54408 14.3023C5.36572 13.9864 5.37126 13.5972 5.55856 13.2866L10.1587 5.65762C10.3399 5.35705 10.6705 5.17034 11.0215 5.17034C11.3725 5.17034 11.7031 5.35705 11.8843 5.6576ZM15.6216 14.0842C15.7215 14.0842 15.814 14.0301 15.8632 13.9432C15.9123 13.8563 15.9107 13.7491 15.8591 13.6636L11.259 6.03465C11.2091 5.95192 11.1181 5.90051 11.0215 5.90051C10.9249 5.90051 10.8339 5.95192 10.784 6.03465L6.18383 13.6636C6.13229 13.7491 6.13076 13.8563 6.17987 13.9432C6.22895 14.0302 6.3215 14.0842 6.42136 14.0842H15.6216ZM10.5304 8.5874C10.5304 8.32319 10.7472 8.17416 11.0249 8.17416C11.2891 8.17416 11.5126 8.32321 11.5126 8.5874C11.5126 8.99046 11.4889 9.48158 11.4652 9.9727L11.4652 9.97272C11.4415 10.4638 11.4178 10.955 11.4178 11.358C11.4178 11.568 11.1875 11.6561 11.0249 11.6561C10.8082 11.6561 10.6252 11.568 10.6252 11.358C10.6252 10.955 10.6015 10.4639 10.5778 9.97277L10.5778 9.97271L10.5778 9.97268L10.5778 9.9726C10.5541 9.48151 10.5304 8.99043 10.5304 8.5874ZM11.0317 12.1235C10.7336 12.1235 10.51 12.3606 10.51 12.6452C10.51 12.9229 10.7336 13.1668 11.0317 13.1668C11.3094 13.1668 11.5465 12.9229 11.5465 12.6452C11.5465 12.3606 11.3094 12.1235 11.0317 12.1235Z" fill="white"/>
</svg>
