<svg width="16" height="16" viewBox="0 0 16 16" fill="none" xmlns="http://www.w3.org/2000/svg">
<path d="M6.20741 9.22437C5.9921 9.28156 5.78491 9.3625 5.5896 9.46531C5.92585 9.88906 6.12679 10.425 6.12679 11.0069C6.12679 11.2731 6.08491 11.5294 6.0071 11.7697H13.1587V9.125H6.96866C6.70804 9.125 6.45272 9.15906 6.20741 9.22437Z" fill="white"/>
<path d="M5.18943 11.0071C5.18943 10.1534 4.49506 9.45898 3.64131 9.45898C3.34881 9.45898 3.07475 9.54055 2.84131 9.68211V11.7699H4.98818C5.11631 11.5446 5.18943 11.2843 5.18943 11.0071Z" fill="white"/>
<path d="M2.84131 12.707H13.1588V13.957H2.84131V12.707Z" fill="white"/>
<path d="M8 7.75C10.1366 7.75 11.875 6.01156 11.875 3.875C11.875 1.73844 10.1366 0 8 0C5.86344 0 4.125 1.73844 4.125 3.875C4.125 6.01156 5.86344 7.75 8 7.75ZM9.40625 2.78125C9.665 2.78125 9.875 2.99125 9.875 3.25C9.875 3.50906 9.665 3.71875 9.40625 3.71875C9.1475 3.71875 8.9375 3.50906 8.9375 3.25C8.9375 2.99125 9.1475 2.78125 9.40625 2.78125ZM9.26062 5.13312C9.46312 5.29437 9.49687 5.58938 9.33562 5.79187C9.17437 5.99437 8.87937 6.02813 8.67688 5.86688C8.44906 5.68563 8.22156 5.59375 8 5.59375C7.77844 5.59375 7.55094 5.68563 7.32312 5.86688C7.12062 6.02813 6.82562 5.99437 6.66437 5.79187C6.50312 5.58938 6.53688 5.29437 6.73938 5.13312C7.13719 4.81656 7.56125 4.65625 8 4.65625C8.43875 4.65625 8.86281 4.81656 9.26062 5.13312ZM6.59375 2.78125C6.8525 2.78125 7.0625 2.99125 7.0625 3.25C7.0625 3.50906 6.8525 3.71875 6.59375 3.71875C6.335 3.71875 6.125 3.50906 6.125 3.25C6.125 2.99125 6.335 2.78125 6.59375 2.78125Z" fill="white"/>
<path d="M1.43497 8.34375H0.46875C0.209875 8.34375 0 8.55362 0 8.8125V15.5312C0 15.7901 0.209875 16 0.46875 16H1.43497C1.69384 16 1.90372 15.7901 1.90372 15.5312V8.8125C1.90372 8.55362 1.69387 8.34375 1.43497 8.34375Z" fill="white"/>
<path d="M15.5312 8.34375H14.5649C14.3061 8.34375 14.0962 8.55362 14.0962 8.8125V15.5312C14.0962 15.7901 14.3061 16 14.5649 16H15.5312C15.79 16 15.9999 15.7901 15.9999 15.5312V8.8125C15.9999 8.55362 15.79 8.34375 15.5312 8.34375Z" fill="white"/>
</svg>
