<svg width="18" height="18" viewBox="0 0 18 18" fill="none" xmlns="http://www.w3.org/2000/svg">
<path d="M9.00003 4.34478C10.1998 4.34478 11.1724 3.37217 11.1724 2.17239C11.1724 0.972612 10.1998 0 9.00003 0C7.80025 0 6.82764 0.972612 6.82764 2.17239C6.82764 3.37217 7.80025 4.34478 9.00003 4.34478Z" fill="white"/>
<path d="M3.72415 7.13775C4.92392 7.13775 5.89654 6.16514 5.89654 4.96536C5.89654 3.76558 4.92392 2.79297 3.72415 2.79297C2.52437 2.79297 1.55176 3.76558 1.55176 4.96536C1.55176 6.16514 2.52437 7.13775 3.72415 7.13775Z" fill="white"/>
<path d="M1.86229 12.103C2.89067 12.103 3.72434 11.2693 3.72434 10.241C3.72434 9.21257 2.89067 8.37891 1.86229 8.37891C0.833911 8.37891 0.000244141 9.21257 0.000244141 10.241C0.000244141 11.2693 0.833911 12.103 1.86229 12.103Z" fill="white"/>
<path d="M4.65526 16.4477C5.68364 16.4477 6.51731 15.6141 6.51731 14.5857C6.51731 13.5573 5.68364 12.7236 4.65526 12.7236C3.62688 12.7236 2.79321 13.5573 2.79321 14.5857C2.79321 15.6141 3.62688 16.4477 4.65526 16.4477Z" fill="white"/>
<path d="M9.62104 17.9989C10.478 17.9989 11.1727 17.3042 11.1727 16.4472C11.1727 15.5902 10.478 14.8955 9.62104 14.8955C8.76406 14.8955 8.06934 15.5902 8.06934 16.4472C8.06934 17.3042 8.76406 17.9989 9.62104 17.9989Z" fill="white"/>
<path d="M14.2758 16.1376C15.1328 16.1376 15.8275 15.4429 15.8275 14.5859C15.8275 13.7289 15.1328 13.0342 14.2758 13.0342C13.4188 13.0342 12.7241 13.7289 12.7241 14.5859C12.7241 15.4429 13.4188 16.1376 14.2758 16.1376Z" fill="white"/>
<path d="M16.7587 11.7933C17.4443 11.7933 18.0001 11.2375 18.0001 10.5519C18.0001 9.86633 17.4443 9.31055 16.7587 9.31055C16.0731 9.31055 15.5173 9.86633 15.5173 10.5519C15.5173 11.2375 16.0731 11.7933 16.7587 11.7933Z" fill="white"/>
<path d="M16.4484 7.44799C16.9625 7.44799 17.3794 7.03115 17.3794 6.51696C17.3794 6.00277 16.9625 5.58594 16.4484 5.58594C15.9342 5.58594 15.5173 6.00277 15.5173 6.51696C15.5173 7.03115 15.9342 7.44799 16.4484 7.44799Z" fill="white"/>
<path d="M13.9654 4.65445C14.3082 4.65445 14.5861 4.37656 14.5861 4.03377C14.5861 3.69098 14.3082 3.41309 13.9654 3.41309C13.6226 3.41309 13.3447 3.69098 13.3447 4.03377C13.3447 4.37656 13.6226 4.65445 13.9654 4.65445Z" fill="white"/>
</svg>
