<svg width="22" height="22" viewBox="0 0 22 22" fill="none" xmlns="http://www.w3.org/2000/svg">
<path d="M5.30901 17.1045L7.87241 16.2442C8.33395 16.0893 8.83059 16.3575 8.9527 16.8288C9.02797 17.1192 9.112 17.4256 9.20573 17.7498C9.51818 18.8296 8.92108 19.9633 7.85528 20.321L7.79752 20.3404C6.75495 20.6903 5.61901 20.177 5.19316 19.1631C5.07175 18.8739 4.93984 18.5586 4.80055 18.2237C4.61341 17.7738 4.84711 17.2595 5.30901 17.1045Z" stroke="white" stroke-width="1.24481" stroke-miterlimit="10" stroke-linecap="round" stroke-linejoin="round"/>
<path d="M7.66236 8.32803C7.99451 10.0891 7.85385 11.091 7.90841 12.4913C7.92298 12.8652 7.69111 13.2046 7.3363 13.3237L3.8851 14.4819C3.46099 14.6242 2.99987 14.4091 2.83589 13.9929C2.31867 12.6802 1.8344 11.3988 1.49809 10.3967C0.346183 6.96434 1.30618 4.7087 3.20975 4.06986C5.11336 3.43102 7.08107 5.24625 7.66236 8.32803Z" stroke="white" stroke-width="1.24481" stroke-miterlimit="10" stroke-linecap="round" stroke-linejoin="round"/>
<path d="M16.691 14.7129L14.1276 13.8526C13.6661 13.6977 13.1695 13.9659 13.0473 14.4372C12.9721 14.7276 12.888 15.034 12.7943 15.3582C12.4819 16.438 13.079 17.5717 14.1448 17.9294L14.2025 17.9488C15.2451 18.2987 16.381 17.7854 16.8069 16.7715C16.9283 16.4823 17.0602 16.167 17.1995 15.8321C17.3866 15.3822 17.1529 14.8679 16.691 14.7129Z" stroke="white" stroke-width="1.24481" stroke-miterlimit="10" stroke-linecap="round" stroke-linejoin="round"/>
<path d="M14.3375 5.93547C14.0054 7.69659 14.146 8.69842 14.0915 10.0987C14.0769 10.4727 14.3088 10.812 14.6636 10.9311L18.1148 12.0893C18.5389 12.2316 19 12.0165 19.164 11.6003C19.6812 10.2877 20.1655 9.00622 20.5018 8.00419C21.6537 4.57174 20.6937 2.31614 18.7901 1.67726C16.8865 1.03847 14.9188 2.85374 14.3375 5.93547Z" stroke="white" stroke-width="1.24481" stroke-miterlimit="10" stroke-linecap="round" stroke-linejoin="round"/>
</svg>
