<svg width="18" height="18" viewBox="0 0 18 18" fill="none" xmlns="http://www.w3.org/2000/svg">
<path d="M7.41797 0C6.25486 0 5.30859 0.946266 5.30859 2.10938C5.30859 3.27248 6.25486 4.21875 7.41797 4.21875C8.58108 4.21875 9.52734 3.27248 9.52734 2.10938C9.52734 0.946266 8.58108 0 7.41797 0ZM7.41797 3.16406C6.83641 3.16406 6.36328 2.69093 6.36328 2.10938C6.36328 1.52782 6.83641 1.05469 7.41797 1.05469C7.99952 1.05469 8.47266 1.52782 8.47266 2.10938C8.47266 2.69093 7.99952 3.16406 7.41797 3.16406Z" fill="white"/>
<path d="M14.3086 0C12.2732 0 10.6172 1.65596 10.6172 3.69141C10.6172 5.72685 12.2732 7.38281 14.3086 7.38281C16.344 7.38281 18 5.72685 18 3.69141C18 1.65596 16.344 0 14.3086 0ZM14.3086 6.32812C12.8547 6.32812 11.6719 5.14529 11.6719 3.69141C11.6719 2.23752 12.8547 1.05469 14.3086 1.05469C15.7625 1.05469 16.9453 2.23752 16.9453 3.69141C16.9453 5.14529 15.7625 6.32812 14.3086 6.32812Z" fill="white"/>
<path d="M15.3633 3.16406H14.8359V2.63672C14.8359 2.34548 14.5998 2.10938 14.3086 2.10938C14.0174 2.10938 13.7812 2.34548 13.7812 2.63672V3.69141C13.7812 3.98264 14.0174 4.21875 14.3086 4.21875H15.3633C15.6545 4.21875 15.8906 3.98264 15.8906 3.69141C15.8906 3.40017 15.6545 3.16406 15.3633 3.16406Z" fill="white"/>
<path d="M12.1992 9.52734H9.52734V6.32812C9.52734 5.16502 8.58108 4.21875 7.41797 4.21875C6.25486 4.21875 5.30859 5.16502 5.30859 6.32812V11.1094C5.30859 11.2942 5.34076 11.4717 5.3993 11.6368H4.02507C4.02507 11.6368 3.46356 7.14618 3.16368 4.71059C3.14473 3.85457 2.44252 3.16406 1.58203 3.16406C0.709699 3.16406 0 3.87376 0 4.74609C0 4.76786 0.00137109 4.78962 0.00404297 4.81124L1.05507 13.2547C1.07016 13.9266 1.5063 14.4963 2.10938 14.7102V17.4727C2.10938 17.7639 2.34548 18 2.63672 18C2.92795 18 3.16406 17.7639 3.16406 17.4727V14.8008H7.41797V17.4727C7.41797 17.7639 7.65408 18 7.94531 18C8.23655 18 8.47266 17.7639 8.47266 17.4727V14.7101C9.08645 14.4924 9.52734 13.9062 9.52734 13.2188C9.52734 13.0339 9.49518 12.8565 9.43664 12.6914H10.6172V16.418C10.6172 17.2903 11.3269 18 12.1992 18C13.0716 18 13.7812 17.2903 13.7812 16.418V11.1094C13.7812 10.237 13.0716 9.52734 12.1992 9.52734ZM7.94531 13.7461H2.63672C2.34594 13.7461 2.10938 13.5095 2.10938 13.2188C2.10938 13.1694 2.16668 13.6464 1.05539 4.71895C1.06956 4.44073 1.30036 4.21875 1.58203 4.21875C1.87281 4.21875 2.10938 4.45532 2.10938 4.74609C2.10938 4.81184 3.03627 12.2294 3.03627 12.2294C3.06928 12.4933 3.29361 12.6914 3.55957 12.6914C3.76812 12.6914 7.70576 12.6914 7.94531 12.6914C8.23609 12.6914 8.47266 12.928 8.47266 13.2188C8.47266 13.5095 8.23609 13.7461 7.94531 13.7461ZM12.7266 16.418C12.7266 16.7087 12.49 16.9453 12.1992 16.9453C11.9084 16.9453 11.6719 16.7087 11.6719 16.418V12.1641C11.6719 11.8728 11.4358 11.6367 11.1445 11.6367C10.994 11.6367 7.13148 11.6367 6.89027 11.6367C6.59964 11.6365 6.36328 11.4 6.36328 11.1094V6.32812C6.36328 5.74657 6.83641 5.27344 7.41797 5.27344C7.99952 5.27344 8.47266 5.74657 8.47266 6.32812V10.0547C8.47266 10.3459 8.70877 10.582 9 10.582H12.1992C12.49 10.582 12.7266 10.8186 12.7266 11.1094V16.418Z" fill="white"/>
</svg>
