<svg width="18" height="20" viewBox="0 0 18 20" fill="none" xmlns="http://www.w3.org/2000/svg">
<path d="M16.6632 9.0625C15.9259 9.0625 15.3261 9.6623 15.3261 10.3995V14.2566H2.67408V10.3995C2.67408 9.6623 2.07429 9.0625 1.33706 9.0625C0.599796 9.0625 0 9.6623 0 10.3995V18.2079H1.68017V19.8762H2.83763V18.2079H15.1626V19.8762H16.3201V18.2079H18.0002V10.3995C18.0002 9.6623 17.4004 9.0625 16.6632 9.0625Z" fill="white"/>
<path fill-rule="evenodd" clip-rule="evenodd" d="M1.91577 7.2074C1.91577 3.30109 5.09381 0.123047 9.00013 0.123047C12.9064 0.123047 16.0845 3.30109 16.0845 7.2074V7.97434C14.9873 8.23612 14.1687 9.22413 14.1687 10.4003V13.1H3.83156V10.4003C3.83156 9.22413 3.01297 8.23612 1.91577 7.97434V7.2074ZM8.97043 10.3477C6.89285 10.3477 5.20868 8.66349 5.20868 6.58591C5.20868 4.50832 6.89285 2.82416 8.97043 2.82416C11.048 2.82416 12.7322 4.50832 12.7322 6.58591C12.7322 8.66349 11.048 10.3477 8.97043 10.3477ZM10.713 6.2529L9.77309 5.31302C9.58943 5.12933 9.29184 5.12933 9.10817 5.31299C8.9245 5.49666 8.9245 5.79425 9.10817 5.97791L9.24595 6.11569H7.55977C7.29987 6.11569 7.08955 6.326 7.08955 6.58591C7.08955 6.84581 7.29987 7.05613 7.55977 7.05613H9.24595L9.10817 7.1939C8.9245 7.37757 8.9245 7.67515 9.10817 7.85882C9.29184 8.04249 9.58943 8.04249 9.77309 7.85882L10.713 6.91895C10.8015 6.8307 10.8513 6.70788 10.8513 6.58591C10.8513 6.46393 10.8015 6.34111 10.713 6.2529Z" fill="white"/>
</svg>
