<svg width="23" height="27" viewBox="0 0 23 27" fill="none" xmlns="http://www.w3.org/2000/svg">
<path d="M2.25292 0.480469C1.39621 0.480469 0.699219 1.17746 0.699219 2.03417V24.9664C0.699219 25.8231 1.39621 26.5201 2.25292 26.5201H21.4389C22.3 26.5201 23.0009 25.8231 23.0009 24.9664V2.03417C23.0009 1.17746 22.3 0.480469 21.4389 0.480469H2.25292ZM22.1333 24.9664C22.1333 25.3444 21.8221 25.6521 21.4394 25.6521H2.25292C1.88142 25.6521 1.56721 25.3379 1.56721 24.9664V7.08976H22.1333V24.9664ZM22.1333 2.03417V6.22178H1.56721V2.03417C1.56721 1.65616 1.87491 1.34846 2.25292 1.34846H21.4389C21.8217 1.34846 22.1333 1.65572 22.1333 2.03417Z" fill="black"/>
<path d="M10.1399 2.42383H3.56095C3.32138 2.42383 3.12695 2.61826 3.12695 2.85782V4.71141C3.12695 4.95097 3.32138 5.1454 3.56095 5.1454H10.1399C10.3794 5.1454 10.5739 4.95097 10.5739 4.71141V2.85782C10.5739 2.61826 10.3794 2.42383 10.1399 2.42383ZM9.70587 4.27742H3.99494V3.29182H9.70587V4.27742Z" fill="black"/>
<path d="M14.5129 2.35742C13.8016 2.35742 13.2227 2.93637 13.2227 3.64769C13.2227 4.359 13.8016 4.93795 14.5129 4.93795C15.2242 4.93795 15.8032 4.359 15.8032 3.64769C15.8032 2.93637 15.2242 2.35742 14.5129 2.35742ZM14.5129 4.06996C14.2799 4.06996 14.0906 3.88031 14.0906 3.64769C14.0906 3.41507 14.2803 3.22541 14.5129 3.22541C14.7455 3.22541 14.9352 3.41507 14.9352 3.64769C14.9352 3.88031 14.7455 4.06996 14.5129 4.06996Z" fill="black"/>
<path d="M17.5617 2.35742C16.8504 2.35742 16.2715 2.93637 16.2715 3.64769C16.2715 4.359 16.8504 4.93795 17.5617 4.93795C18.2731 4.93795 18.852 4.359 18.852 3.64769C18.852 2.93637 18.2731 2.35742 17.5617 2.35742ZM17.5617 4.06996C17.3287 4.06996 17.1395 3.88031 17.1395 3.64769C17.1395 3.41507 17.3291 3.22541 17.5617 3.22541C17.7944 3.22541 17.984 3.41507 17.984 3.64769C17.984 3.88031 17.7944 4.06996 17.5617 4.06996Z" fill="black"/>
<path d="M19.3203 3.64769C19.3203 4.359 19.8993 4.93795 20.6106 4.93795C21.3219 4.93795 21.9008 4.359 21.9008 3.64769C21.9008 2.93637 21.3219 2.35742 20.6106 2.35742C19.8993 2.35742 19.3203 2.93637 19.3203 3.64769ZM21.0329 3.64769C21.0329 3.88074 20.8432 4.06996 20.6106 4.06996C20.378 4.06996 20.1883 3.88031 20.1883 3.64769C20.1883 3.41507 20.378 3.22541 20.6106 3.22541C20.8432 3.22541 21.0329 3.41507 21.0329 3.64769Z" fill="black"/>
<path d="M11.8493 23.9583C15.7014 23.9583 18.8353 20.8245 18.8353 16.9723C18.8353 13.1202 15.7014 9.98633 11.8493 9.98633C7.99715 9.98633 4.86328 13.1202 4.86328 16.9723C4.86328 20.8245 7.99715 23.9583 11.8493 23.9583ZM11.8493 10.8547C15.2227 10.8547 17.9673 13.5993 17.9673 16.9728C17.9673 20.3462 15.2227 23.0908 11.8493 23.0908C8.47585 23.0908 5.73127 20.3462 5.73127 16.9728C5.73127 13.5993 8.47585 10.8547 11.8493 10.8547Z" fill="black"/>
<path d="M11.8505 21.6767C14.4445 21.6767 16.5546 19.5666 16.5546 16.9726C16.5546 14.3786 14.4445 12.2686 11.8505 12.2686C9.25656 12.2686 7.14648 14.3786 7.14648 16.9726C7.14648 19.5666 9.25656 21.6767 11.8505 21.6767ZM11.8505 13.1365C13.9658 13.1365 15.6866 14.8573 15.6866 16.9726C15.6866 19.0879 13.9658 20.8087 11.8505 20.8087C9.73526 20.8087 8.01447 19.0879 8.01447 16.9726C8.01447 14.8573 9.73526 13.1365 11.8505 13.1365Z" fill="black"/>
</svg>
