<svg width="35" height="25" viewBox="0 0 35 25" fill="none" xmlns="http://www.w3.org/2000/svg">
<path d="M33.6671 11.0475V4.23415C33.6662 3.11157 33.3384 2.03535 32.7556 1.24157C32.1728 0.447788 31.3827 0.00128075 30.5586 0L4.76108 0.000305176C3.93693 0.00158592 3.14681 0.448094 2.56405 1.24187C1.98129 2.03565 1.65348 3.11188 1.65254 4.23445V11.0478C1.24159 11.437 0.905822 11.9558 0.673852 12.5599C0.441882 13.164 0.320589 13.8356 0.320312 14.5174V23.5905C0.320313 23.9114 0.413886 24.2191 0.580447 24.446C0.747008 24.6728 0.972913 24.8003 1.20847 24.8003H2.98477C3.22033 24.8003 3.44623 24.6728 3.61279 24.446C3.77935 24.2191 3.87293 23.9114 3.87293 23.5905V21.7759L31.4467 21.7756V23.5902C31.4467 23.9111 31.5403 24.2188 31.7069 24.4457C31.8734 24.6725 32.0993 24.8 32.3349 24.8H34.1112C34.3467 24.8 34.5726 24.6725 34.7392 24.4457C34.9058 24.2188 34.9993 23.9111 34.9993 23.5902V14.5171C34.9991 13.8353 34.8778 13.1637 34.6458 12.5596C34.4138 11.9555 34.0781 11.4367 33.6671 11.0475ZM2.5407 4.23445C2.5414 3.43263 2.77556 2.66392 3.19181 2.09695C3.60806 1.52997 4.17241 1.21102 4.76108 1.21006L30.5586 1.20976C31.1472 1.21072 31.7116 1.52966 32.1278 2.09664C32.5441 2.66362 32.7782 3.43232 32.7789 4.23415V10.4644C32.491 10.3453 32.1918 10.2842 31.8908 10.2829L13.6426 10.2832V9.07347C13.6419 8.27165 13.4077 7.50294 12.9915 6.93597C12.5752 6.36899 12.0109 6.05005 11.4222 6.04909H6.98146C6.3928 6.05005 5.82844 6.36899 5.41219 6.93597C4.99594 7.50294 4.76178 8.27165 4.76108 9.07347V10.2832H3.42885C3.12789 10.2845 2.82868 10.3456 2.5407 10.4647V4.23445ZM12.7545 10.2832H5.64923V9.07347C5.64923 8.5922 5.78959 8.13065 6.03943 7.79034C6.28928 7.45003 6.62813 7.25884 6.98146 7.25884H11.4222C11.7756 7.25884 12.1144 7.45003 12.3643 7.79034C12.6141 8.13065 12.7545 8.5922 12.7545 9.07347V10.2832ZM1.20847 14.5174C1.20917 13.7156 1.44333 12.9468 1.85958 12.3799C2.27583 11.8129 2.84018 11.4939 3.42885 11.493L31.8908 11.4927C32.4795 11.4936 33.0438 11.8126 33.4601 12.3796C33.8763 12.9465 34.1105 13.7152 34.1112 14.5171V16.9366L1.20847 16.9369V14.5174ZM2.98477 23.5905H1.20847V21.7759H2.98477V23.5905ZM1.20847 20.5662V18.1466L34.1112 18.1463V20.5659L1.20847 20.5662ZM34.1112 23.5902H32.3349V21.7756H34.1112V23.5902Z" fill="black"/>
<path d="M33.6374 11.0475V4.23415C33.6365 3.11157 33.3087 2.03535 32.7259 1.24157C32.1432 0.447788 31.353 0.00128075 30.5289 0H4.72592C3.90178 0.00128075 3.11166 0.447788 2.5289 1.24157C1.94614 2.03535 1.61833 3.11157 1.61739 4.23415V11.0475C1.20644 11.4367 0.870668 11.9555 0.638697 12.5596C0.406727 13.1637 0.285434 13.8353 0.285158 14.5171V23.5902C0.285158 23.9111 0.378731 24.2188 0.545292 24.4457C0.711853 24.6725 0.937758 24.8 1.17331 24.8H2.94962C3.18517 24.8 3.41108 24.6725 3.57764 24.4457C3.7442 24.2188 3.83777 23.9111 3.83777 23.5902V21.7756H31.417V23.5902C31.417 23.9111 31.5106 24.2188 31.6772 24.4457C31.8437 24.6725 32.0697 24.8 32.3052 24.8H34.0815C34.3171 24.8 34.543 24.6725 34.7095 24.4457C34.8761 24.2188 34.9697 23.9111 34.9697 23.5902V14.5171C34.9694 13.8353 34.8481 13.1637 34.6161 12.5596C34.3842 11.9555 34.0484 11.4367 33.6374 11.0475ZM2.50554 4.23415C2.50625 3.43232 2.74041 2.66362 3.15666 2.09664C3.57291 1.52966 4.13726 1.21072 4.72592 1.20976H30.5289C31.1176 1.21072 31.6819 1.52966 32.0982 2.09664C32.5144 2.66362 32.7486 3.43232 32.7493 4.23415V10.4644C32.4613 10.3453 32.1621 10.2842 31.8611 10.2829H30.5289V9.07317C30.5282 8.27135 30.294 7.50264 29.8778 6.93566C29.4615 6.36869 28.8972 6.04974 28.3085 6.04878H23.8677C23.2791 6.04974 22.7147 6.36869 22.2984 6.93566C21.8822 7.50264 21.648 8.27135 21.6473 9.07317V10.2829H3.39369C3.09273 10.2842 2.79352 10.3453 2.50554 10.4644V4.23415ZM29.6407 10.2829H22.5355V9.07317C22.5355 8.5919 22.6758 8.13034 22.9257 7.79003C23.1755 7.44972 23.5144 7.25854 23.8677 7.25854H28.3085C28.6618 7.25854 29.0007 7.44972 29.2505 7.79003C29.5004 8.13034 29.6407 8.5919 29.6407 9.07317V10.2829ZM1.17331 14.5171C1.17402 13.7152 1.40818 12.9465 1.82443 12.3796C2.24068 11.8126 2.80503 11.4936 3.39369 11.4927H31.8611C32.4498 11.4936 33.0142 11.8126 33.4304 12.3796C33.8467 12.9465 34.0808 13.7152 34.0815 14.5171V16.9366H1.17331V14.5171ZM2.94962 23.5902H1.17331V21.7756H2.94962V23.5902ZM1.17331 20.5659V18.1463H34.0815V20.5659H1.17331ZM34.0815 23.5902H32.3052V21.7756H34.0815V23.5902Z" fill="black"/>
</svg>
