<svg width="27" height="27" viewBox="0 0 27 27" fill="none" xmlns="http://www.w3.org/2000/svg">
<path d="M26.5356 24.6974H22.9265V1.83891C22.9265 1.72497 22.8845 1.61502 22.8085 1.53008C22.7326 1.44514 22.628 1.39116 22.5148 1.37846L10.3282 0.00291716C10.2633 -0.00439277 10.1976 0.00207294 10.1355 0.0218915C10.0733 0.04171 10.016 0.0744348 9.96731 0.117925C9.91865 0.161415 9.87971 0.214689 9.85306 0.274264C9.8264 0.333839 9.81262 0.398371 9.81262 0.463638V1.37528H4.53634C4.41338 1.37528 4.29545 1.42412 4.20851 1.51107C4.12156 1.59802 4.07272 1.71595 4.07272 1.83891V24.6974H0.463622C0.340662 24.6974 0.222738 24.7463 0.135792 24.8332C0.0488459 24.9202 0 25.0381 0 25.1611C0 25.284 0.0488459 25.402 0.135792 25.4889C0.222738 25.5759 0.340662 25.6247 0.463622 25.6247H9.81262V26.5364C9.81262 26.6593 9.86146 26.7772 9.94841 26.8642C10.0354 26.9511 10.1533 27 10.2762 27C10.2939 27.0001 10.3116 26.9991 10.3292 26.9971L22.4894 25.6247H26.5364C26.6593 25.6247 26.7773 25.5759 26.8642 25.4889C26.9512 25.402 27 25.284 27 25.1611C27 25.0381 26.9512 24.9202 26.8642 24.8332C26.7773 24.7463 26.6593 24.6974 26.5364 24.6974H26.5356ZM4.99996 2.30255H9.81262V3.49475H6.65549C6.53253 3.49475 6.4146 3.5436 6.32766 3.63055C6.24071 3.71749 6.19187 3.83542 6.19187 3.95839V24.6974H4.9997L4.99996 2.30255ZM7.11937 24.6974V4.42202H9.81262V24.6974H7.11937ZM10.7399 0.982379L21.9992 2.25406V24.747L10.7399 26.0187V0.982379Z" fill="black"/>
<path d="M12.6673 12C12.4036 12 12.1458 12.0782 11.9266 12.2247C11.7073 12.3712 11.5364 12.5795 11.4355 12.8231C11.3346 13.0667 11.3082 13.3348 11.3596 13.5935C11.4111 13.8521 11.538 14.0897 11.7245 14.2761C11.911 14.4626 12.1486 14.5896 12.4072 14.641C12.6658 14.6925 12.9339 14.6661 13.1776 14.5652C13.4212 14.4643 13.6294 14.2934 13.7759 14.0741C13.9225 13.8548 14.0007 13.597 14.0007 13.3333C14.0002 12.9798 13.8596 12.6409 13.6097 12.391C13.3597 12.141 13.0208 12.0004 12.6673 12ZM12.6673 13.7706C12.5808 13.7706 12.4963 13.745 12.4244 13.6969C12.3525 13.6489 12.2964 13.5806 12.2633 13.5007C12.2302 13.4208 12.2216 13.3328 12.2384 13.248C12.2553 13.1632 12.297 13.0853 12.3581 13.0241C12.4193 12.963 12.4972 12.9213 12.582 12.9045C12.6668 12.8876 12.7548 12.8962 12.8347 12.9293C12.9146 12.9624 12.9829 13.0185 13.0309 13.0904C13.0789 13.1623 13.1046 13.2468 13.1046 13.3333C13.1045 13.4493 13.0583 13.5604 12.9764 13.6424C12.8944 13.7244 12.7832 13.7705 12.6673 13.7706Z" fill="black"/>
</svg>
