<svg width="27" height="27" viewBox="0 0 27 27" fill="none" xmlns="http://www.w3.org/2000/svg">
<path d="M0.898008 16.6513H9.19394L10.004 15.3012H1.79808C1.30098 15.3012 0.898008 14.8982 0.898008 14.4011V0.900069C0.898008 0.402974 1.30098 0 1.79808 0H25.1999C25.697 0 26.0999 0.402974 26.0999 0.900069V14.4011C26.0999 14.8982 25.697 15.3012 25.1999 15.3012H16.9939L17.804 16.6513H26.0999C26.597 16.6513 27 17.0542 27 17.5513V23.8518C27 24.3489 26.597 24.7519 26.0999 24.7519H24.6445L25.5855 26.3203C25.6719 26.4582 25.677 26.632 25.599 26.7748C25.521 26.9176 25.3719 27.0071 25.2092 27.009C25.0465 27.0109 24.8955 26.9248 24.8142 26.7838L23.595 24.7519H3.4029L2.18376 26.7838C2.10247 26.9248 1.95143 27.0109 1.78872 27.009C1.62601 27.0071 1.47699 26.9176 1.39896 26.7748C1.32094 26.632 1.32608 26.4582 1.4124 26.3203L2.35342 24.7519H0.898008C0.400913 24.7519 -0.00206184 24.3489 -0.00206184 23.8518V17.5513C-0.00206184 17.0542 0.400913 16.6513 0.898008 16.6513ZM17.9993 21.1516H8.99863V23.8518H17.9993V21.1516ZM8.99863 20.2515H17.9993V17.5513H8.99863V20.2515ZM25.1999 0.900069H1.79808V14.4011H25.1999V0.900069ZM15.9445 15.3012H11.0535L10.2434 16.6513H16.7545L15.9445 15.3012ZM26.0999 17.5513H18.8994V23.8518H26.0999V17.5513ZM8.09856 23.8518V17.5513H0.898008V23.8518H8.09856Z" fill="black"/>
<path d="M21.1505 18.4509H23.8507C24.0993 18.4509 24.3008 18.6524 24.3008 18.901C24.3008 19.1495 24.0993 19.351 23.8507 19.351H21.1505C20.902 19.351 20.7005 19.1495 20.7005 18.901C20.7005 18.6524 20.902 18.4509 21.1505 18.4509Z" fill="black"/>
<path d="M3.14859 18.4509H5.84879C6.09734 18.4509 6.29883 18.6524 6.29883 18.901C6.29883 19.1495 6.09734 19.351 5.84879 19.351H3.14859C2.90004 19.351 2.69855 19.1495 2.69855 18.901C2.69855 18.6524 2.90004 18.4509 3.14859 18.4509Z" fill="black"/>
<path d="M23.8508 3.14975C23.7315 3.14972 23.617 3.10229 23.5327 3.01789L23.0826 2.56785C22.9121 2.39127 22.9145 2.11058 23.0881 1.93699C23.2617 1.76339 23.5424 1.76096 23.719 1.93151L24.169 2.38154C24.2977 2.51025 24.3362 2.70378 24.2665 2.87192C24.1969 3.04006 24.0328 3.14971 23.8508 3.14975Z" fill="black"/>
<path d="M21.017 1.93208L24.1673 5.08232C24.2843 5.19531 24.3312 5.36264 24.29 5.51998C24.2488 5.67733 24.1259 5.80021 23.9686 5.84139C23.8113 5.88258 23.6439 5.83566 23.5309 5.71867L20.3807 2.56843C20.2637 2.45544 20.2168 2.28811 20.258 2.13077C20.2992 1.97342 20.422 1.85054 20.5794 1.80936C20.7367 1.76817 20.9041 1.81509 21.017 1.93208Z" fill="black"/>
</svg>
