<svg width="31" height="34" viewBox="0 0 31 34" fill="none" xmlns="http://www.w3.org/2000/svg">
<path d="M27.6516 14.9322H13.2724V3.21652C14.1347 2.91283 14.5875 1.9676 14.2837 1.10533C14.0501 0.441956 13.4227 -0.00131046 12.7194 3.02235e-06H1.65845C0.744265 -0.00172525 0.00173118 0.737974 2.91118e-06 1.65216C-0.00131057 2.3555 0.441956 2.98286 1.10533 3.21652V16.5914C1.10533 17.5077 1.84815 18.2505 2.76447 18.2505H4.42361V23.2279C4.42665 25.9756 6.65336 28.2023 9.40103 28.2054V32.6297C9.40103 32.9351 9.64865 33.1828 9.95407 33.1828H19.9089C20.2143 33.1828 20.462 32.9351 20.462 32.6297V28.1771C25.4255 27.8827 29.3025 23.7759 29.3107 18.8036V18.2505H29.8637C30.1692 18.2505 30.4168 18.0029 30.4168 17.6975C30.415 16.1711 29.178 14.934 27.6516 14.9322ZM1.1054 1.65914C1.1054 1.35372 1.35303 1.1061 1.65845 1.1061H12.7194C13.0248 1.1061 13.2724 1.35372 13.2724 1.65914C13.2724 1.96456 13.0248 2.21219 12.7194 2.21219H1.65845C1.35296 2.21219 1.1054 1.96456 1.1054 1.65914ZM2.76454 17.1444C2.45912 17.1444 2.2115 16.8968 2.2115 16.5914V3.31828H12.1663V17.1444H2.76454ZM19.3559 32.0767H10.5072V28.2054H19.3559V32.0767ZM28.2047 18.8036C28.1995 23.383 24.4884 27.0941 19.909 27.0993H9.4011C7.26419 27.0965 5.53254 25.3648 5.52977 23.2279V18.2505H28.2047V18.8036ZM13.2724 17.1444V16.0383H27.6516C28.3545 16.0392 28.9809 16.482 29.2162 17.1444H13.2724Z" fill="black"/>
</svg>
