<svg width="14" height="14" viewBox="0 0 14 14" fill="none" xmlns="http://www.w3.org/2000/svg">
<path d="M8.67182 6.04248C8.80495 5.94123 8.96554 5.88766 9.13631 5.88761L10.7828 5.89549L11.2627 5.75666C11.5994 5.65924 11.7917 5.31278 11.6923 4.98291C11.5928 4.65299 11.2392 4.46453 10.9026 4.56195L8.37697 5.2928C8.24608 5.33067 8.1311 5.40885 8.04902 5.51573L6.70773 7.26281C6.77857 7.30197 6.85002 7.3392 6.92203 7.37343L8.67182 6.04248Z" fill="white"/>
<path d="M3.76498 7.45203C4.48791 8.24173 5.03274 8.62711 6.08097 9.05948C6.37098 9.1544 6.6014 9.15535 6.78828 9.09914C6.891 9.0834 6.99123 9.04279 7.07911 8.97591L9.34963 7.24907L12.3612 7.26347H12.3644C12.714 7.26347 12.9983 6.98657 13 6.64364C13.0017 6.29967 12.7185 6.01943 12.3674 6.01774L9.1364 6.00229C8.9929 6.00234 8.8559 6.04768 8.74357 6.13309L6.93697 7.50714C6.51337 7.31579 6.10675 7.03112 5.74026 6.74166L4.45338 7.16063C4.39983 7.17807 4.34425 7.18689 4.28816 7.18689C4.06222 7.18689 3.86247 7.04567 3.79117 6.83539C3.74703 6.70528 3.75725 6.56616 3.81996 6.44358C3.88261 6.32105 3.99031 6.22971 4.12304 6.18651L4.80884 5.96322C4.76022 5.92794 4.70927 5.89605 4.65669 5.86795L6.23093 3.62457C6.35827 3.44314 6.31138 3.19494 6.12623 3.07022C5.94097 2.94545 5.68778 2.99139 5.56049 3.17282L3.5515 6.03562C3.53615 6.05745 3.52348 6.08032 3.51316 6.10374C3.32989 6.452 3.33497 6.9767 3.76498 7.45203Z" fill="white"/>
<path d="M4.15985 6.29523C3.94662 6.36465 3.83119 6.59028 3.90208 6.79921C3.95878 6.96644 4.11759 7.07223 4.2881 7.07223C4.33061 7.07223 4.37389 7.06565 4.4164 7.0518L6.21038 6.46769C6.30044 6.4384 6.37718 6.37915 6.42737 6.30022L7.52071 4.5811C7.63955 4.39424 7.58127 4.14838 7.39062 4.03193C7.19988 3.91548 6.94897 3.97258 6.83018 4.15944L5.8145 5.75648L4.15985 6.29523Z" fill="white"/>
<path d="M2.71628 6.27376C3.32545 6.10781 3.68199 5.4894 3.51263 4.89249C3.34328 4.29558 2.71216 3.94621 2.103 4.11216C1.49383 4.2781 1.13729 4.89652 1.30664 5.49343C1.476 6.09034 2.10711 6.43971 2.71628 6.27376Z" fill="white"/>
<path d="M8.6739 9.08037C8.67141 9.04798 8.64792 9.02088 8.61568 9.01325L7.92708 8.85061C7.88614 8.84084 7.84495 8.86561 7.83504 8.90572C7.82512 8.94583 7.85034 8.98625 7.89128 8.99591L8.34906 9.10404L7.83834 9.30695C7.81363 9.31676 7.79598 9.33849 7.79171 9.36425C7.78749 9.39006 7.79725 9.41612 7.81754 9.43307L8.13512 9.69841L7.63976 9.70489C7.61393 9.70524 7.58998 9.71839 7.5762 9.73982C7.56242 9.76124 7.56069 9.78805 7.57152 9.81107L7.84806 10.3962L7.29168 10.0948C7.26991 10.0829 7.24352 10.0823 7.22104 10.0931C7.19867 10.1039 7.18306 10.1248 7.17934 10.149L7.09274 10.7106L6.76194 10.1787C6.74847 10.157 6.72462 10.1435 6.69868 10.1429C6.67188 10.1419 6.64824 10.1546 6.63369 10.1756L6.32837 10.6161L6.28474 9.92673C6.28327 9.90376 6.27111 9.88268 6.25174 9.86967C6.23236 9.85667 6.20795 9.85318 6.18553 9.86011L5.8023 9.9795L5.98771 9.63826C6.00749 9.60184 5.99341 9.55654 5.95623 9.53716C5.91901 9.51778 5.87284 9.53158 5.85305 9.568L5.57967 10.0712C5.56507 10.098 5.56853 10.1308 5.58842 10.1541C5.6083 10.1775 5.64044 10.1866 5.67014 10.1776L6.13859 10.0317L6.19 10.8437C6.19204 10.8757 6.21451 10.9028 6.24599 10.9112C6.27747 10.9197 6.31093 10.9076 6.32924 10.8811L6.69339 10.3558L7.07174 10.9641C7.08572 10.9867 7.11064 11 7.13683 11C7.14181 11 7.1469 10.9995 7.15188 10.9986C7.18336 10.9923 7.20746 10.9675 7.2123 10.9364L7.3139 10.2777L7.97849 10.6377C8.00733 10.6534 8.04323 10.6491 8.06738 10.627C8.09154 10.605 8.09851 10.5703 8.08462 10.5409L7.75952 9.85303L8.34006 9.84541C8.37184 9.84501 8.40001 9.82532 8.41079 9.79602C8.42157 9.76673 8.41273 9.73399 8.38852 9.71376L8.01226 9.39938L8.62661 9.15532C8.65717 9.14296 8.67635 9.11276 8.6739 9.08037Z" fill="white"/>
</svg>
