<svg width="14" height="14" viewBox="0 0 14 14" fill="none" xmlns="http://www.w3.org/2000/svg">
<path d="M2.03481 8.06962C2.60632 8.06962 3.06962 7.60632 3.06962 7.03481C3.06962 6.4633 2.60632 6 2.03481 6C1.4633 6 1 6.4633 1 7.03481C1 7.60632 1.4633 8.06962 2.03481 8.06962Z" fill="white"/>
<path d="M3.31788 7.42302C3.35283 7.82605 3.60749 8.06014 4.33958 8.06014H5.74164L4.22437 7.69272C4.10139 7.66296 3.99736 7.58703 3.93145 7.47904C3.86555 7.37101 3.84568 7.24384 3.87544 7.12086C3.92708 6.9075 4.11634 6.75854 4.33567 6.75854C4.37311 6.75854 4.41073 6.76304 4.44739 6.77192L6.30108 7.22084H8.61312C8.87435 7.22084 9.08683 7.43332 9.08683 7.69456C9.08683 7.71714 9.08472 7.73917 9.08164 7.76092L12.3716 8.06847C12.3898 8.07017 12.4078 8.07104 12.4257 8.07104C12.7191 8.07104 12.9696 7.84757 12.9975 7.54959C13.027 7.23349 12.7947 6.95322 12.4786 6.92374L5.9365 6.3121C5.40015 6.23704 4.91967 6.26086 4.28426 6.36834C3.58284 6.49132 3.28283 7.01991 3.31788 7.42302Z" fill="white"/>
<path d="M8.98098 7.69453C8.98098 7.49134 8.81623 7.32659 8.61304 7.32659H6.2884L4.42243 6.87473C4.22521 6.82694 4.02607 6.94822 3.97824 7.14576C3.93041 7.34324 4.05178 7.54211 4.24927 7.58994L6.15792 8.05216C6.18625 8.05901 6.21532 8.06251 6.24452 8.06251H8.61309C8.81623 8.06246 8.98098 7.89772 8.98098 7.69453Z" fill="white"/>
</svg>
