<svg width="14" height="14" viewBox="0 0 14 14" fill="none" xmlns="http://www.w3.org/2000/svg">
<path d="M3.05232 13H3.80862C3.8631 12.711 3.91028 12.4213 3.95299 12.1312H6.72261V13H7.46714V10.6004H7.62511V9.91773H4.16409C4.24166 8.13183 4.0981 6.33998 3.73126 4.5768C3.48753 4.61943 3.2438 4.66201 3 4.7047C3.57003 7.4444 3.58628 10.2558 3.05232 13ZM4.12288 10.6004H6.72261V11.7588H4.00443C4.05438 11.3733 4.09377 10.9871 4.12288 10.6004Z" fill="white"/>
<path d="M6.18755 9.64269C6.23033 9.64877 6.27371 9.65287 6.31832 9.65287H9.12625L8.61192 12.0665C8.52217 12.487 8.8214 12.8944 9.27996 12.9766C9.33478 12.9864 9.3894 12.9912 9.44328 12.9912C9.8397 12.9912 10.1937 12.7343 10.2727 12.3641L10.9841 9.026C11.0328 8.7975 10.9684 8.56378 10.8068 8.38399C10.7596 8.33137 10.7051 8.28619 10.6462 8.2474C10.5241 8.41347 10.3176 8.52276 10.0861 8.52276C10.0702 8.52276 10.0542 8.52226 10.0384 8.52115C9.33641 8.47659 8.70661 8.33546 8.15925 8.10144H7.21682C7.21729 7.92363 7.22772 7.74397 7.24437 7.56462C6.94703 7.33196 6.69132 7.06082 6.48218 6.75275C6.00677 6.04968 5.91011 5.39879 5.89055 5.15161L5.88994 5.14422C5.88087 4.97381 5.94294 4.81506 6.0645 4.69218C6.18606 4.56949 6.35243 4.49737 6.53301 4.48943C6.54411 4.48887 6.55487 4.48862 6.56563 4.48862C6.92517 4.48862 7.22196 4.74648 7.24152 5.07583L7.24295 5.09098L7.2445 5.10686C7.24775 5.1328 7.25418 5.1778 7.26596 5.23495C7.28748 5.34294 7.33087 5.51168 7.4152 5.70555C7.44911 5.78276 7.48769 5.85636 7.52844 5.92829C7.55923 5.78927 7.58901 5.65572 7.61568 5.53073C7.80987 4.91305 7.55578 4.17379 6.9781 4.04179C6.40028 3.90967 5.56269 4.19744 5.22184 5.10612C4.76132 6.35811 4.66229 7.17302 4.83732 8.55162C5.02366 9.43045 5.62374 9.6157 6.18755 9.64269Z" fill="white"/>
<path d="M7.13289 5.25802C7.12044 5.19696 7.1136 5.14905 7.10995 5.11901C7.10826 5.10387 7.10717 5.09319 7.10656 5.08742C7.10643 5.0845 7.10629 5.08289 7.10629 5.08264C7.09018 4.81014 6.83718 4.6005 6.53958 4.61347C6.24082 4.62669 6.01042 4.85948 6.02491 5.13328H6.02477C6.02951 5.1815 6.06599 5.90183 6.59704 6.6872C6.8627 7.07836 7.25845 7.48274 7.82659 7.79857C8.39411 8.11501 9.12781 8.33892 10.0474 8.39738C10.0603 8.39819 10.0732 8.39862 10.0859 8.39862C10.3677 8.39862 10.6054 8.19848 10.6254 7.93696C10.6462 7.66328 10.4214 7.42596 10.1231 7.40685C9.35062 7.3567 8.79832 7.17716 8.38856 6.94971C7.77718 6.60857 7.46265 6.14517 7.28978 5.75159C7.2045 5.55585 7.15753 5.38034 7.13289 5.25802Z" fill="white"/>
<path d="M9.57296 2.69278C9.68177 1.92533 9.0947 1.23531 8.2617 1.15159C7.4287 1.06786 6.66521 1.62214 6.5564 2.3896C6.44759 3.15706 7.03465 3.84708 7.86765 3.9308C8.70065 4.01452 9.46414 3.46024 9.57296 2.69278Z" fill="white"/>
</svg>
