<svg width="14" height="14" viewBox="0 0 14 14" fill="none" xmlns="http://www.w3.org/2000/svg">
<path d="M5.06681 8.59334C5.07414 8.59334 5.08151 8.59315 5.08888 8.59281C5.29474 8.58301 5.45175 8.44101 5.43971 8.2754C5.42138 8.02574 5.41312 7.79834 5.41321 7.59144C5.41167 6.68248 5.57633 6.17179 5.73815 5.90528V11.5359C5.73815 11.7923 5.9965 12 6.315 12C6.63359 12 6.89195 11.7923 6.89195 11.5359V8.14743H7.10822V11.5359C7.10822 11.7923 7.36657 12 7.68507 12C8.00366 12 8.26202 11.7923 8.26202 11.5359V5.90697C8.28969 5.95261 8.31754 6.00498 8.34507 6.06605C8.47656 6.35929 8.58728 6.8404 8.58686 7.59151C8.58686 7.79842 8.57856 8.02585 8.56045 8.27551C8.54841 8.44105 8.70552 8.58313 8.91138 8.59277C8.91875 8.59311 8.92608 8.5933 8.9334 8.5933C9.12961 8.5933 9.29422 8.47014 9.30575 8.31046C9.32455 8.05025 9.33332 7.81129 9.33332 7.59151C9.3315 6.4585 9.10651 5.83148 8.79982 5.45442C8.64654 5.2673 8.46727 5.14722 8.30154 5.08078C8.14201 5.01607 8.0018 5.00146 7.91772 5.00064C7.91226 5.00045 7.90689 5 7.90134 5H6.09873C6.09281 5 6.08702 5.00049 6.08119 5.00071C5.99697 5.00158 5.85732 5.01629 5.6984 5.08078C5.44741 5.18089 5.17683 5.39992 4.98754 5.78798C4.7959 6.17757 4.66731 6.74085 4.66666 7.59144C4.66666 7.81122 4.67543 8.05029 4.69442 8.31053C4.70604 8.47014 4.87061 8.5933 5.06681 8.59334Z" fill="white"/>
<path d="M7 4C7.55228 4 8 3.55228 8 3C8 2.44772 7.55228 2 7 2C6.44772 2 6 2.44772 6 3C6 3.55228 6.44772 4 7 4Z" fill="white"/>
</svg>
