<svg width="14" height="14" viewBox="0 0 14 14" fill="none" xmlns="http://www.w3.org/2000/svg">
<path d="M5.75121 4.82874C6.37769 4.5155 6.62123 3.78407 6.30719 3.15839C5.99395 2.53192 5.26253 2.28837 4.63685 2.60241C4.01037 2.91565 3.76683 3.64708 4.08087 4.27276C4.39411 4.89924 5.12553 5.14278 5.75121 4.82874Z" fill="white"/>
<path d="M6.9314 4.82558C7.32605 4.59212 7.71871 4.35556 8.10936 4.11437C8.27202 3.54695 8.43001 2.97722 8.58267 2.40594C8.66534 2.09749 8.95466 1.92897 9.22131 2.02869C9.48797 2.12841 9.63796 2.4616 9.54863 2.77004C9.36397 3.40858 9.18598 4.04944 9.01332 4.69261C8.99066 4.77687 8.95266 4.85109 8.90399 4.91216C8.86266 4.96936 8.81066 5.01729 8.74933 5.05362C8.38801 5.26544 8.02869 5.48112 7.67071 5.69912C7.93136 6.30287 8.19202 6.90739 8.45268 7.51114C8.70267 7.3488 8.95132 7.18414 9.19931 7.01871C9.22065 7.00402 9.24265 6.99011 9.26398 6.97542C9.30198 6.94991 9.34131 6.93136 9.38131 6.91899C9.5193 6.87879 9.67063 6.90662 9.79462 7.00944C9.82062 7.03108 9.84662 7.05273 9.87195 7.07437C10.5046 7.60004 11.1419 8.11953 11.7839 8.63129C12.0145 8.81605 12.0685 9.18556 11.9072 9.45149C11.7459 9.71742 11.4286 9.78236 11.1999 9.59451C9.97728 8.59186 9.87662 8.50606 9.47597 8.18524C9.08732 8.43416 8.84266 8.59032 8.664 8.7055C8.658 8.73488 8.65134 8.76425 8.644 8.79286C8.95732 8.84774 9.27064 8.90031 9.58463 8.95133C9.67596 8.96602 9.75796 9.00854 9.82462 9.07115C9.83529 9.08043 9.84529 9.09048 9.85529 9.10053C10.4566 9.73056 11.0632 10.3544 11.6752 10.9705C11.8865 11.1839 11.9045 11.5588 11.7185 11.8016C11.5326 12.0443 11.2106 12.0683 11.0012 11.8518C9.75729 10.5662 9.78396 10.5894 9.28798 10.0885C7.94403 9.84111 7.95603 9.84343 7.38339 9.75066C7.36539 9.74757 7.34605 9.74448 7.32672 9.74139C7.32672 9.74139 7.32672 9.74139 7.32605 9.74139C7.24872 9.7267 7.17339 9.70351 7.10006 9.67104C6.83207 9.55431 6.60008 9.32471 6.46209 9.00467C6.16343 8.31202 5.86478 7.62014 5.56546 6.92749C5.16681 7.12539 4.76949 7.32793 4.3735 7.53356C4.30484 7.56912 4.23284 7.58536 4.16218 7.58304C4.10152 7.58458 4.04018 7.57376 3.97952 7.54748C3.43354 7.31479 2.88623 7.08906 2.33625 6.87106C2.07293 6.7667 1.9356 6.42578 2.0296 6.11966C2.12359 5.81353 2.41491 5.64964 2.67824 5.76174C3.16489 5.96891 3.65353 6.17068 4.14351 6.36703C4.56283 6.16063 4.98081 5.94959 5.39746 5.73468L6.9314 4.82558Z" fill="white"/>
</svg>
