<svg width="14" height="14" viewBox="0 0 14 14" fill="none" xmlns="http://www.w3.org/2000/svg">
<path d="M10.6131 6.64705L9.14261 6.18552C9.14261 6.18552 8.32888 4.39366 8.30033 4.33936C8.10046 4 7.72928 3.76923 7.301 3.76923C7.12969 3.76923 6.95837 3.80995 6.81561 3.87782L4.81696 4.62443C4.6742 4.67873 4.55999 4.78733 4.50289 4.92307L3.78908 6.55203C3.67487 6.82352 3.80336 7.14932 4.10316 7.25791C4.17454 7.28506 4.24592 7.29864 4.3173 7.29864C4.54571 7.29864 4.75986 7.17647 4.84551 6.95927L5.43083 5.54751L6.03043 5.33031L5.04538 9.90497L3.13238 12.1176C2.93252 12.3484 2.96107 12.6878 3.20376 12.8778C3.3037 12.9593 3.43218 13 3.56066 13C3.73198 13 3.88901 12.9321 4.00322 12.7964L6.00188 10.4887C6.05898 10.4208 6.10181 10.3394 6.11608 10.2579L6.45871 8.68325L8.00053 9.74208V12.457C8.00053 12.7557 8.2575 13 8.57157 13C8.88564 13 9.14261 12.7557 9.14261 12.457V9.47058C9.14261 9.29411 9.05696 9.13122 8.9142 9.03619L7.52942 8.07239L7.91487 6.23981L8.18612 6.8371C8.2575 6.97285 8.37171 7.08144 8.52874 7.13574L10.2419 7.67873C10.299 7.6923 10.3561 7.70588 10.4275 7.70588C10.6702 7.70588 10.8843 7.55656 10.97 7.33936C11.0699 7.05429 10.9128 6.74208 10.6131 6.64705Z" fill="white"/>
<path d="M8 3C8.55228 3 9 2.55228 9 2C9 1.44772 8.55228 1 8 1C7.44772 1 7 1.44772 7 2C7 2.55228 7.44772 3 8 3Z" fill="white"/>
</svg>
