<svg width="32" height="32" viewBox="0 0 32 32" fill="none" xmlns="http://www.w3.org/2000/svg">
<path d="M27 7H5C3.34315 7 2 8.34315 2 10V22C2 23.6569 3.34315 25 5 25H27C28.6569 25 30 23.6569 30 22V10C30 8.34315 28.6569 7 27 7Z" fill="white"/>
<path opacity="0.15" d="M27 7H5C3.343 7 2 8.343 2 10V22C2 23.657 3.343 25 5 25H27C28.657 25 30 23.657 30 22V10C30 8.343 28.657 7 27 7ZM29 22C29 23.103 28.103 24 27 24H5C3.897 24 3 23.103 3 22V10C3 8.897 3.897 8 5 8H27C28.103 8 29 8.897 29 10V22Z" fill="black"/>
<path opacity="0.2" d="M27 8H5C3.895 8 3 8.895 3 10V11C3 9.895 3.895 9 5 9H27C28.105 9 29 9.895 29 11V10C29 8.895 28.105 8 27 8Z" fill="white"/>
<path d="M20.044 10H11.957C10.904 10 10.051 10.86 10.051 11.922V20.077C10.051 21.138 10.904 21.999 11.957 21.999H20.044C21.097 21.999 21.949 21.138 21.949 20.077V11.922C21.949 10.86 21.097 10 20.044 10Z" fill="#1677FF"/>
<path d="M19.847 17.535C19.371 17.374 18.732 17.128 18.02 16.869C18.447 16.12 18.789 15.267 19.013 14.339H16.668V13.487H19.541V13.011H16.668V11.591H15.495C15.289 11.591 15.289 11.796 15.289 11.796V13.011H12.383V13.487H15.289V14.339H12.89V14.814H17.543C17.373 15.406 17.144 15.961 16.873 16.466C15.363 15.964 13.752 15.556 12.74 15.807C12.093 15.968 11.676 16.255 11.431 16.556C10.307 17.935 11.113 20.03 13.487 20.03C14.891 20.03 16.243 19.241 17.291 17.94C18.854 18.698 21.949 19.999 21.949 19.999V18.145C21.949 18.145 21.56 18.114 19.847 17.535ZM13.266 19.228C11.415 19.228 10.868 17.758 11.782 16.953C12.087 16.681 12.645 16.548 12.943 16.519C14.043 16.409 15.06 16.832 16.262 17.424C15.418 18.535 14.342 19.228 13.266 19.228Z" fill="white"/>
</svg>
