<svg width="32" height="32" viewBox="0 0 32 32" fill="none" xmlns="http://www.w3.org/2000/svg">
<path d="M27 7H5C3.34315 7 2 8.34315 2 10V22C2 23.6569 3.34315 25 5 25H27C28.6569 25 30 23.6569 30 22V10C30 8.34315 28.6569 7 27 7Z" fill="#0F70CE"/>
<path d="M27.026 9L26.307 10.965L25.599 9H21.714V11.582L20.578 9H17.459L14.2 16.409H16.837V23H24.934L26.25 21.542L27.572 23H29.816C29.928 22.686 30 22.353 30 22V20.959L28.42 19.261L30 17.606V10C30 9.647 29.928 9.314 29.816 9H27.026Z" fill="white"/>
<path d="M17.679 14.433H20.289L20.791 15.581H22.571L20.04 9.827H18.001L15.47 15.581H17.204L17.681 14.433H17.679ZM18.986 11.298L19.761 13.142H18.226L18.986 11.298Z" fill="#0F70CE"/>
<path d="M22.542 9.827H25.018L26.302 13.39L27.604 9.827H30V15.581H28.45V11.603L26.977 15.581H25.608L24.124 11.631V15.581H22.542V9.827Z" fill="#0F70CE"/>
<path d="M19.24 20.82V19.944H22.484V18.624H19.24V17.748H22.565V16.409H17.664V22.173H22.565V20.82H19.24Z" fill="#0F70CE"/>
<path d="M24.638 16.409L26.271 18.234L27.968 16.409H30L27.283 19.254L30 22.173H27.939L26.249 20.309L24.567 22.173H22.537L25.272 19.275L22.537 16.409H24.638Z" fill="#0F70CE"/>
<path opacity="0.15" d="M27 7H5C3.343 7 2 8.343 2 10V22C2 23.657 3.343 25 5 25H27C28.657 25 30 23.657 30 22V10C30 8.343 28.657 7 27 7ZM29 22C29 23.103 28.103 24 27 24H5C3.897 24 3 23.103 3 22V10C3 8.897 3.897 8 5 8H27C28.103 8 29 8.897 29 10V22Z" fill="black"/>
<path opacity="0.2" d="M27 8H5C3.895 8 3 8.895 3 10V11C3 9.895 3.895 9 5 9H27C28.105 9 29 9.895 29 11V10C29 8.895 28.105 8 27 8Z" fill="white"/>
</svg>
