<svg width="32" height="32" viewBox="0 0 32 32" fill="none" xmlns="http://www.w3.org/2000/svg">
<path d="M27 7H5C3.34315 7 2 8.34315 2 10V22C2 23.6569 3.34315 25 5 25H27C28.6569 25 30 23.6569 30 22V10C30 8.34315 28.6569 7 27 7Z" fill="#E6E6E6"/>
<path opacity="0.15" d="M27 7H5C3.343 7 2 8.343 2 10V22C2 23.657 3.343 25 5 25H27C28.657 25 30 23.657 30 22V10C30 8.343 28.657 7 27 7ZM29 22C29 23.103 28.103 24 27 24H5C3.897 24 3 23.103 3 22V10C3 8.897 3.897 8 5 8H27C28.103 8 29 8.897 29 10V22Z" fill="black"/>
<path opacity="0.2" d="M27 8H5C3.895 8 3 8.895 3 10V11C3 9.895 3.895 9 5 9H27C28.105 9 29 9.895 29 11V10C29 8.895 28.105 8 27 8Z" fill="white"/>
<path d="M18.013 11.423C18.427 10.905 18.708 10.21 18.634 9.5C18.028 9.53 17.289 9.9 16.861 10.418C16.477 10.862 16.137 11.586 16.225 12.266C16.905 12.325 17.585 11.926 18.013 11.423Z" fill="#1A1A1A"/>
<path d="M18.626 12.399C17.638 12.34 16.798 12.959 16.327 12.959C15.856 12.959 15.133 12.428 14.351 12.442C13.334 12.457 12.391 13.032 11.875 13.946C10.814 15.775 11.595 18.489 12.627 19.978C13.128 20.715 13.732 21.527 14.528 21.498C15.28 21.468 15.575 21.011 16.489 21.011C17.403 21.011 17.668 21.498 18.464 21.483C19.29 21.468 19.806 20.745 20.307 20.008C20.882 19.168 21.117 18.356 21.132 18.312C21.117 18.297 19.54 17.692 19.526 15.878C19.511 14.359 20.764 13.637 20.823 13.592C20.115 12.546 19.01 12.428 18.627 12.398" fill="#1A1A1A"/>
</svg>
