<svg width="32" height="32" viewBox="0 0 32 32" fill="none" xmlns="http://www.w3.org/2000/svg">
<path d="M27 7H5C3.34315 7 2 8.34315 2 10V22C2 23.6569 3.34315 25 5 25H27C28.6569 25 30 23.6569 30 22V10C30 8.34315 28.6569 7 27 7Z" fill="white"/>
<path opacity="0.15" d="M27 7H5C3.343 7 2 8.343 2 10V22C2 23.657 3.343 25 5 25H27C28.657 25 30 23.657 30 22V10C30 8.343 28.657 7 27 7ZM29 22C29 23.103 28.103 24 27 24H5C3.897 24 3 23.103 3 22V10C3 8.897 3.897 8 5 8H27C28.103 8 29 8.897 29 10V22Z" fill="black"/>
<path opacity="0.2" d="M27 8H5C3.895 8 3 8.895 3 10V11C3 9.895 3.895 9 5 9H27C28.105 9 29 9.895 29 11V10C29 8.895 28.105 8 27 8Z" fill="white"/>
<path d="M14.897 15.881V18.67H13.997V11.772H16.336C16.906 11.772 17.446 11.982 17.866 12.372C18.286 12.732 18.496 13.272 18.496 13.842C18.496 14.412 18.286 14.922 17.866 15.312C17.446 15.702 16.936 15.912 16.336 15.912L14.896 15.882L14.897 15.881ZM14.897 12.612V15.011H16.397C16.727 15.011 17.057 14.891 17.267 14.651C17.747 14.201 17.747 13.451 17.297 13.002L17.267 12.972C17.027 12.732 16.727 12.582 16.397 12.612H14.897Z" fill="#5F6368"/>
<path d="M20.565 13.811C21.225 13.811 21.735 13.991 22.125 14.351C22.515 14.711 22.695 15.191 22.695 15.791V18.67H21.855V18.01H21.825C21.465 18.55 20.955 18.82 20.355 18.82C19.845 18.82 19.395 18.67 19.035 18.37C18.705 18.07 18.495 17.65 18.495 17.2C18.495 16.72 18.675 16.33 19.035 16.03C19.395 15.73 19.905 15.61 20.505 15.61C21.045 15.61 21.465 15.7 21.795 15.91V15.7C21.795 15.4 21.675 15.1 21.435 14.92C21.195 14.71 20.895 14.59 20.565 14.59C20.055 14.59 19.665 14.8 19.395 15.22L18.615 14.74C19.095 14.11 19.725 13.81 20.564 13.81L20.565 13.811ZM19.425 17.23C19.425 17.47 19.545 17.68 19.725 17.8C19.935 17.95 20.175 18.04 20.415 18.04C20.775 18.04 21.135 17.89 21.405 17.62C21.705 17.35 21.855 17.02 21.855 16.66C21.585 16.45 21.195 16.33 20.685 16.33C20.325 16.33 20.025 16.42 19.785 16.6C19.545 16.75 19.425 16.96 19.425 17.23Z" fill="#5F6368"/>
<path d="M27.553 13.961L24.584 20.769H23.684L24.794 18.4L22.845 13.991H23.805L25.215 17.38H25.245L26.625 13.991H27.555V13.961H27.553Z" fill="#5F6368"/>
<path d="M12.232 15.281C12.232 15.011 12.202 14.741 12.172 14.471H8.42297V16.001H10.552C10.462 16.481 10.192 16.931 9.77197 17.201V18.191H11.062C11.812 17.501 12.232 16.481 12.232 15.281Z" fill="#4285F4"/>
<path d="M8.42397 19.15C9.50397 19.15 10.403 18.79 11.063 18.19L9.77297 17.2C9.41297 17.44 8.96297 17.59 8.42297 17.59C7.40297 17.59 6.50397 16.9 6.20397 15.941H4.88397V16.961C5.57397 18.311 6.92397 19.15 8.42397 19.15Z" fill="#34A853"/>
<path d="M6.20398 15.941C6.02398 15.461 6.02398 14.921 6.20398 14.411V13.391H4.88398C4.31398 14.501 4.31398 15.82 4.88398 16.96L6.20398 15.94V15.941Z" fill="#FBBC04"/>
<path d="M8.42402 12.792C8.99402 12.792 9.53402 13.002 9.95402 13.392L11.094 12.252C10.374 11.592 9.41502 11.202 8.45502 11.232C6.95502 11.232 5.57602 12.072 4.91602 13.421L6.23602 14.441C6.50602 13.481 7.40602 12.792 8.42502 12.792H8.42402Z" fill="#EA4335"/>
</svg>
