<svg width="32" height="32" viewBox="0 0 32 32" fill="none" xmlns="http://www.w3.org/2000/svg">
<path d="M27 7H5C3.34315 7 2 8.34315 2 10V22C2 23.6569 3.34315 25 5 25H27C28.6569 25 30 23.6569 30 22V10C30 8.34315 28.6569 7 27 7Z" fill="white"/>
<path opacity="0.15" d="M27 7H5C3.343 7 2 8.343 2 10V22C2 23.657 3.343 25 5 25H27C28.657 25 30 23.657 30 22V10C30 8.343 28.657 7 27 7ZM29 22C29 23.103 28.103 24 27 24H5C3.897 24 3 23.103 3 22V10C3 8.897 3.897 8 5 8H27C28.103 8 29 8.897 29 10V22Z" fill="black"/>
<path opacity="0.2" d="M27 8H5C3.895 8 3 8.895 3 10V11C3 9.895 3.895 9 5 9H27C28.105 9 29 9.895 29 11V10C29 8.895 28.105 8 27 8Z" fill="white"/>
<path d="M20.724 17.5H22.07C22.108 17.5 22.198 17.487 22.237 17.487C22.493 17.436 22.711 17.205 22.711 16.884C22.711 16.576 22.493 16.346 22.237 16.281C22.199 16.268 22.122 16.268 22.07 16.268H20.724V17.5Z" fill="url(#paint0_linear_3_91)"/>
<path d="M21.917 9C20.635 9 19.584 10.038 19.584 11.333V13.756H22.879C22.956 13.756 23.046 13.756 23.11 13.769C23.854 13.807 24.405 14.192 24.405 14.859C24.405 15.385 24.033 15.833 23.341 15.923V15.949C24.097 16 24.674 16.423 24.674 17.077C24.674 17.782 24.033 18.244 23.187 18.244H19.572V22.988H22.995C24.277 22.988 25.328 21.95 25.328 20.655V9.001H21.918L21.917 9Z" fill="url(#paint1_linear_3_91)"/>
<path d="M22.545 15.013C22.545 14.705 22.327 14.5 22.071 14.462C22.045 14.462 21.981 14.449 21.943 14.449H20.725V15.577H21.943C21.981 15.577 22.058 15.577 22.071 15.564C22.327 15.526 22.545 15.32 22.545 15.013Z" fill="url(#paint2_linear_3_91)"/>
<path d="M9.01901 8.99999C7.73701 8.99999 6.68601 10.038 6.68601 11.333V17.089C7.34001 17.41 8.01901 17.615 8.69901 17.615C9.50701 17.615 9.94301 17.128 9.94301 16.461V13.743H11.943V16.448C11.943 17.499 11.289 18.358 9.07101 18.358C7.72501 18.358 6.67401 18.063 6.67401 18.063V22.973H10.097C11.379 22.973 12.43 21.935 12.43 20.64V8.99899H9.02001L9.01901 8.99999Z" fill="url(#paint3_linear_3_91)"/>
<path d="M15.468 8.99999C14.186 8.99999 13.135 10.038 13.135 11.333V14.384C13.725 13.884 14.75 13.563 16.404 13.64C17.289 13.678 18.237 13.922 18.237 13.922V14.909C17.763 14.665 17.199 14.447 16.468 14.396C15.212 14.306 14.455 14.922 14.455 15.999C14.455 17.089 15.211 17.704 16.468 17.602C17.199 17.551 17.763 17.32 18.237 17.089V18.076C18.237 18.076 17.301 18.32 16.404 18.358C14.75 18.435 13.725 18.114 13.135 17.614V22.999H16.558C17.84 22.999 18.891 21.961 18.891 20.666V8.99899H15.468V8.99999Z" fill="url(#paint4_linear_3_91)"/>
<defs>
<linearGradient id="paint0_linear_3_91" x1="19.5845" y1="16.9243" x2="25.3463" y2="16.9243" gradientUnits="userSpaceOnUse">
<stop stop-color="#007940"/>
<stop offset="0.228" stop-color="#00873F"/>
<stop offset="0.743" stop-color="#40A737"/>
<stop offset="1" stop-color="#5CB531"/>
</linearGradient>
<linearGradient id="paint1_linear_3_91" x1="19.5845" y1="16.033" x2="25.3401" y2="16.033" gradientUnits="userSpaceOnUse">
<stop stop-color="#007940"/>
<stop offset="0.228" stop-color="#00873F"/>
<stop offset="0.743" stop-color="#40A737"/>
<stop offset="1" stop-color="#5CB531"/>
</linearGradient>
<linearGradient id="paint2_linear_3_91" x1="19.5845" y1="15.0536" x2="25.3462" y2="15.0536" gradientUnits="userSpaceOnUse">
<stop stop-color="#007940"/>
<stop offset="0.228" stop-color="#00873F"/>
<stop offset="0.743" stop-color="#40A737"/>
<stop offset="1" stop-color="#5CB531"/>
</linearGradient>
<linearGradient id="paint3_linear_3_91" x1="6.68809" y1="16.0269" x2="12.538" y2="16.0269" gradientUnits="userSpaceOnUse">
<stop stop-color="#1F286F"/>
<stop offset="0.475" stop-color="#004E94"/>
<stop offset="0.826" stop-color="#0066B1"/>
<stop offset="1" stop-color="#006FBC"/>
</linearGradient>
<linearGradient id="paint4_linear_3_91" x1="13.1056" y1="16.0392" x2="18.7874" y2="16.0392" gradientUnits="userSpaceOnUse">
<stop stop-color="#6C2C2F"/>
<stop offset="0.174" stop-color="#882730"/>
<stop offset="0.573" stop-color="#BE1833"/>
<stop offset="0.858" stop-color="#DC0436"/>
<stop offset="1" stop-color="#E60039"/>
</linearGradient>
</defs>
</svg>
