<svg width="32" height="32" viewBox="0 0 32 32" fill="none" xmlns="http://www.w3.org/2000/svg">
<path d="M27 7H5C3.34315 7 2 8.34315 2 10V22C2 23.6569 3.34315 25 5 25H27C28.6569 25 30 23.6569 30 22V10C30 8.34315 28.6569 7 27 7Z" fill="white"/>
<path opacity="0.15" d="M27 7H5C3.343 7 2 8.343 2 10V22C2 23.657 3.343 25 5 25H27C28.657 25 30 23.657 30 22V10C30 8.343 28.657 7 27 7ZM29 22C29 23.103 28.103 24 27 24H5C3.897 24 3 23.103 3 22V10C3 8.897 3.897 8 5 8H27C28.103 8 29 8.897 29 10V22Z" fill="black"/>
<path opacity="0.2" d="M27 8H5C3.895 8 3 8.895 3 10V11C3 9.895 3.895 9 5 9H27C28.105 9 29 9.895 29 11V10C29 8.895 28.105 8 27 8Z" fill="white"/>
<path d="M13.597 11.677H18.407V20.32H13.597V11.677Z" fill="#FF5F00"/>
<path d="M13.902 15.999C13.902 14.319 14.681 12.716 15.994 11.677C13.612 9.79899 10.145 10.211 8.26698 12.609C6.40398 14.991 6.81598 18.442 9.21398 20.321C11.214 21.894 14.009 21.894 16.009 20.321C14.68 19.283 13.902 17.679 13.902 15.999Z" fill="#EB001B"/>
<path d="M24.897 15.999C24.897 19.038 22.438 21.496 19.4 21.496C18.163 21.496 16.972 21.084 16.01 20.32C18.392 18.442 18.805 14.991 16.926 12.593C16.651 12.257 16.346 11.936 16.01 11.677C18.392 9.79899 21.859 10.211 23.722 12.609C24.486 13.571 24.898 14.762 24.898 15.999H24.897Z" fill="#F79E1B"/>
</svg>
