<svg width="32" height="32" viewBox="0 0 32 32" fill="none" xmlns="http://www.w3.org/2000/svg">
<path d="M27 7H5C3.34315 7 2 8.34315 2 10V22C2 23.6569 3.34315 25 5 25H27C28.6569 25 30 23.6569 30 22V10C30 8.34315 28.6569 7 27 7Z" fill="white"/>
<path opacity="0.15" d="M27 7H5C3.343 7 2 8.343 2 10V22C2 23.657 3.343 25 5 25H27C28.657 25 30 23.657 30 22V10C30 8.343 28.657 7 27 7ZM29 22C29 23.103 28.103 24 27 24H5C3.897 24 3 23.103 3 22V10C3 8.897 3.897 8 5 8H27C28.103 8 29 8.897 29 10V22Z" fill="black"/>
<path opacity="0.2" d="M27 8H5C3.895 8 3 8.895 3 10V11C3 9.895 3.895 9 5 9H27C28.105 9 29 9.895 29 11V10C29 8.895 28.105 8 27 8Z" fill="white"/>
<path d="M5.03001 12.792C4.96101 12.792 4.90201 12.842 4.89101 12.911L4.09001 17.993C4.07901 18.064 4.12701 18.131 4.19801 18.142C4.20501 18.143 4.21101 18.144 4.21801 18.144H5.16801C5.23701 18.144 5.29601 18.094 5.30701 18.025L5.54201 16.533C5.55301 16.465 5.61201 16.414 5.68101 16.414H6.54501C7.55501 16.414 8.41101 15.677 8.56801 14.679C8.72601 13.672 7.93901 12.795 6.82501 12.793H5.02901L5.03001 12.792ZM5.95401 13.926H6.64501C7.21401 13.926 7.39901 14.262 7.34101 14.633C7.28201 15.005 6.99501 15.279 6.44401 15.279H5.74001L5.95401 13.926ZM10.502 14.271C10.262 14.271 9.98601 14.321 9.67601 14.45C8.96501 14.746 8.62301 15.359 8.47801 15.805C8.47801 15.805 8.01601 17.167 9.05901 17.916C9.05901 17.916 10.026 18.637 11.115 17.872L11.096 17.991C11.085 18.062 11.133 18.129 11.204 18.14C11.211 18.141 11.217 18.142 11.224 18.142H12.126C12.195 18.142 12.254 18.092 12.265 18.023L12.814 14.543C12.825 14.472 12.777 14.405 12.706 14.394C12.699 14.393 12.693 14.392 12.686 14.392H11.784C11.715 14.392 11.656 14.442 11.645 14.511L11.616 14.698C11.616 14.698 11.222 14.269 10.502 14.271ZM10.531 15.37C10.635 15.37 10.729 15.384 10.814 15.412C11.203 15.537 11.424 15.911 11.36 16.316C11.281 16.815 10.872 17.183 10.347 17.183C10.244 17.183 10.149 17.169 10.064 17.141C9.67501 17.016 9.45301 16.642 9.51701 16.237C9.59601 15.738 10.006 15.37 10.531 15.37Z" fill="#003087"/>
<path d="M18.022 12.792C17.953 12.792 17.894 12.842 17.883 12.911L17.082 17.993C17.071 18.064 17.119 18.131 17.19 18.142C17.197 18.143 17.203 18.144 17.21 18.144H18.16C18.229 18.144 18.288 18.094 18.299 18.025L18.534 16.533C18.545 16.465 18.604 16.414 18.673 16.414H19.537C20.547 16.414 21.403 15.677 21.56 14.679C21.718 13.672 20.932 12.795 19.817 12.793H18.021L18.022 12.792ZM18.946 13.926H19.637C20.206 13.926 20.391 14.262 20.333 14.633C20.274 15.005 19.987 15.279 19.436 15.279H18.732L18.946 13.926ZM23.494 14.271C23.254 14.271 22.978 14.321 22.668 14.45C21.957 14.746 21.615 15.359 21.47 15.805C21.47 15.805 21.009 17.167 22.051 17.916C22.051 17.916 23.018 18.637 24.107 17.872L24.088 17.991C24.077 18.062 24.125 18.129 24.196 18.14C24.203 18.141 24.209 18.142 24.216 18.142H25.118C25.187 18.142 25.246 18.092 25.257 18.023L25.806 14.543C25.817 14.472 25.769 14.405 25.698 14.394C25.691 14.393 25.684 14.392 25.678 14.392H24.776C24.707 14.392 24.648 14.442 24.637 14.511L24.608 14.698C24.608 14.698 24.214 14.269 23.494 14.271ZM23.523 15.37C23.627 15.37 23.721 15.384 23.806 15.412C24.195 15.537 24.416 15.911 24.352 16.316C24.273 16.815 23.864 17.183 23.339 17.183C23.236 17.183 23.141 17.169 23.056 17.141C22.667 17.016 22.445 16.642 22.509 16.237C22.588 15.738 22.998 15.37 23.523 15.37Z" fill="#0070E0"/>
<path d="M13.243 14.394C13.171 14.394 13.121 14.464 13.142 14.532L14.131 17.601L13.237 19.047C13.194 19.117 13.244 19.208 13.327 19.208H14.384C14.445 19.208 14.502 19.176 14.534 19.123L17.296 14.554C17.338 14.484 17.288 14.394 17.206 14.394H16.149C16.087 14.394 16.029 14.427 15.998 14.48L14.911 16.316L14.359 14.494C14.341 14.435 14.286 14.394 14.224 14.394H13.243Z" fill="#003087"/>
<path d="M26.831 12.792C26.762 12.792 26.703 12.842 26.692 12.911L25.89 17.993C25.879 18.064 25.927 18.131 25.998 18.142C26.005 18.143 26.012 18.144 26.018 18.144H26.968C27.037 18.144 27.096 18.094 27.107 18.025L27.908 12.943C27.919 12.872 27.871 12.805 27.8 12.794C27.793 12.793 27.787 12.792 27.78 12.792H26.831Z" fill="#0070E0"/>
</svg>
