<svg width="32" height="32" viewBox="0 0 32 32" fill="none" xmlns="http://www.w3.org/2000/svg">
<path d="M27 7H5C3.34315 7 2 8.34315 2 10V22C2 23.6569 3.34315 25 5 25H27C28.6569 25 30 23.6569 30 22V10C30 8.34315 28.6569 7 27 7Z" fill="white"/>
<path opacity="0.15" d="M27 7H5C3.343 7 2 8.343 2 10V22C2 23.657 3.343 25 5 25H27C28.657 25 30 23.657 30 22V10C30 8.343 28.657 7 27 7ZM29 22C29 23.103 28.103 24 27 24H5C3.897 24 3 23.103 3 22V10C3 8.897 3.897 8 5 8H27C28.103 8 29 8.897 29 10V22Z" fill="black"/>
<path opacity="0.2" d="M27 8H5C3.895 8 3 8.895 3 10V11C3 9.895 3.895 9 5 9H27C28.105 9 29 9.895 29 11V10C29 8.895 28.105 8 27 8Z" fill="white"/>
<path d="M13.392 12.624L10.554 19.394H8.70299L7.30599 13.991C7.22099 13.659 7.14799 13.537 6.88999 13.396C6.46899 13.167 5.77299 12.953 5.16199 12.82L5.20299 12.624H8.18299C8.56299 12.624 8.90399 12.877 8.99099 13.314L9.72899 17.232L11.551 12.624H13.392Z" fill="#1434CB"/>
<path d="M20.646 17.183C20.654 15.396 18.176 15.297 18.193 14.499C18.198 14.256 18.43 13.998 18.936 13.932C19.187 13.9 19.879 13.874 20.663 14.235L20.97 12.799C20.549 12.647 20.006 12.5 19.332 12.5C17.6 12.5 16.382 13.42 16.373 14.738C16.362 15.713 17.243 16.256 17.906 16.581C18.589 16.913 18.818 17.126 18.815 17.422C18.81 17.876 18.27 18.077 17.768 18.085C16.887 18.099 16.376 17.847 15.969 17.657L15.651 19.141C16.061 19.329 16.816 19.492 17.598 19.5C19.439 19.5 20.642 18.591 20.648 17.183" fill="#1434CB"/>
<path d="M25.423 12.624H23.929C23.592 12.624 23.309 12.819 23.183 13.12L20.555 19.394H22.394L22.759 18.383H25.006L25.218 19.394H26.838L25.423 12.624ZM23.263 16.996L24.185 14.454L24.715 16.996H23.263Z" fill="#1434CB"/>
<path d="M15.894 12.624L14.446 19.394H12.695L14.143 12.624H15.894Z" fill="#1434CB"/>
</svg>
