<svg width="42" height="42" viewBox="0 0 42 42" fill="none" xmlns="http://www.w3.org/2000/svg">
<rect width="42" height="42" rx="21" fill="white"/>
<g clipPath="url(#clip0_14073_17952)">
<path d="M28.7852 23.224C29.0455 22.9334 29.2041 22.5498 29.2041 22.1302C29.2041 21.2257 28.468 20.4896 27.5635 20.4896H24.3792C24.6946 19.5326 24.8291 18.2627 24.8291 17.7184V17.1719C24.8291 15.9658 23.8476 14.9844 22.6416 14.9844H22.0947C21.8439 14.9844 21.6251 15.155 21.5643 15.3985L21.2664 16.5904C20.8489 18.2594 19.5237 20.1009 18.1521 20.4356C17.9119 19.8275 17.3187 19.3958 16.626 19.3958H13.3447C13.0429 19.3958 12.7979 19.6408 12.7979 19.9427V29.7865C12.7979 30.0883 13.0429 30.3333 13.3447 30.3333H16.626C17.2782 30.3333 17.8426 29.9509 18.1069 29.3982L19.986 30.0245C20.6003 30.2294 21.2405 30.3333 21.8884 30.3333H26.4697C27.3743 30.3333 28.1104 29.5972 28.1104 28.6927C28.1104 28.4794 28.0695 28.2753 27.9951 28.0882C28.6908 27.8983 29.2041 27.2606 29.2041 26.5052C29.2041 26.0856 29.0455 25.702 28.7852 25.4115C29.0455 25.1209 29.2041 24.7373 29.2041 24.3177C29.2041 23.8981 29.0455 23.5145 28.7852 23.224ZM17.1729 28.6927C17.1729 28.9942 16.9275 29.2396 16.626 29.2396H13.8916V20.4896H16.626C16.9275 20.4896 17.1729 20.7349 17.1729 21.0365V28.6927ZM26.4697 23.7708H27.5635C27.865 23.7708 28.1104 24.0162 28.1104 24.3177C28.1104 24.6192 27.865 24.8646 27.5635 24.8646H26.4697C26.1679 24.8646 25.9229 25.1096 25.9229 25.4115C25.9229 25.7133 26.1679 25.9583 26.4697 25.9583H27.5635C27.865 25.9583 28.1104 26.2037 28.1104 26.5052C28.1104 26.8067 27.865 27.0521 27.5635 27.0521H26.4697C26.1679 27.0521 25.9229 27.2971 25.9229 27.599C25.9229 27.9008 26.1679 28.1458 26.4697 28.1458C26.7712 28.1458 27.0166 28.3912 27.0166 28.6927C27.0166 28.9942 26.7712 29.2396 26.4697 29.2396H21.8884C21.3583 29.2396 20.8344 29.1546 20.3316 28.9869L18.2666 28.2986V21.5316C19.1245 21.3686 19.9641 20.8254 20.7221 19.9361C21.4622 19.0677 22.0623 17.9164 22.3273 16.8558L22.5217 16.0781H22.6416C23.2446 16.0781 23.7354 16.5689 23.7354 17.1719V17.7184C23.7354 18.4527 23.5057 19.861 23.2118 20.4896H22.0947C21.7929 20.4896 21.5479 20.7346 21.5479 21.0365C21.5479 21.3383 21.7929 21.5833 22.0947 21.5833H27.5635C27.865 21.5833 28.1104 21.8287 28.1104 22.1302C28.1104 22.4317 27.865 22.6771 27.5635 22.6771H26.4697C26.1679 22.6771 25.9229 22.9221 25.9229 23.224C25.9229 23.5258 26.1679 23.7708 26.4697 23.7708Z" fill="#6FCF97"/>
<path d="M15.5322 28.146C15.8343 28.146 16.0791 27.9012 16.0791 27.5991C16.0791 27.2971 15.8343 27.0522 15.5322 27.0522C15.2302 27.0522 14.9854 27.2971 14.9854 27.5991C14.9854 27.9012 15.2302 28.146 15.5322 28.146Z" fill="#6FCF97"/>
<path d="M23.1885 11.6667C22.8865 11.6667 22.6416 11.9116 22.6416 12.2136V13.3438C22.6416 13.6459 22.8865 13.8907 23.1885 13.8907C23.4905 13.8907 23.7354 13.6459 23.7354 13.3438V12.2136C23.7354 11.9116 23.4905 11.6667 23.1885 11.6667Z" fill="#6FCF97"/>
<path d="M20.8681 14.0783L20.0947 13.305C19.8812 13.0914 19.5349 13.0914 19.3213 13.305C19.1077 13.5185 19.1077 13.8648 19.3213 14.0783L20.0947 14.8517C20.3082 15.0653 20.6546 15.0653 20.8681 14.8517C21.0817 14.6382 21.0817 14.2919 20.8681 14.0783Z" fill="#6FCF97"/>
<path d="M27.0556 13.305C26.8421 13.0914 26.4958 13.0914 26.2822 13.305L25.5088 14.0783C25.2952 14.2919 25.2952 14.6381 25.5088 14.8517C25.7223 15.0653 26.0686 15.0653 26.2822 14.8517L27.0556 14.0783C27.2692 13.8648 27.2692 13.5185 27.0556 13.305Z" fill="#6FCF97"/>
</g>
<defs>
<clipPath id="clip0_14073_17952">
<rect width="18.6667" height="18.6667" fill="white" transform="translate(11.667 11.6667)"/>
</clipPath>
</defs>
</svg>
