<svg width="26" height="26" viewBox="0 0 26 26" fill="none" xmlns="http://www.w3.org/2000/svg">
<rect width="26" height="26" rx="13" fill="#FA4B5E"/>
<path d="M21.0815 9.26525C20.8066 8.18239 20.2205 7.24866 19.3868 6.565C18.5746 5.89904 17.5796 5.53223 16.5851 5.53223C15.8226 5.53223 15.0954 5.7384 14.4235 6.14493C13.8929 6.46608 13.4156 6.90284 12.9987 7.44801C12.0504 6.20678 10.7985 5.53223 9.41387 5.53223C8.41978 5.53223 7.42518 5.89904 6.61308 6.565C5.77957 7.24866 5.19367 8.18227 4.91873 9.26512C4.71709 10.0593 4.62527 11.1739 5.02314 12.5145H7.52153L8.42368 10.7023C8.50567 10.5377 8.67305 10.4337 8.85618 10.4337C9.03943 10.4337 9.20681 10.5377 9.28868 10.7023L10.928 13.9949L12.5673 10.7023C12.6492 10.5377 12.8166 10.4337 12.9998 10.4337C13.1829 10.4337 13.3503 10.5377 13.4323 10.7023L14.3345 12.5145H17.7029C17.97 12.5145 18.1864 12.7319 18.1864 13C18.1864 13.2683 17.97 13.4858 17.7029 13.4858H14.0356C13.8525 13.4858 13.6851 13.3818 13.6031 13.2172L12.9998 12.0053L11.3605 15.2979C11.2785 15.4625 11.1111 15.5664 10.928 15.5664C10.7447 15.5664 10.5774 15.4625 10.4955 15.2979L8.85631 12.0053L8.2529 13.2174C8.17091 13.3818 8.00352 13.4858 7.8204 13.4858H5.38536C5.54695 13.8457 5.74443 14.2184 5.98423 14.6023C7.30062 16.7107 9.58276 18.6643 12.7669 20.4087C12.8391 20.4483 12.9188 20.468 12.9985 20.468C13.0783 20.468 13.1579 20.4483 13.23 20.4088C16.4152 18.6642 18.698 16.7107 20.015 14.6024C21.4379 12.3244 21.3804 10.4427 21.0815 9.26525Z" fill="white"/>
</svg>
