<svg width="26" height="26" viewBox="0 0 26 26" fill="none" xmlns="http://www.w3.org/2000/svg">
<rect width="26" height="26" rx="13" fill="#FAB515"/>
<path d="M11.5579 10.9175C11.5364 11.0841 11.5147 11.2463 11.4932 11.4033C11.4888 11.4349 11.4849 11.4652 11.4805 11.4965L12.2232 11.2255V10.6758L11.5579 10.9175Z" fill="white"/>
<path d="M14.4426 10.9178L13.7773 10.6758V11.2255L14.5201 11.4965C14.516 11.4652 14.5118 11.4349 14.5074 11.4033C14.4859 11.2465 14.4639 11.0843 14.4426 10.9178Z" fill="white"/>
<path d="M15.8503 7.81816C15.1819 7.81816 14.8138 8.1863 14.8138 8.85445C14.8138 9.81742 14.9189 10.5876 15.021 11.3325C15.1627 12.3688 15.2853 13.2633 15.0679 14.3468C14.9886 14.7429 14.9086 15.0709 14.8379 15.3603C14.7915 15.5499 14.748 15.7279 14.7096 15.9054C14.6293 16.2849 14.5547 16.7303 14.5547 17.4049C14.5547 18.1109 15.0521 18.7324 15.7374 18.8829C16.3845 19.0264 16.9843 19.2357 17.5211 19.5054C17.675 19.5821 17.8219 19.6611 17.9651 19.7381C18.461 20.0044 18.889 20.2345 19.4061 20.2526C19.618 20.2591 19.8172 20.1832 19.975 20.0345C20.1444 19.8751 20.2444 19.6503 20.2496 19.4176C20.3532 14.2522 18.6864 10.1506 17.0939 8.52569C16.6459 8.06894 16.2042 7.81738 15.8501 7.81738L15.8503 7.81816Z" fill="white"/>
<path d="M12.7412 5.74609H13.2594V11.7048H12.7412V5.74609Z" fill="white"/>
<path d="M10.15 7.81836C9.79587 7.81836 9.35415 8.06992 8.90622 8.52666C7.31396 10.1516 5.64682 14.2529 5.75071 19.4186C5.75589 19.6507 5.85564 19.8759 6.02533 20.0352C6.1831 20.1839 6.38648 20.257 6.59347 20.2533C7.11136 20.2352 7.53935 20.0051 8.03521 19.7388C8.17848 19.6616 8.32537 19.5826 8.48004 19.5056C9.0158 19.2365 9.61581 19.0269 10.2625 18.8836C10.9482 18.7331 11.4456 18.1116 11.4456 17.4056C11.4456 16.731 11.371 16.2856 11.2905 15.9048C11.2524 15.7284 11.2089 15.5506 11.1625 15.3607C11.092 15.0714 11.0117 14.7434 10.9324 14.3472C10.7151 13.2638 10.8376 12.3692 10.9793 11.3329C11.0814 10.5881 11.1866 9.81788 11.1866 8.85491C11.1866 8.1865 10.8184 7.81862 10.15 7.81862V7.81836Z" fill="white"/>
</svg>
