<svg width="32" height="32" viewBox="0 0 32 32" fill="none" xmlns="http://www.w3.org/2000/svg">
<rect width="32" height="32" rx="16" fill="#FF6633"/>
<path d="M20.2508 19.5266C16.8176 19.5266 14.0344 16.7434 14.0344 13.3102C14.0344 11.1648 15.1213 9.27319 16.7744 8.15601C16.5828 8.14208 16.3893 8.13489 16.1942 8.13489C11.834 8.13489 8.29932 11.6695 8.29932 16.0298C8.29932 20.39 11.834 23.9247 16.1942 23.9247C19.6984 23.9247 22.6694 21.6416 23.7008 18.4817C22.7137 19.1416 21.5272 19.5266 20.2508 19.5266Z" fill="white"/>
<path d="M23.5601 14.3862L19.9037 8.32228C19.8112 8.16903 19.6453 8.07532 19.4664 8.07532C19.2874 8.07532 19.1215 8.16901 19.0291 8.32228L15.3727 14.3862C15.2776 14.5439 15.2748 14.7406 15.3653 14.9009C15.4559 15.0613 15.6258 15.1605 15.8099 15.1605H23.1228C23.307 15.1605 23.4768 15.0613 23.5674 14.9009C23.658 14.7406 23.6552 14.5439 23.5601 14.3862ZM19.4691 10.1729C19.6791 10.1729 19.8568 10.2913 19.8568 10.5013C19.8568 11.1421 19.7814 12.0628 19.7814 12.7036C19.7814 12.8705 19.5983 12.9405 19.4691 12.9405C19.2968 12.9405 19.1514 12.8705 19.1514 12.7036C19.1514 12.0628 19.0761 11.1421 19.0761 10.5013C19.0761 10.2913 19.2483 10.1729 19.4691 10.1729ZM19.4745 14.1412C19.2376 14.1412 19.0599 13.9474 19.0599 13.7266C19.0599 13.5005 19.2376 13.312 19.4745 13.312C19.6952 13.312 19.8837 13.5005 19.8837 13.7266C19.8837 13.9474 19.6952 14.1412 19.4745 14.1412Z" fill="white"/>
</svg>
