<?xml version="1.0" encoding="iso-8859-1"?>
<!-- Uploaded to: SVG Repo, www.svgrepo.com, Generator: SVG Repo Mixer Tools -->
<svg fill="#ecb81c" height="800px" width="800px" version="1.1" id="Layer_1" xmlns="http://www.w3.org/2000/svg" xmlns:xlink="http://www.w3.org/1999/xlink" 
	 viewBox="0 0 512 512" xml:space="preserve">
<g>
	<g>
		<path d="M497.929,394.091H391.806c0,24.325,0,56.117,0,81.382h20.574v8.246c0,5.037,4.084,9.121,9.122,9.121h45.756
			c5.038,0,9.122-4.084,9.122-9.121v-8.246h21.55c7.771,0,14.07-6.299,14.07-14.07V408.16
			C511.998,400.392,505.7,394.091,497.929,394.091z"/>
	</g>
</g>
<g>
	<g>
		<path d="M346.128,349.259h-29.316c4.018,6.797,6.334,14.714,6.334,23.166v114.996c0,13.873,11.015,23.166,22.982,23.166
			c12.795,0,23.166-10.372,23.166-23.166V372.427C369.294,359.631,358.922,349.259,346.128,349.259z"/>
	</g>
</g>
<g>
	<g>
		<path d="M313.944,169.16l-12.263-80.972c-1.595-10.541-11.437-17.795-21.978-16.196c-10.541,1.596-17.794,11.435-16.196,21.978
			l10.838,71.564l-35.692,37.145c-1.098,0.074,1.999-0.253-41.269,4.551l-4.242-16.321c5.911,2.364,12.471,3.352,19.24,2.601
			c21.962-2.438,37.79-22.219,35.352-44.181c-2.438-21.962-22.219-37.79-44.181-35.352c-10.871,1.207-20.234,6.667-26.628,14.534
			L154.33,41.576c-2.682-10.319-13.22-16.509-23.541-13.828c-10.319,2.682-16.51,13.222-13.828,23.541l48.84,187.918
			c9.193,82.814,6.192,55.625,14.174,128.345c2.094,15.553,3.855,22.4,14.246,26.449c-14.177,0-98.181,0.093-98.181,0.093
			c1.148-2.86,3.347-8.302-0.417-14.299c-14.07-22.412-32.153-43.548-55.594-62.242c-3.208-2.559-7.406-3.552-11.42-2.696
			c-14.045,2.993-23.346,11.299-27.901,24.919c-1.303,3.897-0.79,8.172,1.395,11.653c9.766,15.558,21.031,29.778,33.787,42.666
			H17.612c-7.771,0-14.07,6.299-14.07,14.07v53.243c0,7.77,6.299,14.07,14.07,14.07h24.522v8.246c0,5.037,4.084,9.121,9.122,9.121
			h45.756c5.038,0,9.122-4.084,9.122-9.121v-8.246h125.656c0-16.067,0-28.267,0-45.549h0.093v-34.331h22.419v91.829
			c0,12.794,10.372,23.166,23.166,23.166c12.795,0,23.166-10.372,23.166-23.166v-115c0-12.796-10.373-23.166-23.166-23.166
			c-8.445,0-66.401,0-74.851,0l76.371-17.244c-1.168-10.527-10.049-90.519-11.503-103.619l41.291-42.971
			C312.933,181.1,314.843,175.09,313.944,169.16z M218.094,146.606c7.304,0,13.226,7.937,13.226,17.728
			c0,9.791-5.921,17.728-13.226,17.728c-7.305,0-13.226-7.937-13.226-17.728C204.868,154.543,210.79,146.606,218.094,146.606z"/>
	</g>
</g>
<g>
	<g>
		<path d="M448.93,1.407c-29.528,0-53.465,23.937-53.465,53.465s23.938,53.465,53.465,53.465c29.528,0,53.465-23.937,53.465-53.465
			S478.458,1.407,448.93,1.407z M457.373,54.872c0,3.334-1.962,6.355-5.007,7.712l-22.324,9.943
			c-4.251,1.895-9.247-0.012-11.146-4.277c-1.899-4.259,0.016-9.249,4.276-11.146l17.317-7.713V20.918
			c0-4.662,3.779-8.442,8.442-8.442s8.442,3.779,8.442,8.442V54.872z"/>
	</g>
</g>
</svg>