<svg width="22" height="22" viewBox="0 0 22 22" fill="none" xmlns="http://www.w3.org/2000/svg">
<g opacity="0.8" clip-path="url(#clip0_2_16)">
<path d="M13.75 20.1667C13.5069 20.1667 13.2737 20.0701 13.1018 19.8982C12.9299 19.7263 12.8333 19.4931 12.8333 19.25V15.5833C12.8333 15.4325 12.8705 15.2839 12.9417 15.1509C13.0128 15.0178 13.1157 14.9044 13.2413 14.8207L15.9913 12.9873C16.1419 12.8868 16.3189 12.8332 16.5 12.8332C16.6811 12.8332 16.8581 12.8868 17.0088 12.9873L19.7588 14.8207C19.8843 14.9044 19.9872 15.0178 20.0583 15.1509C20.1295 15.2839 20.1667 15.4325 20.1667 15.5833V19.25C20.1667 19.4931 20.0701 19.7263 19.8982 19.8982C19.7263 20.0701 19.4931 20.1667 19.25 20.1667H13.75Z" stroke="#140050" stroke-width="2" stroke-linecap="round" stroke-linejoin="round"/>
<path d="M16.5 9.16667C16.5 7.22175 15.7274 5.35648 14.3521 3.98122C12.9769 2.60595 11.1116 1.83333 9.16667 1.83333C7.22175 1.83333 5.35648 2.60595 3.98122 3.98122C2.60595 5.35648 1.83333 7.22175 1.83333 9.16667C1.83333 13.7436 6.91075 18.5102 8.61575 19.9824C8.77467 20.1016 8.96801 20.1659 9.16667 20.1657" stroke="#140050" stroke-width="2" stroke-linecap="round" stroke-linejoin="round"/>
<path d="M16.5 20.1667V17.4167" stroke="#140050" stroke-width="2" stroke-linecap="round" stroke-linejoin="round"/>
<path d="M9.16667 11.9167C10.6855 11.9167 11.9167 10.6855 11.9167 9.16667C11.9167 7.64788 10.6855 6.41667 9.16667 6.41667C7.64788 6.41667 6.41667 7.64788 6.41667 9.16667C6.41667 10.6855 7.64788 11.9167 9.16667 11.9167Z" stroke="#140050" stroke-width="2" stroke-linecap="round" stroke-linejoin="round"/>
</g>
<defs>
<clipPath id="clip0_2_16">
<rect width="22" height="22" fill="white"/>
</clipPath>
</defs>
</svg>
