<svg width="18" height="18" viewBox="0 0 18 18" fill="none" xmlns="http://www.w3.org/2000/svg">
<path d="M8.99984 10.146C9.37953 10.146 9.68734 9.83819 9.68734 9.4585V4.87516C9.68734 4.49547 9.37953 4.18766 8.99984 4.18766C8.62014 4.18766 8.31234 4.49547 8.31234 4.87516V9.4585C8.31234 9.83819 8.62014 10.146 8.99984 10.146Z" fill="white"/>
<path d="M8.99984 11.7502C9.5061 11.7502 9.9165 12.1606 9.9165 12.6668C9.9165 13.1731 9.5061 13.5835 8.99984 13.5835C8.49358 13.5835 8.08317 13.1731 8.08317 12.6668C8.08317 12.1606 8.49358 11.7502 8.99984 11.7502Z" fill="white"/>
<path fill-rule="evenodd" clip-rule="evenodd" d="M0.979004 9.00016C0.979004 13.4299 4.57005 17.021 8.99984 17.021C13.4296 17.021 17.0207 13.4299 17.0207 9.00016C17.0207 4.57038 13.4296 0.979328 8.99984 0.979328C4.57005 0.979328 0.979004 4.57038 0.979004 9.00016ZM8.99984 15.646C5.32944 15.646 2.354 12.6706 2.354 9.00016C2.354 5.32977 5.32944 2.35433 8.99984 2.35433C12.6702 2.35433 15.6457 5.32977 15.6457 9.00016C15.6457 12.6706 12.6702 15.646 8.99984 15.646Z" fill="white"/>
</svg>
