<svg width="19" height="19" viewBox="0 0 19 19" fill="none" xmlns="http://www.w3.org/2000/svg">
<g id="Group 1261153341">
<path id="Vector" d="M18.7311 11.3309C18.515 11.1975 18.236 11.222 18.0488 11.3931C16.6859 12.6293 14.9229 13.3105 13.0856 13.3105C9.00745 13.3105 5.68949 9.99244 5.68949 5.9142C5.68949 4.07665 6.37065 2.31375 7.60686 0.950813C7.77733 0.762941 7.80299 0.484612 7.66904 0.268472C7.5351 0.0529125 7.27287 -0.0471118 7.03064 0.0213107C2.89077 1.19363 0 5.02065 0 9.32778C0 14.6613 4.33876 19 9.67194 19C13.979 19 17.806 16.1091 18.9783 11.9693C19.0477 11.7247 18.9467 11.4647 18.7311 11.3309Z" fill="black"/>
<path id="Vector_2" d="M9.3923 7.57214L10.7427 8.24974L11.4172 9.60625C11.5135 9.80026 11.7112 9.92266 11.9271 9.92266C12.1433 9.92266 12.3402 9.80026 12.4371 9.60625L13.1124 8.24974L14.4621 7.57214C14.6553 7.47484 14.7771 7.27688 14.7771 7.05996C14.7771 6.84305 14.6553 6.64509 14.4621 6.54779L13.1124 5.87005L12.4371 4.51368C12.2433 4.12565 11.61 4.12565 11.4172 4.51368L10.7427 5.87005L9.3923 6.54779C9.19914 6.64451 9.07715 6.84305 9.07715 7.05996C9.07715 7.27688 9.19914 7.47542 9.3923 7.57214Z" fill="black"/>
<path id="Vector_3" d="M15.3412 3.09751H15.9042V3.66049C15.9042 3.97161 16.156 4.22348 16.4671 4.22348C16.7783 4.22348 17.0301 3.97161 17.0301 3.66049V3.09751H17.5931C17.9042 3.09751 18.1561 2.84578 18.1561 2.53452C18.1561 2.22341 17.9042 1.97168 17.5931 1.97168H17.0301V1.40869C17.0301 1.09743 16.7783 0.845703 16.4671 0.845703C16.156 0.845703 15.9042 1.09743 15.9042 1.40869V1.97168H15.3412C15.0301 1.97168 14.7783 2.22341 14.7783 2.53452C14.7783 2.84578 15.0301 3.09751 15.3412 3.09751Z" fill="black"/>
</g>
</svg>
