<svg width="18" height="18" viewBox="0 0 18 18" fill="none" xmlns="http://www.w3.org/2000/svg">
<path d="M9 2C5.12667 2 2 5.12667 2 9C2 12.8733 5.12667 16 9 16C12.8733 16 16 12.8733 16 9C16 5.12667 12.8733 2 9 2ZM13.1378 9.76222C12.6089 10.3689 11.9089 10.68 11.0378 10.68C10.3689 10.68 9.56 10.4 8.61111 9.85556C7.92667 9.46667 7.44444 9.23333 7.14889 9.23333C6.37111 9.23333 5.96667 9.77778 5.93556 10.7111H4.02222C4.05333 9.77778 4.33333 8.84444 4.86222 8.22222C5.39111 7.61556 6.09111 7.30444 6.99333 7.30444C7.69333 7.30444 8.44 7.55333 9.23333 8.02C10.0422 8.50222 10.6178 8.75111 10.9289 8.75111C11.2556 8.75111 11.52 8.62667 11.7378 8.36222C11.94 8.08222 12.0644 7.74 12.0644 7.27333H13.9778C13.9467 8.37778 13.6667 9.15556 13.1378 9.76222Z" fill="#34CE9D"/>
</svg>
