<svg width="38" height="38" viewBox="0 0 38 38" fill="none" xmlns="http://www.w3.org/2000/svg">
<rect x="1.5" y="1.5" width="34.4921" height="35" rx="17.246" fill="#FF6633"/>
<rect x="1.5" y="1.5" width="34.4921" height="35" rx="17.246" stroke="white" stroke-width="3"/>
<path d="M24.1568 16.4994C23.9728 15.7744 23.5804 15.1492 23.0222 14.6915C22.4783 14.2456 21.8122 14 21.1463 14C20.6358 14 20.1489 14.138 19.6991 14.4102C19.3438 14.6252 19.0242 14.9177 18.7451 15.2827C18.1102 14.4516 17.272 14 16.345 14C15.6794 14 15.0135 14.2456 14.4697 14.6915C13.9117 15.1492 13.5194 15.7743 13.3353 16.4993C13.2003 17.0311 13.1388 17.7773 13.4052 18.6748H15.078L15.682 17.4615C15.7369 17.3513 15.849 17.2817 15.9716 17.2817C16.0943 17.2817 16.2063 17.3513 16.2611 17.4615L17.3587 19.666L18.4563 17.4615C18.5111 17.3513 18.6232 17.2817 18.7459 17.2817C18.8685 17.2817 18.9805 17.3513 19.0354 17.4615L19.6395 18.6748H21.8947C22.0736 18.6748 22.2185 18.8204 22.2185 19C22.2185 19.1796 22.0736 19.3252 21.8947 19.3252H19.4394C19.3167 19.3252 19.2047 19.2555 19.1498 19.1454L18.7459 18.334L17.6483 20.5385C17.5934 20.6487 17.4813 20.7182 17.3587 20.7182C17.236 20.7182 17.124 20.6487 17.0691 20.5385L15.9717 18.334L15.5676 19.1455C15.5128 19.2555 15.4007 19.3252 15.2781 19.3252H13.6477C13.7559 19.5662 13.8881 19.8157 14.0487 20.0727C14.9301 21.4844 16.458 22.7924 18.5899 23.9603C18.6383 23.9868 18.6916 24 18.745 24C18.7984 24 18.8517 23.9868 18.9 23.9604C21.0326 22.7923 22.561 21.4844 23.4428 20.0728C24.3955 18.5476 24.3569 17.2877 24.1568 16.4994Z" fill="white"/>
</svg>
