<svg width="18" height="18" viewBox="0 0 18 18" fill="none" xmlns="http://www.w3.org/2000/svg">
<path d="M8.04557 8.38702C8.12863 8.38702 8.21169 8.39295 8.28882 8.40482L9.53472 7.15892C9.08975 6.92161 8.58546 6.78516 8.04557 6.78516C6.29539 6.78516 4.87744 8.20904 4.87744 9.95329C4.87744 11.7035 6.30132 13.1214 8.04557 13.1214C9.79576 13.1214 11.2137 11.6975 11.2137 9.95329C11.2137 9.4134 11.0773 8.90911 10.8399 8.46415L9.59404 9.71004C9.60591 9.78717 9.61184 9.87023 9.61184 9.95329C9.61184 10.8195 8.90584 11.5255 8.03964 11.5255C7.17345 11.5255 6.46744 10.8195 6.46744 9.95329C6.47337 9.0871 7.17938 8.38702 8.04557 8.38702Z" fill="#333951"/>
<path d="M11.7773 7.53226C12.2341 8.23234 12.4952 9.06293 12.4952 9.95286C12.4952 12.4031 10.5018 14.4025 8.04556 14.4025C5.5953 14.4025 3.59593 12.4091 3.59593 9.95286C3.59593 7.5026 5.58936 5.50323 8.04556 5.50323C8.94142 5.50323 9.77201 5.77021 10.4662 6.22111L11.6171 5.07014C10.6145 4.33446 9.38045 3.90137 8.04556 3.90137C4.71131 3.9073 2 6.61861 2 9.95286C2 13.293 4.71131 16.0043 8.04556 16.0043C11.3798 16.0043 14.097 13.293 14.097 9.95286C14.097 8.61797 13.664 7.38394 12.9283 6.38129L11.7773 7.53226Z" fill="#333951"/>
<path d="M15.983 3.90726C15.9474 3.7886 15.8466 3.69961 15.722 3.67588L14.5295 3.46823L14.3218 2.27573C14.2981 2.15114 14.2091 2.05028 14.0905 2.01469C13.9718 1.97909 13.8413 2.00875 13.7523 2.09774L12.8268 3.02327C12.7615 3.08853 12.7259 3.17159 12.7259 3.26058V4.637L7.74232 9.62058C7.57027 9.79263 7.57027 10.0774 7.74232 10.2495C7.91437 10.4215 8.19915 10.4215 8.3712 10.2495L13.3548 5.26588H14.7312C14.8202 5.26588 14.9033 5.23028 14.9685 5.16502L15.894 4.2395C15.989 4.15644 16.0246 4.02592 15.983 3.90726Z" fill="#333951"/>
</svg>
