<svg width="32" height="32" viewBox="0 0 32 32" fill="none" xmlns="http://www.w3.org/2000/svg">
<rect width="32" height="32" rx="16" fill="#34CECE"/>
<path d="M14.418 7C13.2549 7 12.3086 7.94627 12.3086 9.10938C12.3086 10.2725 13.2549 11.2188 14.418 11.2188C15.5811 11.2188 16.5273 10.2725 16.5273 9.10938C16.5273 7.94627 15.5811 7 14.418 7ZM14.418 10.1641C13.8364 10.1641 13.3633 9.69093 13.3633 9.10938C13.3633 8.52782 13.8364 8.05469 14.418 8.05469C14.9995 8.05469 15.4727 8.52782 15.4727 9.10938C15.4727 9.69093 14.9995 10.1641 14.418 10.1641Z" fill="white"/>
<path d="M21.3086 7C19.2732 7 17.6172 8.65596 17.6172 10.6914C17.6172 12.7268 19.2732 14.3828 21.3086 14.3828C23.344 14.3828 25 12.7268 25 10.6914C25 8.65596 23.344 7 21.3086 7ZM21.3086 13.3281C19.8547 13.3281 18.6719 12.1453 18.6719 10.6914C18.6719 9.23752 19.8547 8.05469 21.3086 8.05469C22.7625 8.05469 23.9453 9.23752 23.9453 10.6914C23.9453 12.1453 22.7625 13.3281 21.3086 13.3281Z" fill="white"/>
<path d="M22.3633 10.1641H21.8359V9.63672C21.8359 9.34548 21.5998 9.10938 21.3086 9.10938C21.0174 9.10938 20.7812 9.34548 20.7812 9.63672V10.6914C20.7812 10.9826 21.0174 11.2188 21.3086 11.2188H22.3633C22.6545 11.2188 22.8906 10.9826 22.8906 10.6914C22.8906 10.4002 22.6545 10.1641 22.3633 10.1641Z" fill="white"/>
<path d="M19.1992 16.5273H16.5273V13.3281C16.5273 12.165 15.5811 11.2188 14.418 11.2188C13.2549 11.2188 12.3086 12.165 12.3086 13.3281V18.1094C12.3086 18.2942 12.3408 18.4717 12.3993 18.6368H11.0251C11.0251 18.6368 10.4636 14.1462 10.1637 11.7106C10.1447 10.8546 9.44252 10.1641 8.58203 10.1641C7.7097 10.1641 7 10.8738 7 11.7461C7 11.7679 7.00137 11.7896 7.00404 11.8112L8.05507 20.2547C8.07016 20.9266 8.5063 21.4963 9.10938 21.7102V24.4727C9.10938 24.7639 9.34548 25 9.63672 25C9.92795 25 10.1641 24.7639 10.1641 24.4727V21.8008H14.418V24.4727C14.418 24.7639 14.6541 25 14.9453 25C15.2365 25 15.4727 24.7639 15.4727 24.4727V21.7101C16.0864 21.4924 16.5273 20.9062 16.5273 20.2188C16.5273 20.0339 16.4952 19.8565 16.4366 19.6914H17.6172V23.418C17.6172 24.2903 18.3269 25 19.1992 25C20.0716 25 20.7812 24.2903 20.7812 23.418V18.1094C20.7812 17.237 20.0716 16.5273 19.1992 16.5273ZM14.9453 20.7461H9.63672C9.34594 20.7461 9.10938 20.5095 9.10938 20.2188C9.10938 20.1694 9.16668 20.6464 8.05539 11.719C8.06956 11.4407 8.30036 11.2188 8.58203 11.2188C8.87281 11.2188 9.10938 11.4553 9.10938 11.7461C9.10938 11.8118 10.0363 19.2294 10.0363 19.2294C10.0693 19.4933 10.2936 19.6914 10.5596 19.6914C10.7681 19.6914 14.7058 19.6914 14.9453 19.6914C15.2361 19.6914 15.4727 19.928 15.4727 20.2188C15.4727 20.5095 15.2361 20.7461 14.9453 20.7461ZM19.7266 23.418C19.7266 23.7087 19.49 23.9453 19.1992 23.9453C18.9084 23.9453 18.6719 23.7087 18.6719 23.418V19.1641C18.6719 18.8728 18.4358 18.6367 18.1445 18.6367C17.994 18.6367 14.1315 18.6367 13.8903 18.6367C13.5996 18.6365 13.3633 18.4 13.3633 18.1094V13.3281C13.3633 12.7466 13.8364 12.2734 14.418 12.2734C14.9995 12.2734 15.4727 12.7466 15.4727 13.3281V17.0547C15.4727 17.3459 15.7088 17.582 16 17.582H19.1992C19.49 17.582 19.7266 17.8186 19.7266 18.1094V23.418Z" fill="white"/>
</svg>
