<svg width="32" height="32" viewBox="0 0 32 32" fill="none" xmlns="http://www.w3.org/2000/svg">
<rect width="32" height="32" rx="16" fill="#34CECE"/>
<path d="M19.346 20.3207C16.0138 20.3207 13.3125 17.6194 13.3125 14.2872C13.3125 12.2049 14.3674 10.3689 15.9719 9.28455C15.7859 9.27103 15.5982 9.26405 15.4087 9.26405C11.1767 9.26405 7.74603 12.6948 7.74603 16.9268C7.74603 21.1588 11.1767 24.5895 15.4087 24.5895C18.8099 24.5895 21.6935 22.3735 22.6946 19.3066C21.7365 19.9471 20.585 20.3207 19.346 20.3207Z" fill="white"/>
<path d="M22.1557 10.5647L24.0347 7.41052H20.5967V8.41711H22.2634L20.3844 11.5713H24.254V10.5647H22.1557Z" fill="white"/>
<path d="M19.2795 11.2443H16.1708V12.2509H17.5082L16.0582 14.6849H19.2465V13.6783H17.8295L19.2795 11.2443Z" fill="white"/>
<path d="M21.1528 16.9649L22.0706 15.4243H19.4731V16.4309H20.2993L19.3815 17.9715H22.107V16.9649H21.1528Z" fill="white"/>
</svg>
