<svg width="14" height="16" viewBox="0 0 14 16" fill="none" xmlns="http://www.w3.org/2000/svg">
<g id="Group 1261153786">
<path id="Vector" d="M6.89411 7.70733C8.00459 7.70733 8.96606 7.32757 9.75187 6.57829C10.5374 5.82914 10.9358 4.91251 10.9358 3.85354C10.9358 2.79494 10.5376 1.87819 9.75174 1.12879C8.96593 0.379763 8.00446 0 6.89411 0C5.78349 0 4.82216 0.379763 4.03647 1.12891C3.25078 1.87806 2.85237 2.79482 2.85237 3.85354C2.85237 4.91251 3.25078 5.82926 4.03647 6.57841C4.82241 7.32744 5.78388 7.70733 6.89411 7.70733ZM4.7319 1.79188C5.33477 1.21705 6.04198 0.937629 6.89411 0.937629C7.74611 0.937629 8.45345 1.21705 9.05644 1.79188C9.65931 2.36684 9.95249 3.04128 9.95249 3.85354C9.95249 4.66605 9.65931 5.34037 9.05644 5.91532C8.45345 6.49028 7.74611 6.7697 6.89411 6.7697C6.04223 6.7697 5.33502 6.49016 4.7319 5.91532C4.1289 5.34049 3.83573 4.66605 3.83573 3.85354C3.83573 3.04128 4.1289 2.36684 4.7319 1.79188Z" fill="white"/>
<path id="Vector_2" d="M13.9661 12.3032C13.9434 11.9914 13.8976 11.6513 13.8301 11.2922C13.762 10.9304 13.6743 10.5883 13.5693 10.2757C13.4608 9.95259 13.3134 9.6335 13.131 9.32771C12.9419 9.01033 12.7196 8.73396 12.4702 8.50654C12.2094 8.26862 11.8902 8.07734 11.5209 7.93781C11.153 7.79902 10.7452 7.7287 10.3091 7.7287C10.1378 7.7287 9.97209 7.79572 9.65216 7.99433C9.45526 8.11677 9.22494 8.25837 8.96787 8.41499C8.74805 8.54853 8.45026 8.67366 8.08245 8.78694C7.72359 8.89766 7.35924 8.95381 6.99949 8.95381C6.63999 8.95381 6.27564 8.89766 5.91653 8.78694C5.5491 8.67378 5.25118 8.54865 5.03175 8.41511C4.77711 8.25996 4.54666 8.11835 4.34682 7.99421C4.02714 7.7956 3.86148 7.72858 3.69018 7.72858C3.25387 7.72858 2.84624 7.79902 2.47843 7.93793C2.10946 8.07722 1.79004 8.2685 1.529 8.50666C1.27961 8.7342 1.05736 9.01045 0.868391 9.32771C0.686212 9.6335 0.538727 9.95247 0.430163 10.2758C0.32531 10.5885 0.237614 10.9304 0.169505 11.2922C0.101908 11.6508 0.0562028 11.9911 0.0335425 12.3036C0.0112662 12.6091 0 12.9271 0 13.2484C0 14.0836 0.278453 14.7598 0.827551 15.2584C1.36986 15.7505 2.08731 16 2.96006 16H11.0399C11.9124 16 12.6299 15.7505 13.1723 15.2584C13.7215 14.7601 14 14.0837 14 13.2483C13.9999 12.9259 13.9885 12.6079 13.9661 12.3032ZM12.4943 14.5791C12.136 14.9043 11.6602 15.0624 11.0398 15.0624H2.96006C2.33952 15.0624 1.86378 14.9043 1.50557 14.5792C1.15414 14.2602 0.983357 13.8248 0.983357 13.2484C0.983357 12.9486 0.993727 12.6526 1.01447 12.3684C1.03469 12.0896 1.07605 11.7833 1.13737 11.4579C1.19793 11.1364 1.275 10.8348 1.36666 10.5617C1.45462 10.2999 1.57457 10.0406 1.72334 9.79085C1.86532 9.55281 2.02868 9.34859 2.20894 9.18403C2.37754 9.0301 2.59007 8.90413 2.84048 8.80964C3.07208 8.72224 3.33235 8.67439 3.6149 8.66719C3.64934 8.68464 3.71066 8.71797 3.81001 8.77974C4.01216 8.90535 4.24517 9.04866 4.50275 9.20552C4.79311 9.38203 5.1672 9.54146 5.61413 9.67903C6.07105 9.8199 6.53706 9.89144 6.99962 9.89144C7.46217 9.89144 7.92831 9.8199 8.38497 9.67916C8.83229 9.54134 9.20625 9.38203 9.49699 9.20528C9.76059 9.04463 9.98707 8.90547 10.1892 8.77974C10.2886 8.71809 10.3499 8.68464 10.3843 8.66719C10.667 8.67439 10.9273 8.72224 11.159 8.80964C11.4093 8.90413 11.6218 9.03023 11.7904 9.18403C11.9707 9.34846 12.134 9.55269 12.276 9.79097C12.4249 10.0406 12.545 10.3 12.6328 10.5616C12.7246 10.835 12.8018 11.1366 12.8622 11.4577C12.9234 11.7838 12.9649 12.0902 12.9851 12.3685V12.3687C13.006 12.6518 13.0165 12.9477 13.0166 13.2484C13.0165 13.8249 12.8457 14.2602 12.4943 14.5791Z" fill="white"/>
</g>
</svg>
