<svg width="45" height="38" viewBox="0 0 45 38" fill="none" xmlns="http://www.w3.org/2000/svg">
<path d="M44.0848 0V12.4162H39.1874C39.1722 9.6592 37.697 7.25623 35.5078 5.96921C34.4276 5.3307 33.1768 4.96665 31.8381 4.96665C27.7953 4.96665 24.5123 8.29876 24.4914 12.4162V12.457C24.4914 16.5944 27.7813 19.9473 31.8381 19.9473C33.1852 19.9473 34.45 19.5779 35.5339 18.9317C36.1447 20.4636 36.9675 21.8886 37.9612 23.1672C36.1618 24.2255 34.0701 24.8321 31.8381 24.8321C27.8328 24.8321 24.2757 22.8789 22.0433 19.8628C20.504 17.7869 19.5941 15.2082 19.5941 12.4159C19.5941 9.65729 18.1165 7.25008 15.9171 5.96344C14.8373 5.328 13.5824 4.96627 12.2459 4.96627C8.18796 4.96627 4.89814 8.29953 4.89814 12.4159C4.89814 16.5291 8.18796 19.8655 12.2459 19.8655C13.582 19.8655 14.8373 19.5022 15.9171 18.8664C16.5295 20.424 17.3594 21.8717 18.3694 23.1672C16.5689 24.2255 14.4783 24.8321 12.2463 24.8321C6.94664 24.8321 2.42956 21.4146 0.729103 16.6341C0.257451 15.3155 0 13.8955 0 12.4159C0 11.9949 0.0208445 11.5801 0.0625501 11.1738V0H12.2463C13.7064 0 15.1081 0.261023 16.4078 0.738083C17.0913 0.985647 17.7465 1.29818 18.3698 1.66414C18.8183 1.924 19.2468 2.21616 19.6559 2.53292C20.5594 3.22794 21.3624 4.04752 22.0441 4.96819C22.7387 4.02714 23.5637 3.19027 24.4922 2.48563C25.4552 1.7514 26.5278 1.1571 27.6774 0.738083C28.979 0.261023 30.3799 0 31.8388 0H44.0848Z" fill="#1A1B24"/>
<path d="M29.389 29.6512L21.7307 37.2449L14.0322 29.6754C15.5154 29.5001 16.938 29.1361 18.2794 28.5983L21.7307 32.0103L25.2029 28.5391C26.5261 29.0811 27.9293 29.4574 29.389 29.6512Z" fill="#1A1B24"/>
<path d="M12.2447 10.6466C13.3908 10.6466 14.3645 11.3847 14.7356 12.4169H17.224C17.224 10.7374 16.4152 9.24815 15.1713 8.3317V8.329C14.3501 7.72547 13.3385 7.36719 12.2443 7.36719C9.49477 7.36719 7.26465 9.62755 7.26465 12.4169H9.75295C10.1249 11.3847 11.0985 10.6466 12.2447 10.6466Z" fill="#1A1B24"/>
<path d="M31.5874 10.6466C32.7336 10.6466 33.7072 11.3847 34.0784 12.4169H36.7354C36.7354 10.767 35.9574 9.30273 34.7537 8.3809C33.9173 7.74546 32.8803 7.36719 31.7562 7.36719C29.0059 7.36719 26.7754 9.62755 26.7754 12.4169H29.0961C29.4677 11.3847 30.4413 10.6466 31.5874 10.6466Z" fill="#1A1B24"/>
</svg>
