<svg width="23" height="27" viewBox="0 0 23 27" fill="none" xmlns="http://www.w3.org/2000/svg">
<path d="M2.25194 0.480469C1.39524 0.480469 0.698242 1.17746 0.698242 2.03417V24.9664C0.698242 25.8231 1.39524 26.5201 2.25194 26.5201H21.4379C22.299 26.5201 22.9999 25.8231 22.9999 24.9664V2.03417C22.9999 1.17746 22.299 0.480469 21.4379 0.480469H2.25194ZM22.1323 24.9664C22.1323 25.3444 21.8212 25.6521 21.4384 25.6521H2.25194C1.88044 25.6521 1.56623 25.3379 1.56623 24.9664V7.08976H22.1323V24.9664ZM22.1323 2.03417V6.22178H1.56623V2.03417C1.56623 1.65616 1.87393 1.34846 2.25194 1.34846H21.4379C21.8207 1.34846 22.1323 1.65572 22.1323 2.03417Z" fill="white"/>
<path d="M10.1379 2.42419H3.55899C3.31943 2.42419 3.125 2.61862 3.125 2.85819V4.71178C3.125 4.95134 3.31943 5.14577 3.55899 5.14577H10.1379C10.3775 5.14577 10.5719 4.95134 10.5719 4.71178V2.85819C10.5719 2.61862 10.3775 2.42419 10.1379 2.42419ZM9.70391 4.27778H3.99299V3.29218H9.70391V4.27778Z" fill="white"/>
<path d="M14.5119 2.35779C13.8006 2.35779 13.2217 2.93674 13.2217 3.64805C13.2217 4.35937 13.8006 4.93832 14.5119 4.93832C15.2233 4.93832 15.8022 4.35937 15.8022 3.64805C15.8022 2.93674 15.2233 2.35779 14.5119 2.35779ZM14.5119 4.07033C14.2789 4.07033 14.0897 3.88067 14.0897 3.64805C14.0897 3.41543 14.2793 3.22578 14.5119 3.22578C14.7446 3.22578 14.9342 3.41543 14.9342 3.64805C14.9342 3.88067 14.7446 4.07033 14.5119 4.07033Z" fill="white"/>
<path d="M17.5613 2.35779C16.8499 2.35779 16.271 2.93674 16.271 3.64805C16.271 4.35937 16.8499 4.93832 17.5613 4.93832C18.2726 4.93832 18.8515 4.35937 18.8515 3.64805C18.8515 2.93674 18.2726 2.35779 17.5613 2.35779ZM17.5613 4.07033C17.3282 4.07033 17.139 3.88067 17.139 3.64805C17.139 3.41543 17.3286 3.22578 17.5613 3.22578C17.7939 3.22578 17.9835 3.41543 17.9835 3.64805C17.9835 3.88067 17.7939 4.07033 17.5613 4.07033Z" fill="white"/>
<path d="M19.3203 3.64805C19.3203 4.35937 19.8993 4.93832 20.6106 4.93832C21.3219 4.93832 21.9008 4.35937 21.9008 3.64805C21.9008 2.93674 21.3219 2.35779 20.6106 2.35779C19.8993 2.35779 19.3203 2.93674 19.3203 3.64805ZM21.0329 3.64805C21.0329 3.88111 20.8432 4.07033 20.6106 4.07033C20.378 4.07033 20.1883 3.88067 20.1883 3.64805C20.1883 3.41543 20.378 3.22578 20.6106 3.22578C20.8432 3.22578 21.0329 3.41543 21.0329 3.64805Z" fill="white"/>
<path d="M11.849 23.9586C15.7012 23.9586 18.835 20.8247 18.835 16.9726C18.835 13.1204 15.7012 9.98657 11.849 9.98657C7.99691 9.98657 4.86304 13.1204 4.86304 16.9726C4.86304 20.8247 7.99691 23.9586 11.849 23.9586ZM11.849 10.855C15.2225 10.855 17.9671 13.5996 17.9671 16.973C17.9671 20.3464 15.2225 23.091 11.849 23.091C8.4756 23.091 5.73102 20.3464 5.73102 16.973C5.73102 13.5996 8.4756 10.855 11.849 10.855Z" fill="white"/>
<path d="M11.8491 21.6768C14.4431 21.6768 16.5531 19.5667 16.5531 16.9727C16.5531 14.3788 14.4431 12.2687 11.8491 12.2687C9.2551 12.2687 7.14502 14.3788 7.14502 16.9727C7.14502 19.5667 9.2551 21.6768 11.8491 21.6768ZM11.8491 13.1367C13.9644 13.1367 15.6852 14.8575 15.6852 16.9727C15.6852 19.088 13.9644 20.8088 11.8491 20.8088C9.73379 20.8088 8.01301 19.088 8.01301 16.9727C8.01301 14.8575 9.73379 13.1367 11.8491 13.1367Z" fill="white"/>
</svg>
