<svg width="38" height="21" viewBox="0 0 38 21" fill="none" xmlns="http://www.w3.org/2000/svg">
<path fill-rule="evenodd" clip-rule="evenodd" d="M22.7682 20.8255H15.0765C14.8327 20.8255 14.6332 20.626 14.6332 20.3821V18.5424C14.6332 18.3429 14.7662 18.1655 14.9657 18.1212C17.1823 17.5227 17.0715 14.752 17.0715 14.7076V6.35099H6.6534C4.23729 6.35099 4.23729 2.64925 6.6534 2.64925H31.1026C33.5188 2.64925 33.5188 6.35099 31.1026 6.35099H20.7732V14.7076C20.7732 14.8185 20.7289 17.5449 22.879 18.1212C23.0563 18.1655 23.2115 18.3429 23.2115 18.5424V20.3821C23.2115 20.626 23.012 20.8255 22.7682 20.8255ZM36.1344 13.2668L37.819 20.2713C37.952 20.8476 37.0875 21.0693 36.9545 20.493L35.3364 13.7323H27.9772L26.2926 20.493C26.1374 21.0693 25.2951 20.8476 25.4281 20.2713L27.2014 13.2225V11.7374C27.2014 10.6069 28.1324 9.67591 29.2629 9.67591H35.7132L36.9545 0.388301C37.021 -0.188019 37.9076 -0.0993542 37.8411 0.499131L36.1344 13.2668ZM1.68818 13.2668C1.13403 9.01093 0.557712 4.75503 0.00355876 0.499131C-0.0629396 -0.0771881 0.823706 -0.188019 0.890204 0.388301L2.10934 9.67591H8.58185C9.71233 9.67591 10.6433 10.6069 10.6433 11.7374V13.2447L12.3944 20.2713C12.5496 20.8476 11.6851 21.0693 11.5521 20.493L9.84532 13.7323H2.50833L0.890204 20.493C0.735041 21.0693 -0.129438 20.8476 0.0257249 20.2935L1.68818 13.2668ZM17.9581 6.35099V14.6855C18.0025 15.8603 17.5591 18.1434 15.5199 18.8749V19.9388H22.3249V18.8749C20.3521 18.1212 19.8644 15.8603 19.8866 14.7076V6.35099H17.9581ZM2.24234 10.5626L2.5305 12.8457H9.75666V11.7374C9.75666 11.0945 9.22467 10.5626 8.58185 10.5626H2.24234ZM35.3142 12.8457L35.6024 10.5626H29.2629C28.62 10.5626 28.088 11.0945 28.088 11.7374V12.8457H35.3142ZM6.6534 3.53589C5.4121 3.53589 5.4121 5.46434 6.6534 5.46434H31.1026C32.3439 5.46434 32.3439 3.53589 31.1026 3.53589H6.6534Z" fill="white"/>
</svg>
