<svg width="27" height="27" viewBox="0 0 27 27" fill="none" xmlns="http://www.w3.org/2000/svg">
<path d="M26.5356 24.6974H22.9265V1.83891C22.9265 1.72497 22.8845 1.61502 22.8085 1.53008C22.7326 1.44514 22.628 1.39116 22.5148 1.37846L10.3282 0.00291716C10.2633 -0.00439277 10.1976 0.00207294 10.1355 0.0218915C10.0733 0.04171 10.016 0.0744348 9.96731 0.117925C9.91865 0.161415 9.87971 0.214689 9.85306 0.274264C9.8264 0.333839 9.81262 0.398371 9.81262 0.463638V1.37528H4.53634C4.41338 1.37528 4.29546 1.42412 4.20851 1.51107C4.12156 1.59802 4.07272 1.71595 4.07272 1.83891V24.6974H0.463622C0.340662 24.6974 0.222738 24.7463 0.135792 24.8332C0.0488459 24.9202 0 25.0381 0 25.1611C0 25.284 0.0488459 25.402 0.135792 25.4889C0.222738 25.5759 0.340662 25.6247 0.463622 25.6247H9.81262V26.5364C9.81262 26.6593 9.86146 26.7772 9.94841 26.8642C10.0354 26.9511 10.1533 27 10.2762 27C10.2939 27.0001 10.3116 26.9991 10.3292 26.9971L22.4894 25.6247H26.5364C26.6593 25.6247 26.7773 25.5759 26.8642 25.4889C26.9512 25.402 27 25.284 27 25.1611C27 25.0381 26.9512 24.9202 26.8642 24.8332C26.7773 24.7463 26.6593 24.6974 26.5364 24.6974H26.5356ZM4.99996 2.30255H9.81262V3.49475H6.65549C6.53253 3.49475 6.4146 3.5436 6.32766 3.63055C6.24071 3.7175 6.19187 3.83542 6.19187 3.95839V24.6974H4.9997L4.99996 2.30255ZM7.11937 24.6974V4.42202H9.81262V24.6974H7.11937ZM10.7399 0.982379L21.9992 2.25406V24.747L10.7399 26.0187V0.982379Z" fill="white"/>
<path d="M12.6668 12C12.4031 12 12.1453 12.0782 11.9261 12.2247C11.7068 12.3712 11.5359 12.5795 11.435 12.8231C11.3341 13.0667 11.3077 13.3348 11.3591 13.5935C11.4106 13.8521 11.5376 14.0897 11.724 14.2761C11.9105 14.4626 12.1481 14.5896 12.4067 14.641C12.6654 14.6925 12.9334 14.6661 13.1771 14.5652C13.4207 14.4643 13.6289 14.2934 13.7755 14.0741C13.922 13.8548 14.0002 13.597 14.0002 13.3333C13.9998 12.9798 13.8591 12.6409 13.6092 12.391C13.3592 12.141 13.0203 12.0004 12.6668 12ZM12.6668 13.7706C12.5803 13.7706 12.4958 13.745 12.4239 13.6969C12.352 13.6489 12.2959 13.5806 12.2628 13.5007C12.2297 13.4208 12.2211 13.3328 12.238 13.248C12.2548 13.1632 12.2965 13.0853 12.3576 13.0241C12.4188 12.963 12.4967 12.9213 12.5815 12.9045C12.6663 12.8876 12.7543 12.8962 12.8342 12.9293C12.9141 12.9624 12.9824 13.0185 13.0304 13.0904C13.0785 13.1623 13.1041 13.2468 13.1041 13.3333C13.104 13.4493 13.0579 13.5604 12.9759 13.6424C12.8939 13.7244 12.7828 13.7705 12.6668 13.7706Z" fill="white"/>
</svg>
