<svg width="27" height="27" viewBox="0 0 27 27" fill="none" xmlns="http://www.w3.org/2000/svg">
<path d="M0.898985 16.6513H9.19492L10.005 15.3012H1.79905C1.30196 15.3012 0.898985 14.8982 0.898985 14.4011V0.900069C0.898985 0.402974 1.30196 0 1.79905 0H25.2008C25.6979 0 26.1009 0.402974 26.1009 0.900069V14.4011C26.1009 14.8982 25.6979 15.3012 25.2008 15.3012H16.9949L17.805 16.6513H26.1009C26.598 16.6513 27.001 17.0542 27.001 17.5513V23.8518C27.001 24.3489 26.598 24.7519 26.1009 24.7519H24.6455L25.5865 26.3203C25.6728 26.4582 25.678 26.632 25.6 26.7748C25.5219 26.9176 25.3729 27.0071 25.2102 27.009C25.0475 27.0109 24.8964 26.9248 24.8152 26.7838L23.596 24.7519H3.40388L2.18473 26.7838C2.10345 26.9248 1.95241 27.0109 1.7897 27.009C1.62699 27.0071 1.47796 26.9176 1.39994 26.7748C1.32192 26.632 1.32705 26.4582 1.41337 26.3203L2.35439 24.7519H0.898985C0.40189 24.7519 -0.00108528 24.3489 -0.00108528 23.8518V17.5513C-0.00108528 17.0542 0.40189 16.6513 0.898985 16.6513ZM18.0003 21.1516H8.9996V23.8518H18.0003V21.1516ZM8.9996 20.2515H18.0003V17.5513H8.9996V20.2515ZM25.2008 0.900069H1.79905V14.4011H25.2008V0.900069ZM15.9454 15.3012H11.0545L10.2444 16.6513H16.7555L15.9454 15.3012ZM26.1009 17.5513H18.9004V23.8518H26.1009V17.5513ZM8.09953 23.8518V17.5513H0.898985V23.8518H8.09953Z" fill="white"/>
<path d="M21.1505 18.4509H23.8507C24.0993 18.4509 24.3008 18.6524 24.3008 18.901C24.3008 19.1495 24.0993 19.351 23.8507 19.351H21.1505C20.902 19.351 20.7005 19.1495 20.7005 18.901C20.7005 18.6524 20.902 18.4509 21.1505 18.4509Z" fill="white"/>
<path d="M3.14956 18.4509H5.84977C6.09832 18.4509 6.2998 18.6524 6.2998 18.901C6.2998 19.1495 6.09832 19.351 5.84977 19.351H3.14956C2.90102 19.351 2.69953 19.1495 2.69953 18.901C2.69953 18.6524 2.90102 18.4509 3.14956 18.4509Z" fill="white"/>
<path d="M23.8508 3.14975C23.7315 3.14972 23.617 3.10229 23.5327 3.01789L23.0826 2.56785C22.9121 2.39127 22.9145 2.11058 23.0881 1.93699C23.2617 1.76339 23.5424 1.76096 23.719 1.93151L24.169 2.38154C24.2977 2.51025 24.3362 2.70378 24.2665 2.87192C24.1969 3.04006 24.0328 3.14971 23.8508 3.14975Z" fill="white"/>
<path d="M21.0185 1.93196L24.1688 5.0822C24.2857 5.19519 24.3327 5.36251 24.2915 5.51986C24.2503 5.6772 24.1274 5.80008 23.9701 5.84127C23.8127 5.88245 23.6454 5.83554 23.5324 5.71855L20.3822 2.56831C20.2652 2.45531 20.2183 2.28799 20.2594 2.13064C20.3006 1.9733 20.4235 1.85042 20.5808 1.80923C20.7382 1.76805 20.9055 1.81497 21.0185 1.93196Z" fill="white"/>
</svg>
