<svg width="25" height="25" viewBox="0 0 25 25" fill="none" xmlns="http://www.w3.org/2000/svg">
<path d="M22.3805 11.0475V4.23415C22.3792 3.11157 21.9327 2.03535 21.1389 1.24157C20.3451 0.447788 19.2689 0.00128075 18.1463 0H6.04878C4.92621 0.00128075 3.84998 0.447788 3.0562 1.24157C2.26242 2.03535 1.81591 3.11157 1.81463 4.23415V11.0475C1.25488 11.4367 0.797525 11.9555 0.481557 12.5596C0.16559 13.1637 0.000376564 13.8353 0 14.5171V23.5902C0 23.9111 0.127456 24.2188 0.354329 24.4457C0.581203 24.6725 0.888909 24.8 1.20976 24.8H3.62927C3.95012 24.8 4.25782 24.6725 4.48469 24.4457C4.71157 24.2188 4.83902 23.9111 4.83902 23.5902V21.7756H19.3561V23.5902C19.3561 23.9111 19.4836 24.2188 19.7104 24.4457C19.9373 24.6725 20.245 24.8 20.5659 24.8H22.9854C23.3062 24.8 23.6139 24.6725 23.8408 24.4457C24.0677 24.2188 24.1951 23.9111 24.1951 23.5902V14.5171C24.1947 13.8353 24.0295 13.1637 23.7136 12.5596C23.3976 11.9555 22.9402 11.4367 22.3805 11.0475ZM3.02439 4.23415C3.02535 3.43232 3.3443 2.66362 3.91127 2.09664C4.47825 1.52967 5.24696 1.21072 6.04878 1.20976H18.1463C18.9482 1.21072 19.7169 1.52967 20.2838 2.09664C20.8508 2.66362 21.1698 3.43232 21.1707 4.23415V10.4644C20.7785 10.3453 20.3709 10.2842 19.961 10.2829H18.1463V9.07317C18.1454 8.27135 17.8264 7.50264 17.2595 6.93566C16.6925 6.36869 15.9238 6.04974 15.122 6.04878H9.07317C8.27135 6.04974 7.50264 6.36869 6.93566 6.93566C6.36869 7.50264 6.04974 8.27135 6.04878 9.07317V10.2829H4.23415C3.82421 10.2842 3.41665 10.3453 3.02439 10.4644V4.23415ZM16.9366 10.2829H7.25854V9.07317C7.25854 8.5919 7.44972 8.13034 7.79003 7.79003C8.13034 7.44972 8.5919 7.25854 9.07317 7.25854H15.122C15.6032 7.25854 16.0648 7.44972 16.4051 7.79003C16.7454 8.13034 16.9366 8.5919 16.9366 9.07317V10.2829ZM1.20976 14.5171C1.21072 13.7152 1.52967 12.9465 2.09664 12.3796C2.66362 11.8126 3.43232 11.4936 4.23415 11.4927H19.961C20.7628 11.4936 21.5315 11.8126 22.0985 12.3796C22.6655 12.9465 22.9844 13.7152 22.9854 14.5171V16.9366H1.20976V14.5171ZM3.62927 23.5902H1.20976V21.7756H3.62927V23.5902ZM1.20976 20.5659V18.1463H22.9854V20.5659H1.20976ZM22.9854 23.5902H20.5659V21.7756H22.9854V23.5902Z" fill="white"/>
</svg>
