<svg width="35" height="21" viewBox="0 0 35 21" fill="none" xmlns="http://www.w3.org/2000/svg">
<path d="M32.6177 4.08832H32.5282C31.9886 4.08832 31.4919 4.27261 31.092 4.57932V2.52259C31.092 1.13169 29.9718 0 28.5947 0H19.5243C18.6911 0 17.9539 0.415875 17.5 1.05125C17.046 0.415875 16.3087 0 15.4755 0H6.40512C5.0281 0 3.90769 1.13169 3.90769 2.52259V4.57932C3.50785 4.27261 3.01116 4.08832 2.47153 4.08832H2.38205C1.06866 4.08832 0 5.16775 0 6.49443V13.9152C0 15.242 1.06866 16.3215 2.38211 16.3215H2.70204V20.1633C2.70204 20.4272 2.91374 20.641 3.17501 20.641H5.62672C5.83672 20.641 6.02149 20.5012 6.08062 20.2978L7.23542 16.3215H27.7645L28.9192 20.2978C28.9784 20.5012 29.1631 20.641 29.3731 20.641H31.8249C32.0861 20.641 32.2978 20.4272 32.2978 20.1633V16.3215H32.6178C33.9313 16.3215 35 15.242 35 13.9152V6.49443C34.9999 5.16775 33.9313 4.08832 32.6177 4.08832ZM19.5243 0.955485H28.5948C29.4503 0.955485 30.1462 1.65839 30.1462 2.52259V8.71764H17.9729V2.52259C17.9729 1.65846 18.6688 0.955485 19.5243 0.955485ZM4.85364 9.67312H30.1461V11.389C30.1461 11.4046 30.1321 11.4187 30.1167 11.4187H4.88304C4.86766 11.4187 4.85364 11.4046 4.85364 11.389V9.67312ZM4.85364 2.52259C4.85364 1.65839 5.54954 0.955485 6.40512 0.955485H15.4755C16.3311 0.955485 17.027 1.65839 17.027 2.52259V8.71764H4.85364V2.52259ZM5.27262 19.6855H3.64799V16.3215H6.24947L5.27262 19.6855ZM31.3518 19.6855H29.7272L28.7503 16.3215H31.3517V19.6855H31.3518ZM34.054 13.9152C34.054 14.7152 33.4096 15.366 32.6177 15.366H2.38211C1.5901 15.366 0.945955 14.7151 0.945955 13.9152V6.49443C0.945955 5.69445 1.5901 5.04381 2.38211 5.04381H2.4716C3.26361 5.04381 3.90776 5.69445 3.90776 6.49443V9.19538V11.389C3.90776 11.9322 4.34532 12.3742 4.88311 12.3742H30.1168C30.6545 12.3742 31.0921 11.9322 31.0921 11.389V9.19538V6.49443C31.0921 5.69445 31.7363 5.04381 32.5283 5.04381H32.6178C33.4098 5.04381 34.054 5.69445 34.054 6.49443V13.9152H34.054Z" fill="white"/>
</svg>
