<svg width="35" height="32" viewBox="0 0 35 32" fill="none" xmlns="http://www.w3.org/2000/svg">
<path d="M34.9593 10.8812C34.9527 10.8635 34.9451 10.8474 34.9369 10.8305C34.913 10.781 34.8821 10.7353 34.8452 10.6945C34.8366 10.6851 34.8304 10.6743 34.8212 10.6654C34.779 10.6237 34.7306 10.5887 34.6778 10.5616L13.6776 0.0615238C13.5134 -0.0205079 13.3201 -0.0205079 13.1558 0.0615238L0.322385 6.47825C0.269543 6.50532 0.221144 6.54032 0.178966 6.58209C0.169806 6.59098 0.163517 6.60178 0.154903 6.61121C0.117989 6.65195 0.0871587 6.69769 0.0632328 6.74718C0.0550296 6.76406 0.0474417 6.78013 0.0408108 6.7979C0.0151759 6.8623 0.00129884 6.93079 0 7.00004V9.33337C0.00341799 9.36071 0.00888677 9.38778 0.0164063 9.41437C0.0201661 9.45648 0.0285744 9.49804 0.041426 9.53838C0.0561917 9.57174 0.074102 9.60352 0.0950201 9.6334C0.112862 9.66662 0.133985 9.698 0.158116 9.72698C0.187648 9.75562 0.220187 9.78099 0.255119 9.80266C0.276174 9.82193 0.298664 9.8395 0.322453 9.85522L0.875005 10.1315V20.4168C0.875005 20.5273 0.937418 20.6283 1.0362 20.6777L2.20289 21.2611L2.21089 21.263C2.288 21.3015 2.37872 21.3015 2.45576 21.263L2.46375 21.2611L3.63045 20.6777C3.72923 20.6283 3.79164 20.5273 3.79164 20.4168V11.5898L9.04167 14.2148V16.3334C9.04167 16.4439 9.10409 16.5449 9.20287 16.5943L10.3696 17.1777L10.3776 17.1796C10.4547 17.2181 10.5454 17.2181 10.6224 17.1796L10.6304 17.1777L11.7971 16.5943C11.8959 16.5449 11.9583 16.4439 11.9583 16.3334V15.6732L21.3224 20.3553C21.3276 20.3578 21.3336 20.3567 21.3388 20.3591C21.4927 20.436 21.6739 20.436 21.8279 20.3591C21.8331 20.3567 21.8391 20.3578 21.8442 20.3553L21.875 20.3399V30.9169C21.875 31.0273 21.9374 31.1284 22.0362 31.1778L23.2029 31.7611L23.2109 31.763C23.288 31.8015 23.3787 31.8015 23.4557 31.763L23.4637 31.7611L24.6304 31.1778C24.7292 31.1284 24.7916 31.0273 24.7916 30.9169V18.8815L30.0417 16.2565V26.8335C30.0417 26.9439 30.1041 27.045 30.2029 27.0944L31.3696 27.6777L31.3775 27.6796C31.4547 27.7181 31.5454 27.7181 31.6224 27.6796L31.6304 27.6777L32.7971 27.0944C32.8959 27.045 32.9583 26.9439 32.9583 26.8335V14.7981L34.6775 13.9385C34.7013 13.9228 34.7238 13.9052 34.7449 13.8859C34.7798 13.8643 34.8124 13.8388 34.8419 13.8102C34.8857 13.7506 34.9247 13.6875 34.9586 13.6216C34.9714 13.5814 34.9798 13.5398 34.9836 13.4977C34.9911 13.4712 34.9966 13.4441 35 13.4167V11.0834C34.9988 11.0141 34.985 10.9456 34.9593 10.8812ZM2.04163 20.5281L1.45832 20.2364V10.4231L2.04163 10.7148V20.5281ZM3.20826 20.2365L2.62495 20.5282V11.0065L3.20826 11.2982V20.2365ZM10.2083 16.4448L9.62499 16.1531V14.5065L10.2083 14.7982V16.4448ZM11.375 16.1531L10.7917 16.4448V15.0898L11.375 15.3815V16.1531ZM21.0001 18.8894L1.16663 8.97277V7.94395L21.0001 17.8607V18.8894ZM21.5834 16.8478L1.88748 7.00004L13.4166 1.2356L33.1126 11.0834L21.5834 16.8478ZM23.0418 31.0282L22.4584 30.7365V20.0482L23.0418 19.7565V31.0282ZM24.2084 30.7365L23.6251 31.0282V19.4648L24.2084 19.1731V30.7365ZM31.2084 26.9448L30.6251 26.6531V15.9648L31.2084 15.6731V26.9448ZM32.3751 26.6531L31.7918 26.9448V15.3815L32.3751 15.0898V26.6531ZM33.8334 13.0561L22.1667 18.8894V17.8606L33.8334 12.0273V13.0561Z" fill="white"/>
</svg>
