<svg width="31" height="30" viewBox="0 0 31 30" fill="none" xmlns="http://www.w3.org/2000/svg">
<path d="M29.0624 13.5625H3.22914V2.67374C3.22914 1.9375 3.91374 1.29164 4.69516 1.29164H7.39476C8.15686 1.29164 8.77038 1.91164 8.77686 2.66727C7.51749 2.98374 6.45834 4.14624 6.45834 5.37328V7.10413C6.45834 7.45936 6.74897 7.74999 7.10419 7.74999H11.625C11.9802 7.74999 12.2708 7.45936 12.2708 7.10413V5.37334C12.2708 4.12687 11.2827 2.98374 10.0686 2.67374C10.0686 1.20125 8.87379 0 7.39482 0H4.69522C3.20335 0 1.9375 1.2271 1.9375 2.67374V13.5625C0.871873 13.556 0.0064785 14.4215 0 15.4871C0 16.0425 0.2325 16.5656 0.645852 16.9337V20.3179C0.645852 22.9464 1.81483 25.2003 3.7071 26.6664L2.64795 28.7718C2.48647 29.0882 2.61568 29.4757 2.93858 29.6372C3.25505 29.7986 3.64255 29.6694 3.80397 29.3465L4.79857 27.3638C6.10317 28.0613 7.56271 28.423 9.04169 28.4101H21.9583C23.4373 28.423 24.8968 28.0613 26.2014 27.3638L27.196 29.3465C27.3575 29.663 27.745 29.7922 28.0614 29.6372C28.3779 29.4822 28.507 29.0882 28.352 28.7718L27.2929 26.6599C29.1852 25.2003 30.3542 22.9399 30.3542 20.3114V16.9272C30.761 16.572 31 16.0489 31 15.5C30.9999 14.4279 30.1345 13.5625 29.0624 13.5625ZM9.42271 3.87499C10.1912 3.87499 10.9792 4.63062 10.9792 5.37334V6.45834H7.74999V5.37334C7.74999 4.65647 8.62186 3.87499 9.42271 3.87499ZM29.0624 20.3179C29.0624 24.1994 26.0077 27.125 21.9583 27.125H9.04163C4.99226 27.1249 1.9375 24.1993 1.9375 20.3179V17.4375H29.0624V20.3179ZM29.0624 16.1458H1.95687C1.63398 16.1458 1.34335 15.9133 1.29812 15.5968C1.24 15.1965 1.55 14.8541 1.9375 14.8541H29.0431C29.366 14.8541 29.6566 15.0866 29.7018 15.4031C29.7599 15.8036 29.4499 16.1458 29.0624 16.1458Z" fill="white"/>
</svg>
