<svg width="46" height="38" viewBox="0 0 46 38" fill="none" xmlns="http://www.w3.org/2000/svg">
<path d="M45.0428 0.433594V12.8498H40.1454C40.1302 10.0928 38.655 7.68983 36.4658 6.4028C35.3856 5.76429 34.1348 5.40025 32.7961 5.40025C28.7533 5.40025 25.4703 8.73235 25.4494 12.8498V12.8906C25.4494 17.028 28.7393 20.3809 32.7961 20.3809C34.1432 20.3809 35.408 20.0115 36.492 19.3653C37.1027 20.8972 37.9255 22.3222 38.9192 23.6008C37.1198 24.6591 35.0281 25.2657 32.7961 25.2657C28.7908 25.2657 25.2337 23.3125 23.0013 20.2964C21.462 18.2205 20.5521 15.6418 20.5521 12.8494C20.5521 10.0909 19.0746 7.68367 16.8751 6.39703C15.7954 5.76159 14.5404 5.39986 13.2039 5.39986C9.14596 5.39986 5.85615 8.73313 5.85615 12.8494C5.85615 16.9627 9.14596 20.299 13.2039 20.299C14.54 20.299 15.7954 19.9358 16.8751 19.3C17.4875 20.8576 18.3174 22.3053 19.3274 23.6008C17.5269 24.6591 15.4363 25.2657 13.2043 25.2657C7.90464 25.2657 3.38756 21.8482 1.68711 17.0676C1.21546 15.7491 0.958008 14.3291 0.958008 12.8494C0.958008 12.4285 0.978852 12.0137 1.02056 11.6074V0.433594H13.2043C14.6644 0.433594 16.0661 0.694617 17.3658 1.17168C18.0494 1.41924 18.7045 1.73177 19.3278 2.09773C19.7763 2.3576 20.2048 2.64976 20.6139 2.96652C21.5174 3.66154 22.3204 4.48111 23.0021 5.40178C23.6967 4.46074 24.5217 3.62386 25.4502 2.91923C26.4132 2.18499 27.4858 1.59069 28.6354 1.17168C29.937 0.694617 31.3379 0.433594 32.7968 0.433594H45.0428Z" fill="white" fill-opacity="0.8"/>
<path d="M30.347 30.0848L22.6887 37.6785L14.9902 30.109C16.4734 29.9337 17.896 29.5697 19.2374 29.0319L22.6887 32.4439L26.1609 28.9727C27.4841 29.5147 28.8873 29.891 30.347 30.0848Z" fill="white" fill-opacity="0.8"/>
<path d="M13.2027 11.0802C14.3488 11.0802 15.3225 11.8183 15.6937 12.8505H18.182C18.182 11.1709 17.3733 9.68174 16.1293 8.76529V8.76259C15.3081 8.15906 14.2965 7.80078 13.2023 7.80078C10.4528 7.80078 8.22266 10.0611 8.22266 12.8505H10.711C11.0829 11.8183 12.0565 11.0802 13.2027 11.0802Z" fill="white" fill-opacity="0.8"/>
<path d="M32.5455 11.0802C33.6916 11.0802 34.6652 11.8183 35.0364 12.8505H37.6934C37.6934 11.2005 36.9154 9.73632 35.7117 8.81449C34.8753 8.17906 33.8383 7.80078 32.7142 7.80078C29.9639 7.80078 27.7334 10.0611 27.7334 12.8505H30.0541C30.4257 11.8183 31.3993 11.0802 32.5455 11.0802Z" fill="white" fill-opacity="0.8"/>
</svg>
