<svg width="32" height="32" viewBox="0 0 32 32" fill="none" xmlns="http://www.w3.org/2000/svg">
<path d="M27 7H5C3.34315 7 2 8.34315 2 10V22C2 23.6569 3.34315 25 5 25H27C28.6569 25 30 23.6569 30 22V10C30 8.34315 28.6569 7 27 7Z" fill="white"/>
<path opacity="0.15" d="M27 7H5C3.343 7 2 8.343 2 10V22C2 23.657 3.343 25 5 25H27C28.657 25 30 23.657 30 22V10C30 8.343 28.657 7 27 7ZM29 22C29 23.103 28.103 24 27 24H5C3.897 24 3 23.103 3 22V10C3 8.897 3.897 8 5 8H27C28.103 8 29 8.897 29 10V22Z" fill="black"/>
<path opacity="0.2" d="M27 8H5C3.895 8 3 8.895 3 10V11C3 9.895 3.895 9 5 9H27C28.105 9 29 9.895 29 11V10C29 8.895 28.105 8 27 8Z" fill="white"/>
<path d="M9.193 9H14.779C15.559 9 16.044 9.636 15.862 10.419L13.261 21.584C13.077 22.365 12.297 23 11.517 23H5.931C5.151 23 4.666 22.364 4.848 21.584L7.45 10.419C7.631 9.636 8.411 9 9.193 9Z" fill="#ED171F"/>
<path d="M14.314 9H20.738C21.518 9 21.166 9.636 20.983 10.419L18.382 21.584C18.2 22.365 18.257 23 17.476 23H11.053C10.272 23 9.78802 22.364 9.97202 21.584L12.572 10.419C12.756 9.636 13.534 9 14.314 9Z" fill="#082F67"/>
<path d="M20.484 9H26.069C26.849 9 27.334 9.636 27.151 10.419L24.55 21.584C24.367 22.365 23.587 23 22.805 23H17.221C16.439 23 15.955 22.364 16.139 21.584L18.739 10.419C18.922 9.636 19.702 9 20.484 9Z" fill="#006A65"/>
<path fill-rule="evenodd" clip-rule="evenodd" d="M19.551 19.504H20.078L20.23 18.998H19.703L19.551 19.504ZM19.972 18.107L19.791 18.706C19.791 18.706 19.991 18.603 20.099 18.572C20.207 18.547 20.371 18.527 20.371 18.527L20.499 18.108L19.972 18.107ZM20.234 17.245L20.059 17.821C20.059 17.821 20.255 17.733 20.362 17.703C20.47 17.675 20.633 17.664 20.633 17.664L20.759 17.245H20.234ZM21.399 17.245L20.718 19.498H20.901L20.76 19.964H20.577L20.535 20.109H19.887L19.931 19.964H18.614L18.746 19.533H18.879L19.57 17.246L19.708 16.784H20.369L20.3 17.018C20.3 17.018 20.476 16.891 20.643 16.848C20.81 16.804 21.768 16.788 21.768 16.788L21.626 17.247H21.4L21.399 17.245Z" fill="white"/>
<path d="M21.69 16.786H22.395L22.403 17.049C22.399 17.093 22.437 17.114 22.518 17.114H22.661L22.53 17.548H22.149C21.819 17.572 21.694 17.43 21.701 17.271L21.688 16.786H21.69Z" fill="white"/>
<path d="M21.783 18.845H21.111L21.226 18.458H21.994L22.104 18.106H21.345L21.475 17.67H23.587L23.455 18.106H22.747L22.636 18.458H23.346L23.229 18.845H22.46L22.324 19.008H22.635L22.711 19.495C22.719 19.543 22.721 19.574 22.736 19.595C22.752 19.613 22.845 19.621 22.899 19.621H22.994L22.85 20.095H22.61C22.573 20.095 22.518 20.092 22.443 20.088C22.37 20.082 22.319 20.04 22.271 20.017C22.227 19.995 22.161 19.942 22.146 19.851L22.071 19.365L21.722 19.844C21.611 19.995 21.461 20.11 21.208 20.11H20.718L20.846 19.687H21.033C21.087 19.687 21.135 19.666 21.17 19.648C21.206 19.633 21.238 19.615 21.274 19.561L21.782 18.844L21.783 18.845Z" fill="white"/>
<path d="M14.419 17.787H16.199L16.067 18.212H15.355L15.244 18.573H15.972L15.839 19.012H15.111L14.935 19.601C14.913 19.666 15.107 19.676 15.177 19.676L15.542 19.626L15.396 20.111H14.575C14.51 20.111 14.46 20.102 14.388 20.086C14.319 20.069 14.288 20.038 14.258 19.991C14.228 19.943 14.183 19.904 14.214 19.801L14.45 19.021H14.046L14.18 18.575H14.587L14.695 18.214H14.29L14.42 17.789L14.419 17.787Z" fill="white"/>
<path d="M15.618 17.023H16.348L16.214 17.467H15.216L15.108 17.56C15.062 17.605 15.046 17.586 14.986 17.619C14.93 17.648 14.811 17.704 14.657 17.704H14.337L14.467 17.277H14.563C14.644 17.277 14.7 17.27 14.727 17.252C14.759 17.232 14.794 17.187 14.835 17.113L15.018 16.78H15.745L15.618 17.023Z" fill="white"/>
<path fill-rule="evenodd" clip-rule="evenodd" d="M17.019 17.754C17.019 17.754 17.218 17.572 17.559 17.513C17.637 17.498 18.122 17.503 18.122 17.503L18.195 17.259H17.167L17.019 17.754ZM17.982 17.94H16.962L16.9 18.146H17.782C17.886 18.133 17.908 18.148 17.916 18.143L17.982 17.94ZM16.661 16.786H17.283L17.193 17.099C17.193 17.099 17.389 16.942 17.527 16.886C17.664 16.835 17.974 16.789 17.974 16.789L18.98 16.784L18.637 17.926C18.58 18.122 18.512 18.249 18.47 18.306C18.432 18.365 18.387 18.414 18.299 18.462C18.214 18.507 18.137 18.534 18.066 18.541C17.999 18.546 17.897 18.549 17.756 18.55H16.787L16.513 19.454C16.487 19.543 16.475 19.586 16.492 19.61C16.506 19.632 16.539 19.656 16.585 19.656L17.012 19.616L16.866 20.112H16.387C16.235 20.112 16.124 20.109 16.046 20.103C15.972 20.097 15.895 20.103 15.844 20.063C15.799 20.024 15.731 19.973 15.733 19.92C15.738 19.871 15.758 19.789 15.79 19.678L16.661 16.788V16.786Z" fill="white"/>
<path d="M18.475 18.63L18.418 18.904C18.393 18.989 18.371 19.055 18.307 19.11C18.24 19.167 18.159 19.228 17.972 19.228L17.627 19.242L17.624 19.553C17.619 19.641 17.643 19.632 17.657 19.646C17.673 19.661 17.687 19.668 17.703 19.673L17.812 19.668L18.142 19.649L18.006 20.102H17.627C17.362 20.102 17.165 20.096 17.1 20.045C17.037 20.005 17.028 19.954 17.03 19.867L17.054 18.658H17.658L17.65 18.905H17.796C17.845 18.905 17.878 18.9 17.9 18.887C17.918 18.873 17.931 18.854 17.941 18.823L18 18.63H18.475Z" fill="white"/>
<path d="M9.85402 12.567C9.83202 12.664 9.44502 14.453 9.44302 14.454C9.35902 14.816 9.30002 15.075 9.09302 15.24C8.97602 15.336 8.83902 15.384 8.68102 15.384C8.42702 15.384 8.27802 15.258 8.25202 15.017L8.24702 14.935C8.24702 14.935 8.32402 14.45 8.32502 14.448C8.32502 14.448 8.73202 12.818 8.80402 12.603C8.80702 12.591 8.80902 12.585 8.81002 12.579C8.01802 12.586 7.87702 12.579 7.86802 12.567C7.86302 12.583 7.84202 12.684 7.84202 12.684L7.42602 14.52L7.39002 14.677L7.32202 15.186C7.32202 15.336 7.35202 15.46 7.41102 15.565C7.60102 15.897 8.14102 15.946 8.44602 15.946C8.84002 15.946 9.20802 15.862 9.45702 15.71C9.89002 15.454 10.004 15.053 10.105 14.698L10.152 14.516C10.152 14.516 10.571 12.823 10.643 12.602C10.645 12.59 10.646 12.584 10.649 12.578C10.075 12.584 9.90602 12.578 9.85202 12.566" fill="white"/>
<path d="M12.172 15.927C11.891 15.923 11.792 15.923 11.464 15.94L11.451 15.916C11.48 15.791 11.511 15.668 11.539 15.541L11.579 15.37C11.64 15.104 11.7 14.794 11.707 14.701C11.713 14.644 11.731 14.502 11.57 14.502C11.501 14.502 11.43 14.536 11.359 14.568C11.319 14.71 11.239 15.106 11.202 15.288C11.12 15.67 11.115 15.713 11.079 15.902L11.055 15.927C10.765 15.923 10.665 15.923 10.332 15.94L10.316 15.912C10.372 15.685 10.427 15.456 10.481 15.23C10.621 14.615 10.654 14.38 10.693 14.068L10.719 14.049C11.044 14.003 11.123 13.994 11.474 13.922L11.504 13.955L11.451 14.151C11.51 14.116 11.566 14.08 11.628 14.049C11.794 13.967 11.978 13.943 12.08 13.943C12.233 13.943 12.402 13.986 12.472 14.164C12.539 14.323 12.495 14.519 12.407 14.904L12.362 15.1C12.272 15.529 12.257 15.608 12.207 15.902L12.174 15.927H12.172Z" fill="white"/>
<path d="M13.313 15.927C13.144 15.927 13.035 15.923 12.929 15.927C12.823 15.927 12.72 15.933 12.563 15.941L12.553 15.927L12.542 15.913C12.585 15.75 12.609 15.693 12.63 15.636C12.652 15.579 12.672 15.521 12.71 15.356C12.759 15.141 12.789 14.99 12.811 14.859C12.833 14.731 12.846 14.623 12.862 14.497L12.875 14.487L12.889 14.475C13.057 14.451 13.165 14.436 13.273 14.419C13.383 14.403 13.495 14.381 13.669 14.348L13.676 14.363L13.681 14.378C13.649 14.511 13.616 14.644 13.584 14.78C13.553 14.915 13.52 15.047 13.491 15.181C13.427 15.464 13.403 15.569 13.387 15.645C13.373 15.717 13.368 15.756 13.343 15.903L13.328 15.916L13.312 15.928L13.313 15.927Z" fill="white"/>
<path d="M15.103 14.929C15.088 15.002 15.024 15.273 14.937 15.388C14.877 15.473 14.806 15.524 14.727 15.524C14.705 15.524 14.566 15.524 14.563 15.318C14.561 15.217 14.583 15.111 14.608 14.999C14.682 14.672 14.769 14.397 14.992 14.397C15.167 14.397 15.179 14.601 15.103 14.929ZM15.837 14.96C15.936 14.528 15.86 14.326 15.764 14.202C15.617 14.015 15.359 13.955 15.091 13.955C14.93 13.955 14.546 13.971 14.246 14.249C14.031 14.448 13.931 14.719 13.871 14.978C13.811 15.242 13.741 15.719 14.179 15.896C14.315 15.953 14.508 15.969 14.634 15.969C14.955 15.969 15.284 15.881 15.53 15.618C15.722 15.405 15.809 15.089 15.838 14.959" fill="white"/>
<path d="M22.706 15.957C22.367 15.954 22.27 15.954 21.956 15.967L21.935 15.942C22.021 15.62 22.106 15.298 22.182 14.973C22.28 14.55 22.303 14.371 22.336 14.123L22.361 14.102C22.697 14.054 22.791 14.04 23.142 13.976L23.153 14.005C23.089 14.27 23.024 14.535 22.963 14.802C22.834 15.359 22.787 15.643 22.737 15.934L22.706 15.958V15.957Z" fill="white"/>
<path d="M22.196 14.967C22.18 15.036 22.116 15.31 22.029 15.424C21.972 15.505 21.835 15.557 21.756 15.557C21.734 15.557 21.596 15.557 21.591 15.353C21.59 15.253 21.611 15.147 21.637 15.034C21.711 14.714 21.798 14.44 22.021 14.44C22.196 14.44 22.271 14.639 22.196 14.968M22.866 15C22.964 14.57 22.568 14.962 22.505 14.82C22.408 14.599 22.469 14.15 22.078 14C21.928 13.942 21.575 14.017 21.274 14.292C21.061 14.49 20.959 14.758 20.9 15.017C20.839 15.277 20.77 15.754 21.205 15.924C21.343 15.982 21.469 15.999 21.594 15.994C22.032 15.97 22.366 15.309 22.613 15.047C22.804 14.84 22.837 15.125 22.866 14.999" fill="white"/>
<path d="M17.756 15.927C17.474 15.923 17.379 15.923 17.048 15.94L17.036 15.916C17.064 15.791 17.096 15.668 17.125 15.541L17.164 15.37C17.225 15.104 17.285 14.794 17.291 14.701C17.297 14.644 17.315 14.502 17.155 14.502C17.085 14.502 17.015 14.536 16.943 14.568C16.904 14.71 16.823 15.106 16.785 15.288C16.705 15.67 16.699 15.713 16.663 15.902L16.639 15.927C16.349 15.923 16.25 15.923 15.917 15.94L15.902 15.912C15.957 15.685 16.012 15.456 16.065 15.23C16.205 14.615 16.238 14.38 16.276 14.068L16.302 14.049C16.627 14.003 16.706 13.994 17.057 13.922L17.085 13.955L17.034 14.151C17.092 14.116 17.15 14.08 17.21 14.049C17.375 13.967 17.561 13.943 17.66 13.943C17.814 13.943 17.983 13.986 18.055 14.164C18.121 14.323 18.076 14.519 17.988 14.904L17.944 15.1C17.852 15.529 17.838 15.608 17.789 15.902L17.754 15.927H17.756Z" fill="white"/>
<path d="M20.191 12.564L19.958 12.567C19.351 12.574 19.107 12.571 19.007 12.559C18.997 12.603 18.981 12.682 18.981 12.682L18.764 13.692C18.764 13.692 18.244 15.836 18.219 15.937C18.749 15.931 18.966 15.931 19.057 15.94C19.078 15.839 19.202 15.241 19.202 15.241C19.202 15.241 19.308 14.801 19.314 14.785C19.314 14.785 19.347 14.74 19.38 14.722H19.428C19.885 14.722 20.402 14.722 20.806 14.424C21.081 14.22 21.27 13.918 21.354 13.553C21.376 13.463 21.392 13.355 21.392 13.249C21.392 13.109 21.364 12.97 21.282 12.861C21.076 12.572 20.666 12.567 20.191 12.564ZM20.495 13.615C20.445 13.838 20.301 14.027 20.114 14.118C19.959 14.196 19.771 14.201 19.577 14.201H19.452L19.461 14.151C19.461 14.151 19.693 13.144 19.692 13.147L19.699 13.096L19.703 13.056L19.795 13.066C19.795 13.066 20.271 13.107 20.283 13.109C20.472 13.181 20.549 13.37 20.494 13.615" fill="white"/>
<path d="M25.481 13.972L25.454 13.942C25.108 14.011 25.045 14.023 24.726 14.065L24.702 14.088C24.702 14.088 24.7 14.098 24.699 14.103L24.697 14.098C24.46 14.646 24.467 14.528 24.274 14.959C24.273 14.939 24.272 14.926 24.272 14.905L24.224 13.971L24.194 13.941C23.832 14.01 23.822 14.022 23.487 14.064L23.46 14.087C23.458 14.099 23.457 14.111 23.455 14.124L23.458 14.129C23.5 14.344 23.49 14.296 23.532 14.633C23.552 14.799 23.577 14.966 23.597 15.13C23.631 15.404 23.649 15.54 23.689 15.958C23.463 16.333 23.409 16.474 23.193 16.803L23.205 16.833C23.533 16.821 23.609 16.821 23.851 16.821L23.905 16.761C24.088 16.366 25.484 13.97 25.484 13.97" fill="white"/>
<path d="M13.622 14.204C13.807 14.075 13.831 13.896 13.674 13.803C13.515 13.71 13.238 13.739 13.051 13.869C12.863 13.997 12.842 14.176 12.999 14.269C13.156 14.36 13.434 14.334 13.622 14.204Z" fill="white"/>
<path d="M23.878 16.796L23.605 17.263C23.519 17.422 23.359 17.542 23.104 17.543L22.669 17.536L22.795 17.115H22.879C22.924 17.115 22.956 17.112 22.982 17.1C23.003 17.093 23.019 17.076 23.037 17.051L23.197 16.796H23.878Z" fill="white"/>
</svg>
