<svg width="32" height="32" viewBox="0 0 32 32" fill="none" xmlns="http://www.w3.org/2000/svg">
<g clip-path="url(#clip0_2_2114)">
<circle cx="16" cy="16" r="16" fill="#428EFF"/>
<path fill-rule="evenodd" clip-rule="evenodd" d="M11.603 8.29438L19.7354 8.29438C20.1956 8.29438 20.5687 8.66749 20.5687 9.12773L20.5689 22.2041C20.5689 22.6644 20.1958 23.0375 19.7354 23.0376L11.603 23.0376C11.1426 23.0375 10.7695 22.6644 10.7695 22.2041L10.7696 9.12773C10.7696 8.66749 11.1427 8.29438 11.603 8.29438ZM12.4365 9.96123L12.4363 21.3706H18.902L18.9019 9.96123L12.4365 9.96123ZM22.1854 13.2444C21.7398 13.1296 21.4714 12.6747 21.5862 12.2295C21.7011 11.7839 22.156 11.5155 22.6015 11.6303C24.3979 12.0935 25.727 13.7256 25.7271 15.666C25.7271 17.6062 24.3979 19.2384 22.6013 19.7015C22.1559 19.8162 21.7012 19.5479 21.5862 19.1025C21.4714 18.657 21.7398 18.2021 22.1852 18.0874C23.2631 17.8095 24.0601 16.83 24.0601 15.666C24.0603 14.5018 23.2631 13.5222 22.1854 13.2444ZM8.73007 11.6303C9.17546 11.5156 9.63033 11.7841 9.74517 12.2293C9.86002 12.6749 9.59157 13.1297 9.14618 13.2444C8.06828 13.5224 7.27128 14.5018 7.27128 15.6659C7.27114 16.83 8.06828 17.8096 9.14604 18.0874C9.59157 18.2023 9.86002 18.6571 9.74517 19.1024C9.63033 19.5479 9.17546 19.8164 8.72993 19.7015C6.93352 19.2383 5.60443 17.6062 5.60443 15.666C5.60429 13.7256 6.93352 12.0934 8.73007 11.6303Z" fill="white"/>
</g>
<defs>
<clipPath id="clip0_2_2114">
<rect width="32" height="32" fill="white"/>
</clipPath>
</defs>
</svg>
