<svg width="32" height="32" viewBox="0 0 32 32" fill="none" xmlns="http://www.w3.org/2000/svg">
<g clip-path="url(#clip0_1_1935)">
<circle cx="16" cy="16" r="16" fill="#FC4A4A"/>
<path d="M16 26C15.8887 26 15.7775 25.9728 15.6778 25.9183C15.5695 25.8592 12.9969 24.4462 10.3874 22.3171C8.84082 21.0552 7.60624 19.8036 6.71808 18.5971C5.56876 17.036 4.99079 15.5343 5.00011 14.1338C5.01103 12.5042 5.62801 10.9716 6.73755 9.8184C7.86582 8.64575 9.37152 8 10.9774 8C13.0355 8 14.9171 9.09062 16 10.8183C17.083 9.09066 18.9646 8 21.0227 8C22.5398 8 23.9873 8.58267 25.0986 9.64068C26.3183 10.8017 27.0112 12.4423 26.9999 14.1415C26.9905 15.5396 26.4017 17.039 25.2498 18.598C24.3589 19.8038 23.1261 21.0549 21.5855 22.3164C18.9856 24.4453 16.4315 25.8583 16.324 25.9174C16.2239 25.9724 16.1119 26 16 26Z" fill="white"/>
<path d="M16 21C15.9494 21 15.8988 20.9879 15.8535 20.9637C15.8043 20.9374 14.635 20.3094 13.4488 19.3631C12.7458 18.8023 12.1847 18.246 11.7809 17.7098C11.2585 17.016 10.9958 16.3486 11.0001 15.7261C11.005 15.0019 11.2855 14.3207 11.7898 13.8082C12.3026 13.287 12.9871 13 13.717 13C14.6525 13 15.5078 13.4847 16 14.2526C16.4923 13.4847 17.3475 13 18.283 13C18.9726 13 19.6306 13.259 20.1357 13.7292C20.6901 14.2452 21.0051 14.9743 20.9999 15.7296C20.9957 16.3509 20.728 17.0173 20.2045 17.7102C19.7995 18.2462 19.2391 18.8022 18.5389 19.3628C17.3571 20.309 16.1961 20.937 16.1473 20.9633C16.1018 20.9878 16.0509 21 16 21Z" fill="#FC4A4A"/>
</g>
<defs>
<clipPath id="clip0_1_1935">
<rect width="32" height="32" fill="white"/>
</clipPath>
</defs>
</svg>
