<svg width="32" height="32" viewBox="0 0 32 32" fill="none" xmlns="http://www.w3.org/2000/svg">
<g clip-path="url(#clip0_2_2063)">
<circle cx="16" cy="16" r="16" fill="#FFCB33"/>
<path d="M18.3614 13.0637C17.012 11.7337 14.8916 11.7337 13.6386 13.0637C13.253 13.4437 12.6747 13.4437 12.2892 13.0637C11.9036 12.6837 11.9036 12.0187 12.2892 11.6387C14.3133 9.45375 17.6867 9.45375 19.7108 11.6387C20.0964 12.0187 20.0964 12.6837 19.7108 13.0637C19.3253 13.4437 18.747 13.4437 18.3614 13.0637Z" fill="white"/>
<path d="M13.6386 18.285C14.988 19.615 17.1084 19.615 18.3614 18.285C18.747 17.905 19.3253 17.905 19.7108 18.285C20.0964 18.665 20.0964 19.33 19.7108 19.71C17.6867 21.895 14.3133 21.895 12.2892 19.71C11.9036 19.33 11.9036 18.665 12.2892 18.285C12.6747 17.905 13.253 17.905 13.6386 18.285Z" fill="white"/>
<path d="M16 18C17.1046 18 18 17.1046 18 16C18 14.8954 17.1046 14 16 14C14.8954 14 14 14.8954 14 16C14 17.1046 14.8954 18 16 18Z" fill="white"/>
</g>
<defs>
<clipPath id="clip0_2_2063">
<rect width="32" height="32" fill="white"/>
</clipPath>
</defs>
</svg>
