<svg width="32" height="32" viewBox="0 0 32 32" fill="none" xmlns="http://www.w3.org/2000/svg">
<g clip-path="url(#clip0_1_1882)">
<circle cx="16" cy="16" r="16" fill="#FC4A4A"/>
<path fill-rule="evenodd" clip-rule="evenodd" d="M24.9296 24.5985C24.8738 21.7196 25.0742 20.3217 26.6897 17.4739C28.2929 14.6481 29.0218 11.5693 26.9962 8.67514C25.5397 6.59403 22.9715 5.56299 20.4223 5.51569C18.2062 5.47456 15.8398 6.33501 14.3224 7.88742C13.2662 8.96803 12.8142 10.0052 12.8062 11.498C12.8034 12.0317 12.9066 12.4217 13.0039 12.789C13.0568 12.9888 13.1079 13.182 13.1392 13.3878C13.2089 13.8468 13.1959 13.9781 12.9146 14.359C12.8142 14.495 12.689 14.649 12.5483 14.8221C12.2668 15.1683 11.9231 15.5911 11.5905 16.1002C10.9469 17.0972 10.8858 17.6237 11.4448 17.8484C11.5828 17.9039 11.8057 17.9285 12.0471 17.9552C12.5742 18.0134 13.1895 18.0814 13.2017 18.501C13.2118 18.8503 13.1845 19.5972 13.1582 20.3165C13.1372 20.8926 13.1168 21.4511 13.1168 21.7733C13.1169 23.1673 14.2954 23.1817 15.6714 23.0628C16.1268 23.0024 16.5253 22.9379 16.8837 22.8665C17.59 22.6936 18.1865 22.5292 18.858 22.2212C19.0689 22.1249 19.318 22.2177 19.4143 22.4285C19.5107 22.6394 19.4179 22.8885 19.207 22.9848C18.7246 23.2061 18.2503 23.3849 17.6922 23.5348C17.5988 23.5599 17.503 23.5842 17.4041 23.6078C17.4549 23.886 17.4509 24.1903 17.4475 24.4487C17.4468 24.5007 17.4461 24.5508 17.446 24.5985V24.9999H19.4872V25L22.9457 25L24.2337 25L24.9296 25V24.5985ZM6.06263 21.8664H10.8511C11.0838 21.8664 11.2724 22.0547 11.2724 22.2876C11.2724 22.5206 11.0839 22.7092 10.8511 22.7092H6.06263C5.69825 22.7092 5.40159 23.0053 5.40159 23.3702C5.40159 23.7351 5.69825 24.0317 6.06263 24.0317C6.34122 24.0317 6.59157 23.8552 6.68512 23.5928C6.76371 23.3738 7.00442 23.2595 7.22412 23.3379C7.44313 23.4165 7.55696 23.6576 7.47905 23.8768C7.26562 24.473 6.69618 24.8743 6.06263 24.8743C5.23299 24.8743 4.55868 24.1993 4.55868 23.3702C4.55868 22.5411 5.23299 21.8664 6.06263 21.8664ZM11.2582 19.8867H7.1281C6.4492 19.8867 5.89666 19.3335 5.89666 18.6547C5.89666 17.9758 6.4492 17.4233 7.1281 17.4233C7.51682 17.4233 7.88705 17.6099 8.11881 17.9227C8.2575 18.1099 8.21794 18.3737 8.03101 18.5119C7.84386 18.6505 7.58003 18.611 7.4416 18.4241C7.36733 18.3235 7.25303 18.2659 7.1281 18.2659C6.91372 18.2659 6.73932 18.4402 6.73932 18.6546C6.73932 18.869 6.91367 19.0438 7.1281 19.0438H11.2582C11.491 19.0438 11.6795 19.2327 11.6795 19.4651C11.6795 19.6976 11.491 19.8867 11.2582 19.8867ZM3.58644 20.4548H11.9561C12.1889 20.4548 12.3774 20.6432 12.3774 20.8761C12.3774 21.1091 12.1889 21.2974 11.9561 21.2974H3.58644C2.71145 21.2974 2 20.5858 2 19.7111C2 18.8364 2.71145 18.125 3.58644 18.125C4.08736 18.125 4.56463 18.3655 4.8627 18.7684C5.00065 18.9553 4.96183 19.2191 4.77421 19.3578C4.58707 19.4962 4.32323 19.4569 4.18481 19.2698C4.04322 19.0776 3.82495 18.9674 3.58644 18.9674C3.17623 18.9674 2.84266 19.3007 2.84266 19.7111C2.84266 20.1215 3.17623 20.4548 3.58644 20.4548Z" fill="white"/>
<path d="M19.9863 9.23054L15.2111 14.4397C15.0748 14.5884 15 14.7866 15 14.9979C15 15.2094 15.0749 15.4075 15.2111 15.5562L15.6448 16.0292C15.7809 16.1777 15.9626 16.2596 16.1565 16.2596C16.3502 16.2596 16.5381 16.1777 16.6742 16.0292L19.466 12.9902L19.466 26.2207C19.466 26.656 19.7784 27 20.1775 27L20.7906 27C21.1897 27 21.5336 26.656 21.5336 26.2207L21.5336 12.9557L24.341 16.029C24.4773 16.1776 24.6541 16.2595 24.8479 16.2595C25.0416 16.2595 25.221 16.1776 25.3572 16.029L25.7894 15.5561C25.9257 15.4074 26 15.2093 26 14.9978C26 14.7864 25.9248 14.5883 25.7884 14.4396L21.0134 9.23043C20.8767 9.08138 20.6941 8.99941 20.5001 8.99999C20.3054 8.99952 20.1228 9.08138 19.9863 9.23054Z" fill="#FC4A4A"/>
</g>
<defs>
<clipPath id="clip0_1_1882">
<rect width="32" height="32" fill="white"/>
</clipPath>
</defs>
</svg>
