<svg width="32" height="32" viewBox="0 0 32 32" fill="none" xmlns="http://www.w3.org/2000/svg">
<g clip-path="url(#clip0_2_2145)">
<circle cx="16" cy="16" r="16" fill="#FFCB33"/>
<path d="M23.921 13.7867L19.9888 7.26559C19.8894 7.10078 19.711 7 19.5185 7C19.3261 7 19.1476 7.10076 19.0482 7.26559L15.1161 13.7867C15.0138 13.9564 15.0108 14.1679 15.1082 14.3403C15.2056 14.5128 15.3883 14.6194 15.5864 14.6194H23.4507C23.6487 14.6194 23.8314 14.5128 23.9288 14.3403C24.0262 14.1679 24.0232 13.9564 23.921 13.7867ZM19.5215 9.25574C19.7473 9.25574 19.9384 9.38314 19.9384 9.60896C19.9384 10.298 19.8573 11.2882 19.8573 11.9773C19.8573 12.1568 19.6604 12.232 19.5215 12.232C19.3362 12.232 19.1798 12.1568 19.1798 11.9773C19.1798 11.2882 19.0988 10.298 19.0988 9.60896C19.0988 9.38314 19.2841 9.25574 19.5215 9.25574ZM19.5273 13.5233C19.2725 13.5233 19.0814 13.3149 19.0814 13.0775C19.0814 12.8343 19.2725 12.6316 19.5273 12.6316C19.7647 12.6316 19.9673 12.8343 19.9673 13.0775C19.9673 13.3149 19.7647 13.5233 19.5273 13.5233Z" fill="white"/>
<path d="M23.9999 16.0117H14.0415V7.04907H8L9.12059 16.0117H11.0539C11.0539 19.3599 13.9916 20.548 14.0415 20.5829V23.049H12.0498V24.0448C12.2357 24.0448 23.2138 24.0448 23.0041 24.0448V23.049H21.0124V20.5829C21.112 20.4932 23.9999 19.3986 23.9999 16.0117ZM11.0539 9.04076H12.0498V11.0325H11.0539V9.04076Z" fill="white"/>
</g>
<defs>
<clipPath id="clip0_2_2145">
<rect width="32" height="32" fill="white"/>
</clipPath>
</defs>
</svg>
