<svg width="32" height="32" viewBox="0 0 32 32" fill="none" xmlns="http://www.w3.org/2000/svg">
<g clip-path="url(#clip0_2_2050)">
<circle cx="16" cy="16" r="16" fill="#428EFF"/>
<path d="M8.05728 16.9887V12.747C8.05728 12.4029 8.3374 12.1228 8.68149 12.1228H21L20.6973 11.8824H8.68149C8.20475 11.8824 7.81696 12.2702 7.81696 12.747V16.9887H8.05728Z" fill="white"/>
<path d="M19.7526 12.1228H23.3185C23.6626 12.1228 23.9427 12.4029 23.9427 12.747V16.9887H24.183V12.747C24.183 12.2702 23.7952 11.8824 23.3185 11.8824H20.0552L19.7526 12.1228Z" fill="white"/>
<path d="M7.23035 22.0614H8.33863V23.6586H7.23035V22.0614Z" fill="white"/>
<path d="M23.6617 22.0614H24.77V23.6586H23.6617V22.0614Z" fill="white"/>
<path d="M25 18.02C25 17.6265 24.6811 17.3075 24.2875 17.3075H7.71248C7.31894 17.3075 7 17.6265 7 18.02V21.7408H25V18.02Z" fill="white"/>
<path d="M20 7.37402L20 8.62585C20 8.7986 19.865 8.93881 19.6987 8.93881L13.9734 8.93881L13.9734 10.9079C13.9734 10.9899 13.8782 11.0306 13.8227 10.973L11.0276 8.07004C10.9908 8.03186 10.9908 7.96926 11.0276 7.93108L13.8227 5.02683C13.8782 4.96925 13.9734 5.01056 13.9734 5.09193L13.9734 7.06106L19.6987 7.06106C19.865 7.06106 20 7.20126 20 7.37402Z" fill="white"/>
</g>
<defs>
<clipPath id="clip0_2_2050">
<rect width="32" height="32" fill="white"/>
</clipPath>
</defs>
</svg>
