<svg width="32" height="32" viewBox="0 0 32 32" fill="none" xmlns="http://www.w3.org/2000/svg">
<g clip-path="url(#clip0_1_1959)">
<circle cx="16" cy="16" r="16" fill="#428EFF"/>
<path d="M15.3833 7.4635C15.5756 7.4635 15.7317 7.61921 15.7317 7.81106V8.50618C15.7317 8.69804 15.5756 8.85374 15.3833 8.85374H12.2474V11.2867C12.2474 11.4785 12.0913 11.6342 11.8989 11.6342H11.2021C11.0097 11.6342 10.8536 11.4785 10.8536 11.2867V8.85374C10.8536 8.08564 11.4773 7.4635 12.2474 7.4635H15.3833Z" fill="white"/>
<path d="M12.2474 21.7134V24.1463H15.3833C15.5756 24.1463 15.7317 24.302 15.7317 24.4939V25.189C15.7317 25.3809 15.5756 25.5366 15.3833 25.5366H12.2474C11.4773 25.5366 10.8536 24.9144 10.8536 24.1463V21.7134C10.8536 21.5216 11.0097 21.3658 11.2021 21.3658H11.8989C12.0913 21.3658 12.2474 21.5216 12.2474 21.7134Z" fill="white"/>
<path d="M15.7317 15.7748L15.7317 17.225C15.7317 17.4252 15.5707 17.5876 15.3724 17.5876L8.54548 17.5876L8.54548 19.8689C8.54548 19.9639 8.43194 20.0111 8.36582 19.9443L5.03286 16.5811C4.98902 16.5369 4.98902 16.4644 5.03286 16.4201L8.36582 13.0554C8.43194 12.9887 8.54548 13.0366 8.54548 13.1309L8.54548 15.4122L15.3724 15.4122C15.5707 15.4122 15.7317 15.5746 15.7317 15.7748Z" fill="white"/>
<path d="M24.4465 8.93711L17.6974 7.01604C17.4477 6.94479 17.1951 7.11986 17.1951 7.36415V25.631C17.1951 25.8787 17.4505 26.0558 17.7038 25.9838L24.4465 24.0641C24.775 23.9705 24.9999 23.6868 24.9999 23.3652V9.63605C24.9999 9.31441 24.775 9.03076 24.4465 8.93711ZM20.0332 17.1792C20.0332 17.5545 19.716 17.8578 19.3237 17.8578C18.9313 17.8578 18.6141 17.5545 18.6141 17.1792V15.822C18.6141 15.4475 18.9313 15.1434 19.3237 15.1434C19.716 15.1434 20.0332 15.4475 20.0332 15.822V17.1792Z" fill="white"/>
</g>
<defs>
<clipPath id="clip0_1_1959">
<rect width="32" height="32" fill="white"/>
</clipPath>
</defs>
</svg>
