<svg width="32" height="32" viewBox="0 0 32 32" fill="none" xmlns="http://www.w3.org/2000/svg">
<g clip-path="url(#clip0_1_1849)">
<circle cx="16" cy="16" r="16" fill="#FC4A4A"/>
<path d="M16 26C15.8887 26 15.7775 25.9728 15.6778 25.9183C15.5695 25.8592 12.9969 24.4462 10.3874 22.3171C8.84082 21.0552 7.60624 19.8036 6.71808 18.5971C5.56876 17.036 4.99079 15.5343 5.00011 14.1338C5.01103 12.5042 5.62801 10.9716 6.73755 9.8184C7.86582 8.64575 9.37152 8 10.9774 8C13.0355 8 14.9171 9.09062 16 10.8183C17.083 9.09066 18.9646 8 21.0227 8C22.5398 8 23.9873 8.58267 25.0986 9.64068C26.3183 10.8017 27.0112 12.4423 26.9999 14.1415C26.9905 15.5396 26.4017 17.039 25.2498 18.598C24.3589 19.8038 23.1261 21.0549 21.5855 22.3164C18.9856 24.4453 16.4315 25.8583 16.324 25.9174C16.2239 25.9724 16.1119 26 16 26Z" fill="white"/>
<path d="M15.4396 14.2305L10.2303 19.4397C10.0816 19.5884 10 19.7866 10 19.9979C10 20.2094 10.0817 20.4075 10.2303 20.5562L10.7034 21.0292C10.8518 21.1777 11.0502 21.2596 11.2616 21.2596C11.4729 21.2596 11.6779 21.1777 11.8264 21.0292L14.872 17.9902L14.872 27.6451C14.872 28.0804 15.2128 28.4243 15.6482 28.4243L16.317 28.4243C16.7524 28.4243 17.1276 28.0804 17.1276 27.6451L17.1276 17.9557L20.1902 21.029C20.3389 21.1776 20.5318 21.2595 20.7432 21.2595C20.9544 21.2595 21.1501 21.1776 21.2987 21.029L21.7703 20.5561C21.919 20.4074 22 20.2093 22 19.9978C22 19.7864 21.9179 19.5883 21.7692 19.4396L16.5601 14.2304C16.4109 14.0814 16.2118 13.9994 16.0001 14C15.7877 13.9995 15.5885 14.0814 15.4396 14.2305Z" fill="#FC4A4A"/>
</g>
<defs>
<clipPath id="clip0_1_1849">
<rect width="32" height="32" fill="white"/>
</clipPath>
</defs>
</svg>
