<svg width="32" height="32" viewBox="0 0 32 32" fill="none" xmlns="http://www.w3.org/2000/svg">
<g clip-path="url(#clip0_2_2028)">
<circle cx="16" cy="16" r="16" fill="#428EFF"/>
<path d="M8.05728 16.9887V12.747C8.05728 12.4029 8.3374 12.1228 8.68149 12.1228H12.2475L11.9448 11.8824H8.68149C8.20475 11.8824 7.81696 12.2702 7.81696 12.747V16.9887H8.05728Z" fill="white"/>
<path d="M19.7525 12.1228H23.3185C23.6626 12.1228 23.9427 12.4029 23.9427 12.747V16.9887H24.183V12.747C24.183 12.2702 23.7952 11.8824 23.3185 11.8824H20.0552L19.7525 12.1228Z" fill="white"/>
<path d="M16.0001 11.5954C16.9929 11.5954 17.7978 10.7905 17.7978 9.79762C17.7978 8.80475 16.9929 7.99988 16.0001 7.99988C15.0072 7.99988 14.2023 8.80475 14.2023 9.79762C14.2023 10.7905 15.0072 11.5954 16.0001 11.5954Z" fill="white"/>
<path d="M11.1772 16.9886C11.4978 16.8218 11.7903 16.6819 11.9078 16.6475C12.127 16.5843 13.0868 16.6162 13.7008 16.6521C13.7086 16.6506 14.4436 16.564 14.7066 16.564C14.7175 16.564 14.7277 16.564 14.7378 16.5647C14.7682 16.5655 17.8347 16.6709 19.3921 16.5991C19.4249 16.5983 19.4584 16.5975 19.4912 16.5975C19.9997 16.5975 20.4801 16.7716 20.8834 16.9886H21.3403C20.812 16.6406 20.1006 16.3307 19.3812 16.3603C19.0341 16.3755 18.6093 16.382 18.1609 16.3831V12.9782L22.8475 9.25713C23.1239 9.03768 23.1702 8.63555 22.9507 8.35904C22.7311 8.08263 22.329 8.0364 22.0526 8.25595L17.2731 12.0507H14.7267L9.94714 8.25595C9.67053 8.0364 9.2686 8.08263 9.04905 8.35904C8.8296 8.63555 8.87583 9.03768 9.15224 9.25713L13.839 12.9782V16.3974C13.7543 16.4062 13.6976 16.4126 13.6946 16.4134C13.5393 16.4032 12.1684 16.3213 11.8407 16.4173C11.8289 16.421 11.2258 16.6906 10.673 16.9886H11.1772Z" fill="white"/>
<path d="M7.23032 22.0614H8.3386V23.6586H7.23032V22.0614Z" fill="white"/>
<path d="M23.6617 22.0614H24.77V23.6586H23.6617V22.0614Z" fill="white"/>
<path d="M25 18.02C25 17.6265 24.6811 17.3075 24.2875 17.3075H7.71245C7.3189 17.3075 6.99997 17.6265 6.99997 18.02V21.7408H25V18.02Z" fill="white"/>
</g>
<defs>
<clipPath id="clip0_2_2028">
<rect width="32" height="32" fill="white"/>
</clipPath>
</defs>
</svg>
