<svg width="32" height="32" viewBox="0 0 32 32" fill="none" xmlns="http://www.w3.org/2000/svg">
<g clip-path="url(#clip0_1_1966)">
<circle cx="16" cy="16" r="16" fill="#FC4A4A"/>
<path d="M23.47 13.6025C19.33 9.23255 12.67 9.23255 8.53 13.6025C8.17 13.9825 7.63 13.9825 7.27 13.6025C6.91 13.2225 6.91 12.6525 7.27 12.2725C12.13 7.14255 19.96 7.14255 24.73 12.2725C25.09 12.6525 25.09 13.2225 24.73 13.6025C24.37 13.9825 23.83 13.9825 23.47 13.6025Z" fill="white"/>
<path d="M20.86 16.2625C18.16 13.5075 13.84 13.5075 11.23 16.2625C10.87 16.6425 10.33 16.6425 9.96998 16.2625C9.60998 15.8825 9.60998 15.3125 9.96998 14.9325C13.3 11.3225 18.79 11.3225 22.12 14.9325C22.48 15.3125 22.48 15.8825 22.12 16.2625C21.76 16.6425 21.22 16.6425 20.86 16.2625Z" fill="white"/>
<path d="M18.34 19.1126C17.08 17.7826 15.1 17.7826 13.93 19.1126C13.57 19.4926 13.03 19.4926 12.67 19.1126C12.31 18.7326 12.31 18.0676 12.67 17.6876C14.56 15.5026 17.71 15.5026 19.6 17.6876C19.96 18.0676 19.96 18.7326 19.6 19.1126C19.24 19.4926 18.7 19.4926 18.34 19.1126Z" fill="white"/>
<path d="M16.09 23.3876C17.0344 23.3876 17.8 22.5795 17.8 21.5826C17.8 20.5857 17.0344 19.7776 16.09 19.7776C15.1456 19.7776 14.38 20.5857 14.38 21.5826C14.38 22.5795 15.1456 23.3876 16.09 23.3876Z" fill="white"/>
<rect x="6.29401" y="21.5816" width="24.4427" height="3" transform="rotate(-41.7866 6.29401 21.5816)" fill="white" stroke="#FC4A4A"/>
</g>
<defs>
<clipPath id="clip0_1_1966">
<rect width="32" height="32" fill="white"/>
</clipPath>
</defs>
</svg>
