<svg width="32" height="32" viewBox="0 0 32 32" fill="none" xmlns="http://www.w3.org/2000/svg">
<g clip-path="url(#clip0_2_2167)">
<circle cx="16" cy="16" r="16" fill="#FC4A4A"/>
<path d="M16 11.3448C17.1998 11.3448 18.1724 10.3722 18.1724 9.17239C18.1724 7.97261 17.1998 7 16 7C14.8002 7 13.8276 7.97261 13.8276 9.17239C13.8276 10.3722 14.8002 11.3448 16 11.3448Z" fill="white"/>
<path d="M10.7242 14.1375C11.924 14.1375 12.8966 13.1649 12.8966 11.9651C12.8966 10.7653 11.924 9.79272 10.7242 9.79272C9.5244 9.79272 8.55179 10.7653 8.55179 11.9651C8.55179 13.1649 9.5244 14.1375 10.7242 14.1375Z" fill="white"/>
<path d="M8.86223 19.1032C9.89061 19.1032 10.7243 18.2696 10.7243 17.2412C10.7243 16.2128 9.89061 15.3792 8.86223 15.3792C7.83385 15.3792 7.00018 16.2128 7.00018 17.2412C7.00018 18.2696 7.83385 19.1032 8.86223 19.1032Z" fill="white"/>
<path d="M11.6552 23.4481C12.6836 23.4481 13.5173 22.6144 13.5173 21.586C13.5173 20.5577 12.6836 19.724 11.6552 19.724C10.6268 19.724 9.79318 20.5577 9.79318 21.586C9.79318 22.6144 10.6268 23.4481 11.6552 23.4481Z" fill="white"/>
<path d="M16.6209 24.9994C17.4779 24.9994 18.1726 24.3047 18.1726 23.4477C18.1726 22.5907 17.4779 21.896 16.6209 21.896C15.7639 21.896 15.0692 22.5907 15.0692 23.4477C15.0692 24.3047 15.7639 24.9994 16.6209 24.9994Z" fill="white"/>
<path d="M21.2759 23.1378C22.1329 23.1378 22.8277 22.4431 22.8277 21.5861C22.8277 20.7291 22.1329 20.0344 21.2759 20.0344C20.419 20.0344 19.7242 20.7291 19.7242 21.5861C19.7242 22.4431 20.419 23.1378 21.2759 23.1378Z" fill="white"/>
<path d="M23.7586 18.7932C24.4442 18.7932 25 18.2374 25 17.5518C25 16.8662 24.4442 16.3104 23.7586 16.3104C23.073 16.3104 22.5172 16.8662 22.5172 17.5518C22.5172 18.2374 23.073 18.7932 23.7586 18.7932Z" fill="white"/>
<path d="M23.4483 14.4485C23.9625 14.4485 24.3793 14.0316 24.3793 13.5174C24.3793 13.0033 23.9625 12.5864 23.4483 12.5864C22.9341 12.5864 22.5172 13.0033 22.5172 13.5174C22.5172 14.0316 22.9341 14.4485 23.4483 14.4485Z" fill="white"/>
<path d="M20.9655 11.6549C21.3083 11.6549 21.5862 11.3771 21.5862 11.0343C21.5862 10.6915 21.3083 10.4136 20.9655 10.4136C20.6227 10.4136 20.3448 10.6915 20.3448 11.0343C20.3448 11.3771 20.6227 11.6549 20.9655 11.6549Z" fill="white"/>
<path d="M19.887 18.4924L17 13.7046C16.9271 13.5836 16.7961 13.5096 16.6548 13.5096C16.5135 13.5096 16.3825 13.5836 16.3095 13.7046L13.4226 18.4924C13.3475 18.6169 13.3453 18.7722 13.4168 18.8988C13.4883 19.0254 13.6224 19.1037 13.7678 19.1037H19.5417C19.6871 19.1037 19.8212 19.0254 19.8927 18.8988C19.9643 18.7722 19.962 18.6169 19.887 18.4924ZM16.6569 15.1658C16.8227 15.1658 16.963 15.2593 16.963 15.4251C16.963 15.931 16.9035 16.658 16.9035 17.1639C16.9035 17.2957 16.759 17.3509 16.6569 17.3509C16.5209 17.3509 16.4061 17.2956 16.4061 17.1639C16.4061 16.658 16.3466 15.931 16.3466 15.4251C16.3466 15.2593 16.4826 15.1658 16.6569 15.1658ZM16.6612 18.299C16.4741 18.299 16.3338 18.1459 16.3338 17.9716C16.3338 17.7931 16.4741 17.6443 16.6612 17.6443C16.8355 17.6443 16.9843 17.7931 16.9843 17.9716C16.9843 18.1459 16.8355 18.299 16.6612 18.299Z" fill="white"/>
</g>
<defs>
<clipPath id="clip0_2_2167">
<rect width="32" height="32" fill="white"/>
</clipPath>
</defs>
</svg>
