<svg width="32" height="32" viewBox="0 0 32 32" fill="none" xmlns="http://www.w3.org/2000/svg">
<g clip-path="url(#clip0_1_1904)">
<circle cx="16" cy="16" r="16" fill="#FFCB33"/>
<path fill-rule="evenodd" clip-rule="evenodd" d="M24.9296 24.5985C24.8738 21.7196 25.0741 20.3217 26.6897 17.4739C28.2929 14.6481 29.0217 11.5693 26.9962 8.67514C25.5397 6.59403 22.9714 5.56299 20.4223 5.51569C18.2062 5.47456 15.8398 6.33501 14.3224 7.88742C13.2662 8.96803 12.8142 10.0052 12.8062 11.498C12.8034 12.0317 12.9066 12.4217 13.0039 12.789C13.0568 12.9888 13.1079 13.182 13.1392 13.3878C13.2089 13.8468 13.1958 13.9781 12.9146 14.359C12.8141 14.495 12.689 14.649 12.5483 14.8221C12.2668 15.1683 11.9231 15.5911 11.5904 16.1002C10.9468 17.0972 10.8857 17.6237 11.4448 17.8484C11.5827 17.9039 11.8057 17.9285 12.0471 17.9552C12.5742 18.0134 13.1895 18.0814 13.2016 18.501C13.2118 18.8503 13.1845 19.5972 13.1582 20.3165C13.1371 20.8926 13.1167 21.4511 13.1167 21.7733C13.1168 23.1673 14.2954 23.1817 15.6714 23.0628C16.1268 23.0024 16.5253 22.9379 16.8837 22.8665C17.5899 22.6936 18.1865 22.5292 18.858 22.2212C19.0689 22.1249 19.318 22.2177 19.4143 22.4285C19.5107 22.6394 19.4178 22.8885 19.2069 22.9848C18.7246 23.2061 18.2503 23.3849 17.6921 23.5348C17.5988 23.5599 17.5029 23.5842 17.4041 23.6078C17.4549 23.886 17.4509 24.1903 17.4475 24.4487C17.4468 24.5007 17.4461 24.5508 17.4459 24.5985V24.9999H19.4872V25L22.9456 25L24.2337 25L24.9296 25V24.5985Z" fill="white"/>
<path d="M4.41076 15.6676H3.5452C3.41055 15.6676 3.33361 15.5181 3.41055 15.4075L4.53258 13.7428C4.55182 13.7168 4.55823 13.6842 4.55823 13.6452V13.2941C4.55823 13.203 4.48129 13.125 4.39153 13.125H2.30776C2.21799 13.125 2.14106 13.203 2.14106 13.2941V13.7948C2.14106 13.8858 2.21799 13.9639 2.30776 13.9639H3.02586C3.1605 13.9639 3.23744 14.1134 3.1605 14.224L2.03206 15.8952C2.01282 15.9212 2 15.9538 2 15.9928V16.3309C2 16.422 2.07694 16.5 2.1667 16.5H4.40435C4.49412 16.5 4.57105 16.422 4.57105 16.3309V15.8302C4.57747 15.7457 4.50053 15.6676 4.41076 15.6676Z" fill="white"/>
<path d="M10.8393 14.5426H9.97377C9.83913 14.5426 9.76219 14.3931 9.83913 14.2825L10.9611 12.6178C10.9804 12.5918 10.9868 12.5592 10.9868 12.5202V12.1691C10.9868 12.078 10.9099 12 10.8201 12H8.73634C8.64658 12 8.56964 12.078 8.56964 12.1691V12.6698C8.56964 12.7608 8.64658 12.8389 8.73634 12.8389H9.45443C9.58908 12.8389 9.66601 12.9884 9.58908 13.099L8.46065 14.7702C8.44141 14.7962 8.42859 14.8288 8.42859 14.8678V15.2059C8.42859 15.297 8.50553 15.375 8.59529 15.375H10.8329C10.9227 15.375 10.9996 15.297 10.9996 15.2059V14.7052C11.006 14.6207 10.9355 14.5426 10.8393 14.5426Z" fill="white"/>
<path d="M9.54759 21.0065H8.68189C8.54723 21.0065 8.47028 20.8071 8.54723 20.6597L9.66942 18.44C9.68866 18.4053 9.69507 18.362 9.69507 18.31V17.8504C9.69507 17.729 9.61812 17.625 9.52835 17.625H7.44427C7.3545 17.625 7.27755 17.729 7.27755 17.8504V18.5181C7.27755 18.6395 7.3545 18.7435 7.44427 18.7435H8.16248C8.29714 18.7435 8.37409 18.9429 8.29714 19.0903L7.17495 21.3186C7.15571 21.3533 7.14288 21.3967 7.14288 21.4487V21.8996C7.14288 22.021 7.21983 22.125 7.30961 22.125H9.54759C9.63736 22.125 9.71431 22.021 9.71431 21.8996V21.2319C9.71431 21.1106 9.63736 21.0065 9.54759 21.0065Z" fill="white"/>
</g>
<defs>
<clipPath id="clip0_1_1904">
<rect width="32" height="32" fill="white"/>
</clipPath>
</defs>
</svg>
