<svg width="32" height="32" viewBox="0 0 32 32" fill="none" xmlns="http://www.w3.org/2000/svg">
<g clip-path="url(#clip0_2_2102)">
<circle cx="16" cy="16" r="16" fill="#FFCB33"/>
<path fill-rule="evenodd" clip-rule="evenodd" d="M18.0055 7.58055L23.7559 13.331C24.0814 13.6565 24.0814 14.1841 23.7559 14.5096L14.5096 23.7561C14.1842 24.0815 13.6565 24.0815 13.3309 23.7561L7.58041 18.0056C7.25497 17.68 7.25497 17.1523 7.58041 16.8269L16.8269 7.58055C17.1523 7.25512 17.68 7.25512 18.0055 7.58055ZM17.4162 9.34856L9.34842 17.4161L13.9204 21.9881L21.9879 13.9203L17.4162 9.34856ZM21.9881 18.5637C21.7543 18.1674 21.8861 17.656 22.2822 17.4223C22.6784 17.1885 23.1899 17.3203 23.4237 17.7166C24.3664 19.3144 24.1522 21.4082 22.7802 22.7804C21.4083 24.1523 19.3142 24.3666 17.7164 23.4236C17.3204 23.1898 17.1886 22.6786 17.4222 22.2823C17.656 21.8861 18.1675 21.7542 18.5635 21.9881C19.5222 22.5537 20.7784 22.4247 21.6015 21.6016C22.4248 20.7785 22.5538 19.5222 21.9881 18.5637ZM13.6151 7.90799C14.0112 8.14182 14.143 8.65328 13.9094 9.04933C13.6755 9.44558 13.1641 9.57739 12.768 9.34356C11.8093 8.7779 10.5532 8.90691 9.73007 9.73001C8.90677 10.5531 8.77775 11.8095 9.34342 12.768C9.57725 13.1642 9.44543 13.6757 9.04938 13.9093C8.65314 14.1431 8.14168 14.0113 7.90785 13.6151C6.96514 12.0173 7.17936 9.92343 8.55133 8.55147C9.92329 7.17931 12.0173 6.96508 13.6151 7.90799Z" fill="white"/>
</g>
<defs>
<clipPath id="clip0_2_2102">
<rect width="32" height="32" fill="white"/>
</clipPath>
</defs>
</svg>
