<svg width="32" height="32" viewBox="0 0 32 32" fill="none" xmlns="http://www.w3.org/2000/svg">
<g clip-path="url(#clip0_2_2081)">
<circle cx="16" cy="16" r="16" fill="#428EFF"/>
<path d="M18.1424 13.0637C16.8539 11.7337 14.8291 11.7337 13.6326 13.0637C13.2644 13.4437 12.7122 13.4437 12.344 13.0637C11.9759 12.6837 11.9759 12.0187 12.344 11.6387C14.2768 9.45375 17.4982 9.45375 19.431 11.6387C19.7991 12.0187 19.7991 12.6837 19.431 13.0637C19.0628 13.4437 18.5106 13.4437 18.1424 13.0637Z" fill="white"/>
<path d="M13.6325 18.285C14.9211 19.615 16.9459 19.615 18.1424 18.285C18.5105 17.905 19.0628 17.905 19.4309 18.285C19.7991 18.665 19.7991 19.33 19.4309 19.71C17.4981 21.895 14.2768 21.895 12.344 19.71C11.9758 19.33 11.9758 18.665 12.344 18.285C12.7121 17.905 13.2644 17.905 13.6325 18.285Z" fill="white"/>
<path d="M15.8619 17.61C16.8277 17.61 17.6107 16.8019 17.6107 15.805C17.6107 14.8081 16.8277 14 15.8619 14C14.8961 14 14.1132 14.8081 14.1132 15.805C14.1132 16.8019 14.8961 17.61 15.8619 17.61Z" fill="white"/>
<path d="M21.3121 10.0375C18.3333 7.2825 13.5674 7.2825 10.6879 10.0375C10.2908 10.4175 9.69504 10.4175 9.29787 10.0375C8.90071 9.6575 8.90071 9.0875 9.29787 8.7075C12.9716 5.0975 19.0284 5.0975 22.7021 8.7075C23.0993 9.0875 23.0993 9.6575 22.7021 10.0375C22.305 10.4175 21.7092 10.4175 21.3121 10.0375Z" fill="white"/>
<path d="M10.6879 21.285C13.6667 24.04 18.4326 24.04 21.3121 21.285C21.7092 20.905 22.305 20.905 22.7021 21.285C23.0993 21.665 23.0993 22.235 22.7021 22.615C19.0284 26.225 12.9716 26.225 9.29788 22.615C8.90071 22.235 8.90071 21.665 9.29788 21.285C9.69504 20.905 10.2908 20.905 10.6879 21.285Z" fill="white"/>
</g>
<defs>
<clipPath id="clip0_2_2081">
<rect width="32" height="32" fill="white"/>
</clipPath>
</defs>
</svg>
