<svg width="32" height="32" viewBox="0 0 32 32" fill="none" xmlns="http://www.w3.org/2000/svg">
<g clip-path="url(#clip0_1_1944)">
<circle cx="16" cy="16" r="16" fill="#428EFF"/>
<path d="M15.3833 7.4635C15.5756 7.4635 15.7317 7.61921 15.7317 7.81106V8.50618C15.7317 8.69804 15.5756 8.85374 15.3833 8.85374H12.2474V11.2867C12.2474 11.4785 12.0913 11.6342 11.899 11.6342H11.2021C11.0098 11.6342 10.8537 11.4785 10.8537 11.2867V8.85374C10.8537 8.08564 11.4774 7.4635 12.2474 7.4635H15.3833Z" fill="white"/>
<path d="M12.2474 21.7134V24.1463H15.3833C15.5756 24.1463 15.7317 24.302 15.7317 24.4939V25.189C15.7317 25.3809 15.5756 25.5366 15.3833 25.5366H12.2474C11.4774 25.5366 10.8537 24.9144 10.8537 24.1463V21.7134C10.8537 21.5216 11.0098 21.3658 11.2021 21.3658H11.899C12.0913 21.3658 12.2474 21.5216 12.2474 21.7134Z" fill="white"/>
<path d="M5 17.2252V15.775C5 15.5748 5.16097 15.4124 5.35931 15.4124H12.1862V13.1311C12.1862 13.0361 12.2998 12.9889 12.3659 13.0557L15.6988 16.4189C15.7427 16.4631 15.7427 16.5356 15.6988 16.5799L12.3659 19.9446C12.2998 20.0113 12.1862 19.9634 12.1862 19.8691V17.5878H5.35931C5.16097 17.5878 5 17.4254 5 17.2252Z" fill="white"/>
<path d="M24.4465 8.93711L17.6974 7.01604C17.4477 6.94479 17.1951 7.11986 17.1951 7.36415V25.631C17.1951 25.8787 17.4505 26.0558 17.7038 25.9838L24.4465 24.0641C24.7751 23.9705 25 23.6868 25 23.3652V9.63605C25 9.31441 24.7751 9.03076 24.4465 8.93711ZM20.0332 17.1792C20.0332 17.5545 19.7161 17.8578 19.3237 17.8578C18.9313 17.8578 18.6142 17.5545 18.6142 17.1792V15.822C18.6142 15.4475 18.9313 15.1434 19.3237 15.1434C19.7161 15.1434 20.0332 15.4475 20.0332 15.822V17.1792Z" fill="white"/>
</g>
<defs>
<clipPath id="clip0_1_1944">
<rect width="32" height="32" fill="white"/>
</clipPath>
</defs>
</svg>
