<svg width="32" height="32" viewBox="0 0 32 32" fill="none" xmlns="http://www.w3.org/2000/svg">
<g clip-path="url(#clip0_2_2119)">
<circle cx="16" cy="16" r="16" fill="#FC4A4A"/>
<path d="M9.30702 23.2935V18.0794C9.30702 17.7185 9.01443 17.4259 8.65353 17.4259C8.29259 17.4259 8 17.7185 8 18.0794V26.6167C8 26.9776 8.29259 27.2702 8.65353 27.2702C9.01443 27.2702 9.30702 26.9776 9.30702 26.6167V25.3924L22.6929 25.3609V26.5852C22.6929 26.9462 22.9855 27.2388 23.3464 27.2388C23.7073 27.2388 23.9999 26.9462 23.9999 26.5852V25.3609V23.6514V23.2621L9.30702 23.2935Z" fill="white"/>
<path d="M23.9997 22.7328H14.065V20.2717C14.065 19.5576 14.6439 18.9786 15.3581 18.9786H21.3891C22.8309 18.9786 23.9997 20.1474 23.9997 21.5892V22.7328Z" fill="white"/>
<path d="M11.7396 22.4519C12.6207 22.4519 13.335 21.7376 13.335 20.8564C13.335 19.9753 12.6207 19.261 11.7396 19.261C10.8585 19.261 10.1442 19.9753 10.1442 20.8564C10.1442 21.7376 10.8585 22.4519 11.7396 22.4519Z" fill="white"/>
<path d="M11.5092 16.4061C11.5092 16.5962 11.6633 16.7503 11.8534 16.7503H20.1143C20.3043 16.7503 20.4585 16.5962 20.4585 16.4061V15.3506H11.5092V16.4061Z" fill="white"/>
<path d="M15.9833 7.75562C14.0854 7.75562 12.5413 9.2997 12.5413 11.1976V14.6626H19.4254V11.1976C19.4254 9.2997 17.8813 7.75562 15.9833 7.75562Z" fill="white"/>
<path d="M15.9601 7.06521C16.1502 7.06521 16.3043 6.9111 16.3043 6.72101V5.3442C16.3043 5.15411 16.1502 5 15.9601 5C15.77 5 15.6159 5.15411 15.6159 5.3442V6.72101C15.6159 6.9111 15.77 7.06521 15.9601 7.06521Z" fill="white"/>
<path d="M13.2508 7.55244C13.3461 7.71759 13.5568 7.77319 13.721 7.67842C13.8856 7.58338 13.942 7.37286 13.847 7.20824L13.1585 6.0159C13.0635 5.85126 12.853 5.79488 12.6884 5.88993C12.5237 5.98497 12.4673 6.19549 12.5624 6.36011L13.2508 7.55244Z" fill="white"/>
<path d="M12.0869 9.32867C12.182 9.16405 12.1256 8.95354 11.961 8.85849L10.7686 8.17009C10.604 8.07502 10.3934 8.13142 10.2984 8.29606C10.2033 8.46069 10.2597 8.6712 10.4244 8.76624L11.6168 9.45465C11.7807 9.5493 11.9915 9.49402 12.0869 9.32867Z" fill="white"/>
<path d="M18.246 7.67844C18.4099 7.7731 18.6207 7.7178 18.7161 7.55246L19.4045 6.36013C19.4996 6.19551 19.4432 5.98499 19.2786 5.88995C19.1139 5.79485 18.9034 5.85128 18.8084 6.01592L18.12 7.20826C18.0249 7.37288 18.0813 7.5834 18.246 7.67844Z" fill="white"/>
<path d="M21.6683 8.29604C21.5732 8.1314 21.3628 8.07504 21.1981 8.17007L20.0058 8.85847C19.8411 8.95352 19.7847 9.16403 19.8798 9.32865C19.9751 9.4938 20.1858 9.5494 20.35 9.45463L21.5423 8.76622C21.707 8.67118 21.7634 8.46069 21.6683 8.29604Z" fill="white"/>
</g>
<defs>
<clipPath id="clip0_2_2119">
<rect width="32" height="32" fill="white"/>
</clipPath>
</defs>
</svg>
