<svg width="32" height="32" viewBox="0 0 32 32" fill="none" xmlns="http://www.w3.org/2000/svg">
<g clip-path="url(#clip0_1_1876)">
<circle cx="16" cy="16" r="16" fill="#FC4A4A"/>
<path d="M16 26C15.8887 26 15.7775 25.9728 15.6778 25.9183C15.5695 25.8592 12.9969 24.4462 10.3874 22.3171C8.84082 21.0552 7.60624 19.8036 6.71808 18.5971C5.56876 17.036 4.99079 15.5343 5.00011 14.1338C5.01103 12.5042 5.62801 10.9716 6.73755 9.8184C7.86582 8.64575 9.37152 8 10.9774 8C13.0355 8 14.9171 9.09062 16 10.8183C17.083 9.09066 18.9646 8 21.0227 8C22.5398 8 23.9873 8.58267 25.0986 9.64068C26.3183 10.8017 27.0112 12.4423 26.9999 14.1415C26.9905 15.5396 26.4017 17.039 25.2498 18.598C24.3589 19.8038 23.1261 21.0549 21.5855 22.3164C18.9856 24.4453 16.4315 25.8583 16.324 25.9174C16.2239 25.9724 16.1119 26 16 26Z" fill="white"/>
<path d="M16.5604 20.1938L21.7697 14.9846C21.9184 14.8359 22 14.6378 22 14.4264C22 14.2149 21.9183 14.0168 21.7697 13.8681L21.2966 13.3952C21.1482 13.2466 20.9498 13.1647 20.7384 13.1647C20.5271 13.1647 20.3221 13.2466 20.1736 13.3952L17.128 16.4341L17.128 6.77926C17.128 6.34395 16.7872 6 16.3518 6L15.683 6C15.2476 6 14.8724 6.34395 14.8724 6.77926L14.8724 16.4686L11.8098 13.3953C11.6611 13.2467 11.4682 13.1648 11.2568 13.1648C11.0456 13.1648 10.8499 13.2467 10.7013 13.3953L10.2297 13.8682C10.081 14.0169 10 14.215 10 14.4266C10 14.6379 10.0821 14.8361 10.2308 14.9848L15.4399 20.1939C15.5891 20.3429 15.7882 20.4249 15.9999 20.4243C16.2123 20.4248 16.4115 20.3429 16.5604 20.1938Z" fill="#FC4A4A"/>
</g>
<defs>
<clipPath id="clip0_1_1876">
<rect width="32" height="32" fill="white"/>
</clipPath>
</defs>
</svg>
