<svg width="386" height="187" viewBox="0 0 386 187" fill="none" xmlns="http://www.w3.org/2000/svg">
<g clip-path="url(#clip0_2386_4931)">
<path opacity="0.9" fill-rule="evenodd" clip-rule="evenodd" d="M439.305 -39.7447L438.849 -38.6221L438.844 -38.6238C437.682 -38.9839 436.663 -39.2997 431.978 -49.5406L431.986 -49.4454C434.082 -41.3752 435.402 -36.349 436.23 -33.1934L436.23 -33.1932C437.591 -28.0088 437.626 -27.8735 437.605 -27.582L436.133 -19.4101L436 -18.6574C436.166 -22.0699 436.28 -24.4983 432.025 -48.9941C433.662 -29.9676 434.83 -13.5945 433.027 -5.22862L432.64 -3.67846L430.273 4.57326C431.952 -3.45219 433.171 -12.7774 432.162 -44.8962L432.151 -45.1858L432.151 -45.1862L432.151 -45.1868C432.102 -46.5234 432.053 -47.874 431.983 -49.2382L431.9 -49.71L431.876 -49.7644L431.874 -49.7607C431.866 -49.6664 431.857 -49.5722 431.849 -49.4781L431.851 -48.5901C431.886 -34.8613 431.89 -33.4377 431.65 -24.4349C431.239 -18.4037 430.538 -12.4532 429.606 -6.58443L429.877 -8.17551C428.664 3.29348 427.602 13.1949 424.508 21.652C424.11 22.6476 423.681 23.732 423.236 24.8548C422.072 27.7978 420.804 31.0049 419.705 33.5688L419.425 34.1738C421.673 28.5339 423.374 22.7044 424.499 16.7857C425.971 11.6795 427.226 6.27683 428.28 0.920522C430.259 -15.8238 431.446 -32.5871 431.834 -49.3027C428.409 -10.0739 424.753 12.8461 418.352 35.1144C416.178 40.3829 413.995 45.5014 411.502 50.518L412.074 49.4362L410.061 53.5443L408.538 56.3359L409.159 55.1033L408.197 56.9635L407.904 57.4616L407.886 57.4932L407.927 57.4183C411.844 48.9447 423.26 23.6103 431.839 -49.5367C431.841 -49.5895 431.842 -49.6423 431.843 -49.6951L431.804 -49.6127C420.569 14.8036 407.702 58.5157 393.539 80.3887L392.192 82.3628C391.495 83.2914 390.768 84.2665 390.022 85.2663L390.021 85.267L390.021 85.2675C388.22 87.6815 386.311 90.2398 384.463 92.6363L382.124 95.5066C405.991 62.3326 423.398 -9.24241 431.78 -49.5616L431.5 -48.9665C406.024 40.9867 382.786 96.8586 362.56 117.11C361.742 117.86 360.878 118.656 359.984 119.48C357.177 122.065 354.067 124.93 351.124 127.533C350.848 127.788 350.563 128.034 350.282 128.275L350.281 128.277C350.153 128.387 350.026 128.496 349.901 128.605L348.912 129.458C348.385 129.917 347.9 130.333 347.377 130.749C364.61 114.371 384.145 87.7208 431.251 -48.4378C423.416 -31.7623 416.073 -14.8582 408.729 2.04593L408.729 2.04775L408.728 2.04861C395.679 32.0873 382.629 62.126 366.824 90.8821C351.658 118.413 339.039 137.668 323.187 148.488L320.291 150.296L315.002 153.517L306.201 158.321C305.464 158.677 304.808 159.009 304.15 159.364C329.847 143.507 348.207 115.535 392.6 25.4369C409.026 -8.02835 422.062 -34.5679 431.57 -49.3615L431.779 -49.9651C419.681 -38.6231 407.989 -20.3847 377.631 34.6583C334.581 112.578 308.5 157.641 275.674 171.476C274.799 171.78 273.936 172.061 273.068 172.344C272.71 172.461 272.351 172.579 271.99 172.698L271.281 172.91L271.278 172.911L271.274 172.912C265.494 174.64 258.804 176.639 253.515 177.904C285.594 167.618 308.568 136.458 357.225 53.9186C390.451 -2.45748 414.486 -43.2231 431.797 -50.0259L431.798 -50.0313C409.864 -54.7375 374.042 1.67596 342.438 51.4716C297.461 122.328 261.841 178.382 223.23 182.455C222.858 182.478 222.49 182.509 222.12 182.541C221.502 182.593 220.883 182.646 220.251 182.657L211.588 183.02L202.664 182.895C201.963 182.757 201.231 182.77 200.519 182.782L200.518 182.782C237.258 180.563 263.453 149.969 322.92 60.233C357.885 7.42505 410.687 -72.274 431.698 -50.2034L431.718 -50.268C405.851 -91.7093 338.438 5.38489 302.187 57.5963L302.178 57.6099C247.171 136.915 211.327 185.018 169.227 178.99C168.716 178.861 168.191 178.728 167.653 178.593L167.649 178.592C163.268 177.485 158.094 176.178 153.455 174.845C152.062 174.419 150.651 173.972 149.24 173.525C191.261 182.62 228.862 134.808 285.676 55.1072L285.688 55.0904L285.688 55.0901C315.866 12.7572 407.506 -115.793 431.747 -50.3613L431.801 -50.5336C420.147 -95.2777 380.666 -112.987 258.543 53.4313C220.911 104.717 164.212 181.971 123.049 162.528C122.31 162.147 121.554 161.746 120.786 161.339L120.783 161.338L120.735 161.313C120.391 161.13 120.045 160.947 119.697 160.764L110.924 155.748C110.339 155.399 109.755 155.033 109.145 154.651L108.898 154.497L107.935 153.87C107.15 153.417 106.47 152.95 105.773 152.473L105.773 152.473L105.763 152.466C105.548 152.318 105.331 152.17 105.109 152.02L104.971 151.927C135.564 168.272 169.117 142.869 237.73 51.5171C392.27 -154.182 424.894 -89.383 431.798 -50.7975C428.759 -80.6234 403.963 -205.037 213.225 40.126C139.443 134.954 109.024 157.152 83.1793 134.915L82.9191 134.684C81.7475 133.508 80.4531 132.235 79.1154 130.921L79.11 130.915C76.1117 127.969 72.8969 124.809 70.3626 122.037L69.9047 121.531C97.4515 147.061 126.679 116.63 191.555 35.8256C414.014 -241.126 430.629 -74.0421 431.843 -50.6673L431.87 -50.7552L431.859 -52.5657C431.901 -51.8654 431.91 -51.2955 431.906 -50.8716C431.928 -50.9448 431.95 -51.018 431.973 -51.0913C440.649 -150.967 372.102 -253.377 208.72 -94.7726C184.246 -71.002 163.045 -43.9597 141.843 -16.9171L141.843 -16.9168C118.933 12.3048 96.0223 41.5267 68.9818 66.6215C56.5366 78.1768 43.7505 86.2005 34.6185 66.8274C34.1914 65.7734 33.7255 64.6419 33.2425 63.4688L33.2412 63.4658C31.9 60.2086 30.4268 56.6307 29.2847 53.4988L29.0886 52.9233C40.5988 77.7437 55.3852 58.5804 94.6032 7.50322C353.981 -329.909 446.136 -155.341 432.267 -52.7086C448.51 -150.451 378.28 -293.654 207.08 -152.97C148.548 -104.862 106.868 -48.64 73.3876 -3.47144C43.1424 37.3537 30.4452 54.3801 23.5324 35.2046L22.3092 30.4663L20.8189 23.6531L20.7324 23.2045C25.9627 36.8009 33.3729 26.436 64.3397 -16.8786L64.7176 -17.4071C333.297 -393.197 459.054 -166.465 432.742 -53.7759C454.458 -134.221 385.358 -308.902 223.049 -213.335C150.033 -170.251 95.5163 -97.8151 47.4825 -25.941C28.7485 2.01581 25.0977 7.20243 20.2821 9.87943C20.0735 9.68174 19.8183 9.4802 19.5511 9.26925L19.5506 9.26878C18.822 8.69362 18.005 8.04858 17.8038 7.22087L17.8268 6.89896C17.3776 3.77671 16.8892 -0.18105 16.58 -3.32717L16.6076 -3.71353C21.0435 -4.94757 21.0435 -4.9476 33.5829 -25.0357L33.5831 -25.036L33.5837 -25.037C69.7817 -83.0939 165.964 -237.306 291.154 -251.296C344.24 -257.142 388.41 -221.672 414.261 -176.239C416.592 -171.798 419.083 -166.825 420.989 -162.784C422.543 -159.359 424.631 -154.55 425.901 -151.035C427.172 -147.519 428.872 -142.811 430.04 -139.229C430.859 -136.714 431.778 -133.424 432.556 -130.639C432.702 -130.118 432.842 -129.616 432.976 -129.139C434.36 -124.168 435.814 -117.397 436.772 -112.268C437.228 -109.789 437.82 -106.455 438.155 -103.953L438.315 -102.862L438.344 -103.27C440.255 -84.1511 438.436 -66.0196 432.074 -51.0645L432.029 -50.8936L431.984 -50.7214C431.957 -50.5454 431.931 -50.3697 431.904 -50.1942L431.922 -50.0904C434.707 -54.6327 441.879 -66.4873 439.447 -94.3719L439.621 -92.9384C441.361 -71.9793 440.518 -58.1503 431.926 -50.0625L431.935 -50.0157L431.923 -50.0595L431.898 -50.0355L431.876 -50.0154L431.875 -50.014L431.876 -50.0161L431.88 -50.0216L431.917 -50.0832L431.898 -50.1581L431.876 -50.0161L431.892 -50.1838L431.886 -50.2051C431.883 -50.1418 431.88 -50.0924 431.877 -50.0572L431.874 -50.0167L431.874 -50.0154L431.874 -50.016L431.874 -50.0165L431.874 -50.0541L431.873 -50.0528L431.874 -50.0165L431.871 -50.0512L431.864 -50.0445L431.874 -50.0156L431.859 -50.0401L431.855 -50.036L431.874 -50.0149L431.84 -50.0222L431.783 -49.9692L431.644 -49.4752C431.679 -49.5305 431.715 -49.5855 431.75 -49.6404L431.818 -49.7454L431.839 -49.8451L431.792 -49.9486L431.846 -49.878L431.847 -49.8851C431.847 -49.8995 431.848 -49.914 431.848 -49.9285L431.848 -49.8901L431.874 -50.0149L431.849 -49.873L431.875 -49.8398L431.876 -49.8503L431.866 -49.9078L431.878 -49.8633L431.892 -49.9844L431.873 -49.9936L431.882 -49.9959L431.893 -49.9991L431.898 -50.0355L431.895 -49.9994C435.824 -51.0274 436.891 -51.3117 439.08 -56.5493C440.802 -60.5672 440.872 -67.6762 440.908 -71.3519L440.911 -71.6949L440.924 -69.3797C440.927 -66.9358 440.892 -63.6766 440.837 -61.2316L440.828 -61.1326C440.195 -54.1851 439.485 -46.3891 431.963 -49.9502L431.897 -49.8104L431.956 -49.7336L431.946 -49.9091L431.962 -49.7259C435.624 -44.9336 435.661 -44.9228 438.121 -44.205L438.121 -44.205L438.221 -44.2842C439.679 -45.4374 439.86 -45.58 440.047 -48.2042L439.728 -43.7396L439.305 -39.7447ZM431.846 -49.8296L431.843 -49.836L431.831 -49.7646L431.845 -49.7868C431.845 -49.8011 431.846 -49.8153 431.846 -49.8296ZM431.848 -49.7922L431.848 -49.8242L431.857 -49.8053L431.848 -49.7922ZM431.849 -49.7073L431.849 -49.6183C431.854 -49.6579 431.858 -49.6976 431.863 -49.7373L431.849 -49.7073ZM404.6 63.3283C405.733 61.4032 406.808 59.4793 407.886 57.4932L404.6 63.3283ZM431.954 -49.9547L431.882 -49.8446L431.881 -49.8483L431.893 -49.9836L431.954 -49.9547ZM431.874 -50.0559L431.873 -50.2568L431.867 -50.2803L431.863 -50.2652L431.873 -50.0553L431.874 -50.0559ZM431.871 -50.0546L431.854 -50.2315L431.829 -50.1397L431.861 -50.051L431.871 -50.0546ZM431.854 -50.0482L431.82 -50.1045L431.813 -50.0808L431.846 -50.0451L431.854 -50.0482ZM431.806 -50.0295L431.8 -50.031L431.799 -50.0264L431.806 -50.0295ZM431.813 -50.1143L431.808 -50.0861C431.772 -50.1248 431.736 -50.1633 431.7 -50.2014L431.725 -50.2578C431.754 -50.2101 431.784 -50.1623 431.813 -50.1143ZM431.822 -50.1595L431.847 -50.2984L431.838 -50.3915L431.818 -50.4704L431.758 -50.3334L431.798 -50.2249L431.822 -50.1595ZM431.918 -50.4713L431.896 -50.2365L431.89 -50.2756C431.891 -50.3085 431.893 -50.3443 431.894 -50.3829L431.918 -50.4713ZM431.872 -50.4335L431.867 -50.4062L431.852 -50.4933L431.849 -50.5426L431.871 -50.5926L431.872 -50.4335ZM431.922 -50.7102L431.901 -50.5945L431.902 -50.6658L431.922 -50.7102ZM431.965 -49.5687L431.94 -49.6242L431.968 -49.5155L431.965 -49.5687ZM428.533 -0.359741C428.72 -1.27422 428.894 -2.22173 429.053 -3.17249C429.072 -3.28486 429.091 -3.39741 429.11 -3.5102C428.934 -2.43525 428.739 -1.3599 428.527 -0.327198C428.529 -0.338056 428.531 -0.348882 428.533 -0.359741ZM34.3255 -121.011L33.649 -119.284C32.252 -115.606 30.6564 -111.149 29.3274 -107.436L28.8806 -106.189C27.78 -103.117 26.6193 -99.0332 25.6012 -95.451L25.5993 -95.4444C25.317 -94.451 25.0455 -93.4961 24.7895 -92.6123C40.4445 -145.835 70.5228 -191.523 113.986 -228.417L101.684 -218.044C100.268 -216.754 99.0196 -215.597 97.876 -214.526C94.0067 -210.708 89.4932 -206.171 85.0846 -201.443C82.6054 -198.697 79.6407 -195.306 75.602 -190.687L75.1282 -190.145C73.1103 -187.623 70.7847 -184.668 68.5931 -181.65C54.584 -163.126 43.0334 -142.686 34.3255 -121.011ZM165.969 -259.563C71.2266 -215.826 28.5936 -109.679 20.1967 -72.3171L20.1585 -71.7805C19.7999 -69.8019 19.3863 -67.3295 19.0735 -65.4376L18.4766 -61.504L18.4567 -61.2249C21.9062 -83.2587 73.8362 -235.23 202.866 -271.453C202.253 -271.319 201.643 -271.186 201.042 -271.055L201.037 -271.054L201.035 -271.054L201.033 -271.054L201.031 -271.053L201.028 -271.053L201.026 -271.052C199.763 -270.778 198.532 -270.51 197.365 -270.244C188.359 -267.559 176.544 -263.454 167.507 -260.061L165.969 -259.563ZM16.7438 -48.0312L16.5554 -45.391L16.1052 -39.0804C17.6272 -56.536 122.711 -307.825 297.127 -270.503C293.721 -271.4 289.469 -272.273 285.525 -273.082L285.525 -273.082C283.808 -273.434 282.15 -273.774 280.645 -274.1C275.481 -274.917 268.817 -275.581 263.047 -276.156C261.72 -276.288 260.44 -276.416 259.237 -276.539C100.421 -277.941 20.4326 -70.9266 16.7438 -48.0312ZM346.756 -248.953C173.671 -347.311 26.0605 -60.9029 15.7167 -26.7234L15.6662 -26.015L15.6595 -24.5357L15.609 -23.8274L15.7055 -18.255L15.658 -17.5896C29.9958 -36.3841 41.7219 -56.9848 53.4485 -77.5862C67.1498 -101.657 80.8517 -125.729 98.7206 -146.922C114.917 -166.174 152.876 -211.248 201.233 -238.064C297.945 -291.675 354.005 -246.398 377.93 -224.128L375.565 -226.424L371.825 -230.24C364.635 -236.119 354.727 -243.495 347.059 -248.765L346.756 -248.953ZM121.343 45.9969C82.2934 94.713 62.0555 112.169 44.6915 86.8496C46.564 89.9744 49.0164 93.833 51.264 97.3693L51.2645 97.3703L51.2671 97.3742L51.2684 97.3763C52.0718 98.6402 52.8488 99.8629 53.5639 100.996C54.0697 101.697 54.5868 102.42 55.1112 103.154L55.1126 103.156C56.1726 104.64 57.2624 106.166 58.3481 107.624C73.7829 127.296 83.6846 115.934 202.273 -20.2054C374.182 -217.548 423.726 -130.804 430.855 -67.5767C425.146 -124.955 385.675 -284.462 121.343 45.9969ZM431.859 -52.566C431.817 -57.6036 431.515 -62.6085 430.952 -67.5573C431.601 -60.8583 431.81 -55.4808 431.859 -52.566Z" fill="white" fill-opacity="0.1"/>
</g>
<defs>
<clipPath id="clip0_2386_4931">
<rect width="386" height="187" fill="white"/>
</clipPath>
</defs>
</svg>
