<svg width="32" height="28" viewBox="0 0 32 28" fill="none" xmlns="http://www.w3.org/2000/svg">
<g id="Group">
<g id="Group_2">
<path id="Vector" d="M1.37217 15.235L12.2865 26.7146C12.598 27.0423 13.0133 27.2222 13.456 27.2222C13.8993 27.2222 14.3143 27.042 14.6259 26.7146L15.6168 25.6721C15.9281 25.3449 16.0996 24.9079 16.0996 24.442C16.0996 23.9763 15.9281 23.5246 15.6168 23.1974L9.24954 16.4858L29.4786 16.4858C30.3907 16.4858 31.1113 15.7348 31.1113 14.7752L31.1113 13.3014C31.1113 12.3419 30.3907 11.5152 29.4786 11.5152L9.1773 11.5152L15.6166 4.76605C15.9279 4.43836 16.0994 4.01325 16.0994 3.5473C16.0994 3.08187 15.9279 2.65055 15.6166 2.32312L14.6256 1.28399C14.3141 0.956299 13.8991 0.777726 13.4558 0.777726C13.013 0.777726 12.5978 0.958624 12.2862 1.28631L1.37193 12.7657C1.05963 13.0944 0.887885 13.5332 0.889114 13.9997C0.888129 14.4677 1.05963 14.9068 1.37217 15.235Z" fill="#333951"/>
</g>
</g>
</svg>
