<svg width="112" height="23" viewBox="0 0 112 23" fill="none" xmlns="http://www.w3.org/2000/svg">
<path d="M60.0505 7.84027V15.4188H56.9716V7.84027C56.9716 5.32777 54.9043 3.29323 52.3538 3.29323C49.8032 3.29323 47.7361 5.32777 47.7361 7.84027V15.4188H44.6572V0.261719H47.7361V1.77888C49.022 0.825553 50.6227 0.261719 52.3538 0.261719C54.0865 0.261719 55.6853 0.825318 56.9716 1.77888C58.8414 3.16113 60.0505 5.36273 60.0505 7.84027Z" fill="#333951"/>
<path d="M78.5222 0.261909V11.6289C78.5222 12.9572 78.2894 14.2329 77.8654 15.4188C76.2795 19.8337 72.0041 22.9969 66.9778 22.9969C66.7187 22.9969 66.4618 22.9884 66.2083 22.9701C65.1347 22.9032 64.1019 22.6869 63.1291 22.3502V19.0559C64.0669 19.5284 65.1078 19.8337 66.2083 19.9301C66.4602 19.9524 66.7173 19.966 66.9778 19.966C70.7504 19.966 73.9465 17.5373 75.0408 14.1794C73.8293 14.9643 72.3818 15.4188 70.8264 15.4188C69.0946 15.4188 67.4947 14.8538 66.208 13.9014C64.3376 12.518 63.1289 10.318 63.1289 7.84022V0.261673H66.208V7.84022C66.208 10.3508 68.2749 12.3873 70.8264 12.3873C72.8029 12.3873 74.4915 11.1622 75.1473 9.43975C75.3392 8.94302 75.444 8.40312 75.444 7.84022V0.261673H78.5222V0.261909Z" fill="#333951"/>
<path d="M89.2986 0.261719C85.047 0.261719 81.6006 3.65504 81.6006 7.84026C81.6006 12.025 85.047 15.4188 89.2986 15.4188C93.5487 15.4188 96.9946 12.025 96.9946 7.84026C96.9946 3.65504 93.5487 0.261719 89.2986 0.261719ZM89.2986 12.3871C86.7468 12.3871 84.68 10.3507 84.68 7.84003C84.68 5.32754 86.7468 3.293 89.2986 3.293C91.848 3.293 93.9157 5.32754 93.9157 7.84003C93.9157 10.3509 91.848 12.3871 89.2986 12.3871Z" fill="#333951"/>
<path d="M3.09477 4.89646C3.09477 5.51965 3.45509 6.05885 3.98269 6.32376H6.17271C7.08685 6.32376 7.93878 6.58631 8.65608 7.0394C9.9403 7.84467 10.7911 9.26001 10.7911 10.8703C10.7911 13.3826 8.72424 15.4185 6.17271 15.4185H0.015625V12.387H6.04689C6.96698 12.387 7.71311 11.6714 7.71311 10.7877C7.71311 10.1603 7.3354 9.61643 6.7842 9.35551H4.63445C3.71936 9.35551 2.86742 9.09341 2.15036 8.6408C0.86709 7.83553 0.0158723 6.41902 0.0158723 4.80847C0.0158723 2.29715 2.08388 0.261673 4.63445 0.261673H10.7913V3.29319H4.7262C3.8247 3.29295 3.09477 4.01117 3.09477 4.89646Z" fill="#333951"/>
<path d="M111.985 0.261673V3.29319H107.367C106 3.29319 104.772 3.87838 103.927 4.80848C103.194 5.61352 102.749 6.67618 102.749 7.84022V15.4188H99.6689V0.261673H102.749V1.77884C103.644 1.11528 104.69 0.640379 105.828 0.414658C106.326 0.312826 106.841 0.261909 107.367 0.261909H111.985V0.261673Z" fill="#333951"/>
<path d="M41.578 0.261719V7.84026H38.4998C38.4903 6.15744 37.5631 4.69073 36.1871 3.90517C35.5082 3.51544 34.722 3.29324 33.8805 3.29324C31.3395 3.29324 29.276 5.32706 29.2629 7.84026V7.86514C29.2629 10.3905 31.3307 12.437 33.8805 12.437C34.7272 12.437 35.5222 12.2116 36.2035 11.8171C36.5874 12.7522 37.1046 13.622 37.7292 14.4024C36.5982 15.0483 35.2834 15.4186 33.8805 15.4186C31.3631 15.4186 29.1273 14.2264 27.7242 12.3854C26.7567 11.1184 26.1847 9.54444 26.1847 7.84003C26.1847 6.15628 25.2561 4.68698 23.8736 3.90165C23.195 3.51379 22.4062 3.293 21.5661 3.293C19.0156 3.293 16.9478 5.32754 16.9478 7.84003C16.9478 10.3507 19.0156 12.3871 21.5661 12.3871C22.4059 12.3871 23.195 12.1653 23.8736 11.7773C24.2585 12.728 24.7802 13.6116 25.415 14.4024C24.2833 15.0483 22.9693 15.4186 21.5664 15.4186C18.2354 15.4186 15.3962 13.3327 14.3274 10.4147C14.031 9.60991 13.8691 8.74315 13.8691 7.84003C13.8691 7.58311 13.8822 7.32993 13.9085 7.08192V0.261719H21.5664C22.4841 0.261719 23.3651 0.421041 24.182 0.712225C24.6117 0.863332 25.0235 1.05409 25.4152 1.27747C25.6972 1.43608 25.9664 1.61441 26.2236 1.80775C26.7915 2.23197 27.2962 2.73222 27.7247 3.29417C28.1612 2.71978 28.6798 2.20897 29.2634 1.77888C29.8687 1.33073 30.5428 0.96798 31.2654 0.712225C32.0835 0.421041 32.964 0.261719 33.881 0.261719H41.578Z" fill="#70B896"/>
<path d="M32.3418 18.3663L27.5282 23.0013L22.6895 18.3811C23.6217 18.2741 24.5158 18.0519 25.3589 17.7236L27.5282 19.8063L29.7106 17.6875C30.5423 18.0183 31.4243 18.248 32.3418 18.3663Z" fill="#F0A905"/>
<path d="M21.5647 6.7595C22.2851 6.7595 22.8971 7.21 23.1304 7.84H24.6944C24.6944 6.81487 24.1861 5.9059 23.4042 5.34653V5.34488C22.888 4.9765 22.2522 4.75781 21.5645 4.75781C19.8363 4.75781 18.4346 6.13748 18.4346 7.84H19.9986C20.2323 7.21 20.8443 6.7595 21.5647 6.7595Z" fill="#333951"/>
<path d="M33.7238 6.7595C34.4442 6.7595 35.0561 7.21 35.2894 7.84H36.9595C36.9595 6.83294 36.4705 5.93922 35.7139 5.37656C35.1882 4.9887 34.5364 4.75781 33.8298 4.75781C32.1012 4.75781 30.6992 6.13748 30.6992 7.84H32.1579C32.3914 7.21 33.0034 6.7595 33.7238 6.7595Z" fill="#333951"/>
</svg>
