<svg width="23" height="25" viewBox="0 0 23 25" fill="none" xmlns="http://www.w3.org/2000/svg">
<g id="Group 1261153789">
<g id="Group">
<g id="Group_2">
<path id="Vector" d="M22.5696 18.6773C22.4325 17.2499 21.1583 16.129 19.6744 16.129C19.4969 16.129 19.3558 15.9878 19.3558 15.8104V11.0604C19.3558 7.53217 17.0978 4.45559 13.9889 3.30641C14.0252 3.12493 14.0453 2.93949 14.0453 2.75397C14.0454 1.23389 12.8115 0 11.2913 0C9.77111 0 8.53729 1.23389 8.53729 2.75404C8.53729 2.93551 8.55742 3.11692 8.58968 3.29031C7.52116 3.66936 6.53325 4.27014 5.69053 5.08466C4.10183 6.61692 3.22685 8.67738 3.22685 10.8871V15.8104C3.22685 15.9838 3.08571 16.129 2.90827 16.129C1.42038 16.129 0.150194 17.25 0.0130952 18.6774C-0.0635349 19.4718 0.19861 20.2621 0.734886 20.8508C1.26712 21.4355 2.02925 21.7742 2.82356 21.7742H7.68648C7.88809 23.5847 9.42843 25 11.2913 25C13.1542 25 14.6946 23.5847 14.8962 21.7742H19.7591C20.5535 21.7742 21.3155 21.4355 21.8478 20.8508C22.38 20.262 22.6462 19.4717 22.5696 18.6773ZM11.2913 1.61287C11.9203 1.61287 12.4324 2.12497 12.4324 2.75397C12.4324 2.80636 12.4243 2.85477 12.4163 2.90716C12.1421 2.86683 11.8638 2.83861 11.5856 2.83053C11.1057 2.81437 10.634 2.84669 10.1662 2.9112C10.1582 2.85881 10.1501 2.8104 10.1501 2.75801C10.1502 2.12497 10.6623 1.61287 11.2913 1.61287ZM11.2913 23.387C10.3196 23.387 9.50506 22.6934 9.31551 21.7741H13.2671C13.0777 22.6935 12.2631 23.387 11.2913 23.387ZM20.6542 19.7661C20.4203 20.0201 20.1058 20.1612 19.759 20.1612H2.82363C2.47684 20.1612 2.16237 20.0201 1.92844 19.7661C1.69458 19.5121 1.5857 19.1773 1.62199 18.8306C1.67842 18.2217 2.24702 17.7419 2.91231 17.7419C3.97685 17.7419 4.84376 16.875 4.84376 15.8104V10.8871C4.84376 9.12094 5.54535 7.47177 6.81553 6.24596C8.02518 5.0726 9.60587 4.43546 11.2913 4.43546C11.372 4.43546 11.4486 4.43546 11.5292 4.4395C14.9526 4.56043 17.7429 7.53224 17.7429 11.0605V15.8104C17.7429 16.875 18.6098 17.7419 19.6744 17.7419C20.3397 17.7419 20.9083 18.2217 20.9647 18.8306C20.997 19.1773 20.8881 19.508 20.6542 19.7661Z" fill="#9598A9"/>
<path id="Vector_2" d="M0.847783 9.67752C1.21875 9.67752 1.55341 9.41948 1.63408 9.04448C2.02518 7.27431 2.90824 5.66144 4.19857 4.3792C4.5131 4.06467 4.5131 3.55256 4.19857 3.2381C3.88403 2.92356 3.37193 2.92356 3.05746 3.2381C1.54944 4.73797 0.513115 6.62915 0.0575093 8.70166C-0.0392547 9.13714 0.234944 9.56857 0.670416 9.66136C0.734925 9.67348 0.791354 9.67752 0.847783 9.67752Z" fill="#9598A9"/>
<path id="Vector_3" d="M21.7343 9.67796C21.7907 9.67796 21.8512 9.66988 21.9076 9.65783C22.3431 9.56107 22.6173 9.13361 22.5206 8.69813C22.0649 6.62555 21.0286 4.73849 19.5205 3.23444C19.206 2.9199 18.6939 2.9199 18.3794 3.23444C18.065 3.54897 18.0649 4.06107 18.3794 4.37554C19.6657 5.65778 20.5528 7.27071 20.9439 9.04082C21.0286 9.41986 21.3633 9.67796 21.7343 9.67796Z" fill="#9598A9"/>
</g>
</g>
</g>
</svg>
