<svg width="32" height="32" viewBox="0 0 32 32" fill="none" xmlns="http://www.w3.org/2000/svg">
<rect width="32" height="32" rx="16" fill="#FF6633"/>
<path d="M25.791 11.4989C25.4579 10.1939 24.7479 9.06858 23.7377 8.24465C22.7537 7.44207 21.5481 7 20.3434 7C19.4198 7 18.5386 7.24847 17.7245 7.73841C17.0817 8.12545 16.5035 8.65182 15.9983 9.30882C14.8495 7.81295 13.3328 7 11.6552 7C10.4508 7 9.24584 7.44207 8.26195 8.24465C7.25212 9.06858 6.54228 10.1939 6.20918 11.4987C5.84709 12.9178 5.7769 15.1856 7.50008 17.9309C9.09508 20.4718 11.8598 22.8262 15.7177 24.9285C15.8051 24.9761 15.9016 25 15.9982 25C16.0948 25 16.1912 24.9762 16.2786 24.9285C20.1376 22.8261 22.9032 20.4717 24.4988 17.9309C26.2228 15.1856 26.1531 12.9179 25.791 11.4989ZM15.9982 23.7465C11.4253 21.204 9.16237 18.6824 8.08693 16.5853H9.72466C9.94667 16.5853 10.1495 16.46 10.2486 16.2618L10.9797 14.8012L12.9656 18.7693C13.0648 18.9676 13.2678 19.0929 13.4896 19.0929C13.7115 19.0929 13.9144 18.9676 14.0136 18.7693L15.9995 14.8012L16.7306 16.2618C16.8299 16.4601 17.0327 16.5853 17.2546 16.5853H24.5594C24.8829 16.5853 25.1452 16.3232 25.1452 16.0001C25.1452 15.6769 24.8829 15.4149 24.5594 15.4149H17.6167L16.5237 13.2307C16.4243 13.0324 16.2216 12.9073 15.9995 12.9073C15.7777 12.9073 15.5749 13.0324 15.4757 13.2307L13.4896 17.1988L11.5037 13.2307C11.4043 13.0324 11.2016 12.9073 10.9797 12.9073C10.7577 12.9073 10.5549 13.0324 10.4557 13.2307L9.36257 15.4149H7.58659C7.006 13.719 7.18407 12.4167 7.34459 11.7881C7.88826 9.65821 9.66072 8.17057 11.6552 8.17057C13.1637 8.17057 14.5281 9.05105 15.4971 10.6495C15.6031 10.8247 15.7931 10.9317 15.998 10.9317H15.9982C16.2029 10.9317 16.3931 10.8248 16.4993 10.6497C17.469 9.05105 18.8342 8.17057 20.3434 8.17057C22.3387 8.17057 24.1119 9.65821 24.6556 11.7881C25.0326 13.2655 25.5075 18.4606 15.9982 23.7465Z" fill="white"/>
</svg>
