<svg width="29" height="23" viewBox="0 0 29 23" fill="none" xmlns="http://www.w3.org/2000/svg">
<path d="M28.078 0.261719V7.84026H24.9998C24.9903 6.15744 24.0631 4.69073 22.6871 3.90517C22.0082 3.51544 21.222 3.29324 20.3805 3.29324C17.8395 3.29324 15.776 5.32706 15.7629 7.84026V7.86514C15.7629 10.3905 17.8307 12.437 20.3805 12.437C21.2272 12.437 22.0222 12.2116 22.7035 11.8171C23.0874 12.7522 23.6046 13.622 24.2292 14.4024C23.0982 15.0483 21.7834 15.4186 20.3805 15.4186C17.8631 15.4186 15.6273 14.2264 14.2242 12.3854C13.2567 11.1184 12.6847 9.54444 12.6847 7.84003C12.6847 6.15628 11.7561 4.68698 10.3736 3.90165C9.69496 3.51379 8.90617 3.293 8.06615 3.293C5.51557 3.293 3.4478 5.32754 3.4478 7.84003C3.4478 10.3507 5.51557 12.3871 8.06615 12.3871C8.90593 12.3871 9.69496 12.1653 10.3736 11.7773C10.7585 12.728 11.2802 13.6116 11.915 14.4024C10.7833 15.0483 9.46928 15.4186 8.06638 15.4186C4.73536 15.4186 1.89621 13.3327 0.827409 10.4147C0.530958 9.60991 0.369141 8.74315 0.369141 7.84003C0.369141 7.58311 0.382242 7.32993 0.408456 7.08192V0.261719H8.06638C8.98409 0.261719 9.86511 0.421041 10.682 0.712225C11.1117 0.863332 11.5235 1.05409 11.9152 1.27747C12.1972 1.43608 12.4664 1.61441 12.7236 1.80775C13.2915 2.23197 13.7962 2.73222 14.2247 3.29417C14.6612 2.71978 15.1798 2.20897 15.7634 1.77888C16.3687 1.33073 17.0428 0.96798 17.7654 0.712225C18.5835 0.421041 19.464 0.261719 20.381 0.261719H28.078Z" fill="#70B896"/>
<path d="M18.8418 18.3663L14.0282 23.0013L9.18945 18.3811C10.1217 18.2741 11.0158 18.0519 11.8589 17.7236L14.0282 19.8063L16.2106 17.6875C17.0423 18.0183 17.9243 18.248 18.8418 18.3663Z" fill="#F0A905"/>
<path d="M8.06471 6.7595C8.7851 6.7595 9.39707 7.21 9.63037 7.84H11.1944C11.1944 6.81487 10.6861 5.9059 9.90418 5.34653V5.34488C9.38801 4.9765 8.75222 4.75781 8.06447 4.75781C6.33629 4.75781 4.93457 6.13748 4.93457 7.84H6.49856C6.73234 7.21 7.34431 6.7595 8.06471 6.7595Z" fill="#333951"/>
<path d="M20.2238 6.7595C20.9442 6.7595 21.5561 7.21 21.7894 7.84H23.4595C23.4595 6.83294 22.9705 5.93922 22.2139 5.37656C21.6882 4.9887 21.0364 4.75781 20.3298 4.75781C18.6012 4.75781 17.1992 6.13748 17.1992 7.84H18.6579C18.8914 7.21 19.5034 6.7595 20.2238 6.7595Z" fill="#333951"/>
</svg>
