<svg width="14" height="14" viewBox="0 0 14 14" fill="none" xmlns="http://www.w3.org/2000/svg">
<g id="Group 1261153785">
<g id="Group">
<g id="Group_2">
<path id="Vector" d="M10.6438 9.2614C10.1864 8.80985 9.61543 8.80985 9.16094 9.2614C8.81426 9.60517 8.46757 9.94893 8.12671 10.2985C8.03348 10.3947 7.95482 10.4151 7.8412 10.351C7.61687 10.2286 7.37798 10.1296 7.16239 9.99555C6.15729 9.36337 5.31534 8.55057 4.56952 7.6358C4.19953 7.18133 3.87032 6.69482 3.64017 6.14712C3.59355 6.03642 3.60229 5.96359 3.69261 5.87328C4.03929 5.53825 4.37724 5.19448 4.7181 4.85072C5.19298 4.37294 5.19298 3.8136 4.71519 3.33291C4.44425 3.05906 4.17331 2.79104 3.90237 2.51719C3.62269 2.23752 3.34592 1.95493 3.06333 1.67817C2.60593 1.23244 2.03492 1.23244 1.58044 1.68109C1.23084 2.02485 0.895801 2.37736 0.540374 2.71529C0.211166 3.02701 0.0451061 3.40865 0.0101461 3.85438C-0.0452074 4.57979 0.132506 5.2644 0.383053 5.93154C0.895801 7.31243 1.67658 8.53891 2.62341 9.66343C3.90237 11.1842 5.42896 12.3873 7.21483 13.2555C8.01892 13.6459 8.85213 13.9459 9.75818 13.9955C10.3816 14.0304 10.9235 13.8731 11.3576 13.3866C11.6548 13.0545 11.9898 12.7515 12.3044 12.434C12.7706 11.962 12.7735 11.391 12.3103 10.9249C11.7567 10.3684 11.2003 9.81492 10.6438 9.2614Z" fill="white"/>
<path id="Vector_2" d="M10.0877 6.9393L11.1628 6.75576C10.9938 5.76816 10.5277 4.87379 9.81972 4.16295C9.07099 3.41424 8.12416 2.94229 7.08118 2.79663L6.92969 3.87745C7.73668 3.99107 8.47084 4.35523 9.0506 4.93497C9.59831 5.48266 9.95665 6.17602 10.0877 6.9393Z" fill="white"/>
<path id="Vector_3" d="M11.7686 2.26652C10.5275 1.02547 8.9572 0.241801 7.22376 0L7.07227 1.08082C8.56972 1.29058 9.92734 1.96937 10.9994 3.03854C12.0162 4.05527 12.6834 5.34002 12.9252 6.75295L14.0002 6.56942C13.7176 4.93216 12.9456 3.44639 11.7686 2.26652Z" fill="white"/>
</g>
</g>
</g>
</svg>
