<svg width="470" height="97" viewBox="0 0 470 97" fill="none" xmlns="http://www.w3.org/2000/svg">
<path d="M251.924 32.299V64.598H239.004V32.299C239.004 21.591 230.329 12.92 219.626 12.92C208.923 12.92 200.249 21.591 200.249 32.299V64.598H187.329V0H200.249V6.466C205.645 2.403 212.362 0 219.626 0C226.897 0 233.606 2.402 239.004 6.466C246.85 12.357 251.924 21.74 251.924 32.299Z" fill="white"/>
<path d="M329.438 0.00100708V48.446C329.438 54.107 328.461 59.544 326.682 64.598C320.027 83.414 302.086 96.895 280.994 96.895C279.907 96.895 278.829 96.859 277.765 96.781C273.26 96.496 268.926 95.574 264.844 94.139V80.099C268.779 82.113 273.147 83.414 277.765 83.825C278.822 83.92 279.901 83.978 280.994 83.978C296.825 83.978 310.237 73.627 314.829 59.316C309.745 62.661 303.671 64.598 297.144 64.598C289.877 64.598 283.163 62.19 277.764 58.131C269.915 52.235 264.843 42.859 264.843 32.299V0H277.764V32.299C277.764 42.999 286.437 51.678 297.144 51.678C305.438 51.678 312.524 46.457 315.276 39.116C316.081 36.999 316.521 34.698 316.521 32.299V0H329.438V0.00100708Z" fill="white"/>
<path d="M374.661 0.000976562C356.82 0.000976562 342.358 14.463 342.358 32.3C342.358 50.135 356.82 64.599 374.661 64.599C392.496 64.599 406.956 50.135 406.956 32.3C406.956 14.463 392.496 0.000976562 374.661 0.000976562ZM374.661 51.678C363.953 51.678 355.28 42.999 355.28 32.299C355.28 21.591 363.953 12.92 374.661 12.92C385.359 12.92 394.036 21.591 394.036 32.299C394.036 43 385.359 51.678 374.661 51.678Z" fill="white"/>
<path d="M12.921 19.755C12.921 22.411 14.433 24.709 16.647 25.838H25.837C29.673 25.838 33.248 26.957 36.258 28.888C41.647 32.32 45.217 38.352 45.217 45.215C45.217 55.922 36.544 64.599 25.837 64.599H0V51.679H25.309C29.17 51.679 32.301 48.629 32.301 44.863C32.301 42.189 30.716 39.871 28.403 38.759H19.382C15.542 38.759 11.967 37.642 8.95801 35.713C3.57301 32.281 0.0010376 26.244 0.0010376 19.38C0.0010376 8.677 8.67902 0.00201416 19.382 0.00201416H45.218V12.922H19.767C15.984 12.921 12.921 15.982 12.921 19.755Z" fill="white"/>
<path d="M469.859 0.000976562V12.921H450.482C444.744 12.921 439.591 15.415 436.046 19.379C432.97 22.81 431.102 27.339 431.102 32.3V64.599H418.178V0.000976562H431.102V6.46698C434.86 3.63898 439.247 1.61498 444.022 0.652985C446.111 0.218985 448.276 0.00198364 450.482 0.00198364H469.859V0.000976562Z" fill="white"/>
<path d="M174.41 0.000976562V32.3H161.493C161.453 25.128 157.562 18.877 151.788 15.529C148.939 13.868 145.64 12.921 142.109 12.921C131.446 12.921 122.787 21.589 122.732 32.3V32.406C122.732 43.169 131.409 51.891 142.109 51.891C145.662 51.891 148.998 50.93 151.857 49.249C153.468 53.234 155.638 56.941 158.259 60.267C153.513 63.02 147.996 64.598 142.109 64.598C131.545 64.598 122.163 59.517 116.275 51.671C112.215 46.271 109.815 39.563 109.815 32.299C109.815 25.123 105.918 18.861 100.117 15.514C97.2688 13.861 93.9588 12.92 90.4338 12.92C79.7308 12.92 71.0538 21.591 71.0538 32.299C71.0538 42.999 79.7308 51.678 90.4338 51.678C93.9578 51.678 97.2688 50.733 100.117 49.079C101.732 53.131 103.921 56.897 106.585 60.267C101.836 63.02 96.3218 64.598 90.4348 64.598C76.4568 64.598 64.5428 55.708 60.0578 43.272C58.8138 39.842 58.1348 36.148 58.1348 32.299C58.1348 31.204 58.1897 30.125 58.2997 29.068V0.000976562H90.4348C94.2858 0.000976562 97.9828 0.67999 101.411 1.92099C103.214 2.56499 104.942 3.37799 106.586 4.32999C107.769 5.00599 108.899 5.766 109.978 6.59C112.361 8.398 114.479 10.53 116.277 12.925C118.109 10.477 120.285 8.29998 122.734 6.46698C125.274 4.55698 128.103 3.01099 131.135 1.92099C134.568 0.67999 138.263 0.000976562 142.111 0.000976562H174.41Z" fill="white"/>
<path d="M135.651 77.1409L115.452 96.895L95.1475 77.204C99.0595 76.748 102.811 75.801 106.349 74.402L115.452 83.278L124.61 74.2479C128.1 75.6579 131.801 76.6369 135.651 77.1409Z" fill="white"/>
<path d="M90.4338 27.6949C93.4568 27.6949 96.0248 29.6149 97.0038 32.2999H103.567C103.567 27.9309 101.434 24.057 98.1528 21.673V21.666C95.9868 20.096 93.3189 19.1639 90.4329 19.1639C83.1809 19.1639 77.2988 25.0439 77.2988 32.2999H83.8618C84.8428 29.6149 87.4108 27.6949 90.4338 27.6949Z" fill="white"/>
<path d="M141.451 27.6949C144.474 27.6949 147.042 29.6149 148.021 32.2999H155.029C155.029 28.0079 152.977 24.199 149.802 21.801C147.596 20.148 144.861 19.1639 141.896 19.1639C134.642 19.1639 128.759 25.0439 128.759 32.2999H134.88C135.86 29.6149 138.428 27.6949 141.451 27.6949Z" fill="white"/>
</svg>
