<svg width="170" height="170" viewBox="0 0 170 170" fill="none" xmlns="http://www.w3.org/2000/svg">
<path d="M124.915 52V74.1982H116.037C116.01 69.2691 113.335 64.973 109.366 62.6721C107.409 61.5309 105.14 60.8793 102.714 60.8793C95.3858 60.8793 89.4347 66.8368 89.3965 74.1982V74.2719C89.3965 81.6683 95.3598 87.6634 102.714 87.6634C105.156 87.6634 107.449 87.0033 109.414 85.8483C110.521 88.5874 112.013 91.1351 113.815 93.4201C110.552 95.312 106.761 96.3965 102.714 96.3965C95.4536 96.3965 89.0055 92.9041 84.9585 87.5119C82.1686 83.8002 80.5188 79.1899 80.5188 74.1977C80.5188 69.2659 77.8402 64.9613 73.8535 62.6615C71.8965 61.5251 69.6205 60.8793 67.1988 60.8793C59.8426 60.8793 53.8793 66.8389 53.8793 74.1982C53.8793 81.5523 59.8426 87.5172 67.1988 87.5172C69.6199 87.5172 71.8959 86.8677 73.8535 85.7318C74.9639 88.5164 76.4685 91.1055 78.299 93.4207C75.0349 95.3125 71.2453 96.397 67.1993 96.397C57.5926 96.397 49.4036 90.288 46.3213 81.7398C45.4668 79.3828 45 76.844 45 74.1988C45 73.4465 45.0371 72.7048 45.1134 71.9784V52.0005H67.1993C69.8451 52.0005 72.3865 52.4673 74.7425 53.3197C75.9811 53.7621 77.1689 54.3215 78.299 54.9758C79.1111 55.4399 79.8883 55.9623 80.63 56.5287C82.2671 57.7715 83.723 59.2375 84.9585 60.883C86.2178 59.2004 87.7134 57.7043 89.3965 56.4449C91.1422 55.1316 93.087 54.0694 95.1702 53.3202C97.5293 52.4678 100.07 52.0011 102.713 52.0011H124.915V52Z" fill="#80CAA7"/>
<path d="M98.2768 105.018L84.3942 118.595L70.4395 105.062C73.1276 104.748 75.7061 104.098 78.1379 103.136L84.3942 109.236L90.6886 103.03C93.0875 103.999 95.631 104.672 98.2768 105.018Z" fill="#FAB515"/>
<path d="M67.2 71.0314C69.2767 71.0314 71.042 72.3511 71.7154 74.1964H76.226C76.226 71.1935 74.7606 68.5313 72.5053 66.8927V66.8879C71.016 65.8087 69.1835 65.1682 67.2 65.1682C62.2157 65.1682 58.1729 69.21 58.1729 74.1964H62.6845C63.3574 72.3517 65.1227 71.0314 67.2 71.0314Z" fill="white"/>
<path d="M102.263 71.0314C104.34 71.0314 106.106 72.3511 106.778 74.1964H111.595C111.595 71.2465 110.184 68.6288 108.003 66.9806C106.487 65.8442 104.606 65.1682 102.569 65.1682C97.5834 65.1682 93.54 69.21 93.54 74.1964H97.7466C98.4194 72.3517 100.185 71.0314 102.263 71.0314Z" fill="white"/>
</svg>
