<svg width="18" height="18" viewBox="0 0 18 18" fill="none" xmlns="http://www.w3.org/2000/svg">
<mask id="mask0_189_7992" style="mask-type:luminance" maskUnits="userSpaceOnUse" x="0" y="0" width="18" height="18">
<path d="M18 0H0V18H18V0Z" fill="white"/>
<path d="M17.0407 14.3504C17.3629 11.9164 17.3629 8.89108 17.0408 6.45714C17.5834 6.37691 17.9999 5.90937 17.9999 5.34441C17.9999 4.72309 17.4962 4.21941 16.8749 4.21941C16.321 4.21941 15.861 4.61973 15.7675 5.14672C11.2499 3.65353 6.74986 3.65353 2.23242 5.14672C2.13912 4.61952 1.67899 4.21899 1.125 4.21899C0.503683 4.21899 0 4.7227 0 5.34399C0 5.90898 0.416495 6.37652 0.959132 6.45675C0.636995 8.89069 0.63703 11.916 0.959132 14.35C0.41646 14.4302 0 14.8977 0 15.4627C0 16.084 0.503683 16.5877 1.125 16.5877C1.67885 16.5877 2.13887 16.1874 2.23235 15.6604C6.74986 17.1536 11.2499 17.1536 15.7675 15.6604C15.8608 16.1876 16.3209 16.5881 16.8749 16.5881C17.4962 16.5881 17.9999 16.0844 17.9999 15.4631C17.9999 14.8981 17.5834 14.4306 17.0407 14.3504Z" fill="white"/>
<path d="M13.0767 5.33763C13.0767 7.58896 11.2516 9.41406 9.00026 9.41406C6.74889 9.41406 4.92383 7.58896 4.92383 5.33763C4.92383 3.08626 6.74889 1.26116 9.00026 1.26116C11.2516 1.26116 13.0767 3.08626 13.0767 5.33763Z" fill="white"/>
<path d="M13.0767 5.33763C13.0767 7.58896 11.2516 9.41406 9.00026 9.41406C6.74889 9.41406 4.92383 7.58896 4.92383 5.33763C4.92383 3.08626 6.74889 1.26116 9.00026 1.26116C11.2516 1.26116 13.0767 3.08626 13.0767 5.33763Z" stroke="black" stroke-width="1.05469" stroke-miterlimit="10"/>
<path d="M9 3.21969V5.33789H6.88184" stroke="black" stroke-width="1.05469" stroke-miterlimit="10"/>
</mask>
<g mask="url(#mask0_189_7992)">
<mask id="mask1_189_7992" style="mask-type:luminance" maskUnits="userSpaceOnUse" x="0" y="-1" width="18" height="19">
<path d="M0 -0.00389671H18V17.9961H0V-0.00389671Z" fill="white"/>
</mask>
<g mask="url(#mask1_189_7992)">
<path d="M17.0412 14.3484C17.3633 11.9145 17.3634 8.88912 17.0412 6.45519C17.5839 6.37496 18.0004 5.90742 18.0004 5.34245C18.0004 4.72114 17.4967 4.21745 16.8754 4.21745C16.3215 4.21745 15.8615 4.61778 15.768 5.14477C11.2504 3.65158 6.75034 3.65158 2.23291 5.14477C2.1396 4.61757 1.67948 4.21703 1.12549 4.21703C0.504172 4.21703 0.000488281 4.72075 0.000488281 5.34203C0.000488281 5.90703 0.416984 6.37457 0.95962 6.4548C0.637483 8.88873 0.637519 11.9141 0.95962 14.348C0.416948 14.4283 0.000488281 14.8958 0.000488281 15.4608C0.000488281 16.0821 0.504172 16.5858 1.12549 16.5858C1.67934 16.5858 2.13936 16.1854 2.23284 15.6585C6.75034 17.1516 11.2504 17.1516 15.768 15.6585C15.8613 16.1857 16.3214 16.5862 16.8754 16.5862C17.4967 16.5862 18.0004 16.0825 18.0004 15.4612C18.0004 14.8962 17.5839 14.4286 17.0412 14.3484Z" fill="white"/>
<path d="M13.0769 5.3347C13.0769 7.58603 11.2518 9.41113 9.00051 9.41113C6.74914 9.41113 4.92407 7.58603 4.92407 5.3347C4.92407 3.08333 6.74914 1.25823 9.00051 1.25823C11.2518 1.25823 13.0769 3.08333 13.0769 5.3347Z" fill="white"/>
<path d="M13.0769 5.3347C13.0769 7.58603 11.2518 9.41113 9.00051 9.41113C6.74914 9.41113 4.92407 7.58603 4.92407 5.3347C4.92407 3.08333 6.74914 1.25823 9.00051 1.25823C11.2518 1.25823 13.0769 3.08333 13.0769 5.3347Z" stroke="white" stroke-width="1.05469" stroke-miterlimit="10"/>
<path d="M9.00049 3.21774V5.33594H6.88232" stroke="white" stroke-width="1.05469" stroke-miterlimit="10"/>
</g>
</g>
</svg>
