<svg width="22" height="22" viewBox="0 0 22 22" fill="none" xmlns="http://www.w3.org/2000/svg">
<path d="M11.4133 8.57227H10.425C10.0697 8.57227 9.78052 8.8614 9.78052 9.2168V12.7832C9.78052 13.1386 10.0697 13.4277 10.425 13.4277H11.4133C11.7687 13.4277 12.0579 13.1386 12.0579 12.7832V9.2168C12.0579 8.8614 11.7687 8.57227 11.4133 8.57227Z" fill="white"/>
<path d="M11 0C4.93457 0 0 4.93457 0 11C0 17.0654 4.93457 22 11 22C17.0654 22 22 17.0654 22 11C22 4.93457 17.0654 0 11 0ZM6.91526 14.234C6.5108 14.5433 5.9718 14.7134 5.39636 14.7134C5.39198 14.7134 5.38768 14.7134 5.3833 14.7134C4.21425 14.7081 2.9718 13.9786 2.9718 12.6371C2.9718 12.2811 3.26038 11.9925 3.61634 11.9925C3.97229 11.9925 4.26087 12.2811 4.26087 12.6371C4.26087 13.2069 4.95288 13.4224 5.38905 13.4243C5.39116 13.4243 5.39335 13.4243 5.39554 13.4243C5.63793 13.4243 6.39195 13.3641 6.39856 12.6249C6.40299 12.1344 6.08201 11.9455 5.04904 11.5912C5.01346 11.579 4.90286 11.5436 4.88305 11.5366C4.24059 11.3096 2.90379 10.8374 2.91698 9.36005C2.92282 8.70646 3.19713 8.13914 3.6893 7.76261C4.09681 7.45087 4.63942 7.2802 5.22126 7.2832C6.39031 7.28845 7.63275 8.01793 7.63275 9.3595C7.63275 9.71545 7.34418 10.004 6.98822 10.004C6.63227 10.004 6.34369 9.71545 6.34369 9.3595C6.34369 8.78964 5.65168 8.5742 5.2155 8.57227C4.98145 8.56956 4.21266 8.62572 4.206 9.37161C4.20269 9.73977 4.34831 9.96484 5.19179 10.2774C5.19918 10.2797 5.38244 10.3428 5.46734 10.3719C5.95164 10.538 6.45245 10.7098 6.86718 11.0119C7.41765 11.413 7.69368 11.9596 7.68762 12.6365C7.68174 13.2901 7.40747 13.8574 6.91526 14.234ZM13.3467 12.7832C13.3467 13.8494 12.4793 14.7168 11.4131 14.7168H10.4249C9.35868 14.7168 8.49127 13.8494 8.49127 12.7832V9.2168C8.49127 8.15061 9.35868 7.2832 10.4249 7.2832H11.4131C12.4793 7.2832 13.3467 8.15061 13.3467 9.2168V12.7832ZM18.3107 14.234C17.9062 14.5433 17.3672 14.7134 16.7918 14.7134C16.7874 14.7134 16.7831 14.7134 16.7787 14.7134C15.6096 14.7081 14.3672 13.9786 14.3672 12.6371C14.3672 12.2811 14.6558 11.9925 15.0117 11.9925C15.3677 11.9925 15.6563 12.2811 15.6563 12.6371C15.6563 13.2069 16.3482 13.4224 16.7845 13.4243C17.0202 13.4243 17.7873 13.3708 17.794 12.6249C17.7984 12.1344 17.4774 11.9455 16.4444 11.5912C16.4089 11.579 16.2983 11.5436 16.2785 11.5366C15.636 11.3096 14.2992 10.8374 14.3124 9.36005C14.3183 8.70646 14.5926 8.13914 15.0847 7.76261C15.4892 7.45323 16.0282 7.28316 16.6036 7.28316C16.608 7.28316 16.6123 7.2832 16.6167 7.2832C17.7858 7.28845 19.0282 8.01793 19.0282 9.3595C19.0282 9.71545 18.7396 10.004 18.3837 10.004C18.0277 10.004 17.7391 9.71545 17.7391 9.3595C17.7391 8.78964 17.0471 8.5742 16.6109 8.57227C16.3741 8.57209 15.6081 8.62572 15.6014 9.37161C15.5981 9.73977 15.7437 9.96484 16.5872 10.2774C16.5946 10.2797 16.7778 10.3428 16.8627 10.3719C17.347 10.538 17.8478 10.7098 18.2626 11.0119C18.8131 11.413 19.0891 11.9596 19.083 12.6365C19.0771 13.2901 18.8028 13.8574 18.3107 14.234Z" fill="white"/>
</svg>
