<svg width="18" height="18" viewBox="0 0 18 18" fill="none" xmlns="http://www.w3.org/2000/svg">
<path fill-rule="evenodd" clip-rule="evenodd" d="M18 7.782V10.218L16.5085 10.7921C16.3194 11.5868 16.0044 12.3457 15.5761 13.0412L16.2252 14.5027L14.5027 16.2253L13.0416 15.5763C12.346 16.0048 11.5868 16.3198 10.7919 16.509L10.218 18H7.782L7.20795 16.5086C6.95569 16.4485 6.7071 16.3758 6.46294 16.2908C6.72109 15.6425 6.78874 14.9334 6.65494 14.2437L7.32293 13.5757C7.84579 13.7673 8.41065 13.872 8.99996 13.872C11.6909 13.872 13.8719 11.691 13.8719 9.00004C13.8719 6.30911 11.6909 4.12811 8.99996 4.12811C6.30907 4.12811 4.12804 6.30911 4.12804 9.00004C4.12804 9.58939 4.2327 10.1543 4.42436 10.6772L3.75679 11.3447C3.2124 11.239 2.65223 11.259 2.1138 11.4033C1.97475 11.4405 1.83986 11.4857 1.7091 11.5377C1.62401 11.2933 1.55123 11.0444 1.49115 10.792L0 10.218V7.78204L1.4913 7.20799C1.68041 6.41329 1.99545 5.65421 2.42378 4.95866L1.77473 3.49733L3.49729 1.77476L4.95878 2.42385C5.65433 1.9956 6.41329 1.68053 7.20791 1.49141L7.782 0H10.218L10.7921 1.49145C11.5867 1.68056 12.3456 1.9956 13.0412 2.42389L14.5027 1.7748L16.2253 3.49733L15.5764 4.95836C16.0048 5.65403 16.3199 6.41325 16.509 7.2081L18 7.782ZM6.02093 14.1607C6.44918 15.7889 5.48119 17.4587 3.85324 17.895C2.22064 18.3324 0.542513 17.3636 0.105075 15.731C-0.332363 14.0984 0.636488 12.4202 2.26909 11.9828C2.80268 11.8398 3.34106 11.8472 3.83948 11.9788C3.90581 11.9963 3.9714 11.9786 4.01993 11.9301L9.41531 6.53475C9.45015 6.49991 9.49193 6.48173 9.54116 6.47996L11.3923 6.4137C11.5017 6.4098 11.5903 6.49834 11.5864 6.60776L11.5202 8.45888C11.5184 8.50815 11.5002 8.54993 11.4654 8.58476L11.1953 8.8548C11.1565 8.89365 11.1083 8.91221 11.0535 8.90948L10.1645 8.86545C10.053 8.85998 9.96244 8.95054 9.96791 9.06199L10.0058 9.82736C10.0113 9.93874 9.92062 10.0294 9.80925 10.0239L9.04388 9.98603C8.93246 9.98051 8.84186 10.0711 8.84734 10.1825L8.89133 11.0716C8.89406 11.1264 8.87543 11.1746 8.83665 11.2134L6.06968 13.9804C6.02115 14.0289 6.00349 14.0944 6.02093 14.1607ZM3.18097 14.819C2.82562 14.4636 2.24951 14.4636 1.89416 14.819C1.53881 15.1744 1.53881 15.7505 1.89416 16.1058C2.24951 16.4612 2.82562 16.4612 3.18097 16.1059C3.53629 15.7505 3.53629 15.1744 3.18097 14.819Z" fill="white"/>
</svg>
