<svg width="12" height="18" viewBox="0 0 12 18" fill="none" xmlns="http://www.w3.org/2000/svg">
<path d="M10.0765 2.17646H9.08726V1.45249C9.08726 0.958517 8.68538 0.556641 8.19141 0.556641H3.80849C3.31452 0.556641 2.91264 0.958517 2.91264 1.45249V2.17646H1.92336C1.1824 2.17646 0.57959 2.77928 0.57959 3.52023V16.1005C0.57959 16.8415 1.1824 17.4443 1.92336 17.4443H10.0765C10.8175 17.4443 11.4203 16.8415 11.4203 16.1005V3.52023C11.4203 2.77928 10.8175 2.17646 10.0765 2.17646ZM1.92336 16.1005V3.52023H10.0765L10.0767 16.1005H1.92336Z" fill="white"/>
<path d="M8.95298 12.4941H3.04712V15.1666H8.95298V12.4941Z" fill="white"/>
</svg>
