<svg width="18" height="18" viewBox="0 0 18 18" fill="none" xmlns="http://www.w3.org/2000/svg">
<path d="M14.6512 5.63962C14.6386 5.63962 14.626 5.63969 14.6134 5.63983C14.6388 4.05866 13.318 2.76141 11.7377 2.81481C11.2891 0.420542 8.10687 -0.272028 6.71015 1.74918C5.75105 1.49796 4.69503 1.9666 4.23152 2.82417C2.27212 2.96655 1.05286 5.21112 2.0293 6.93769C0.334538 8.47379 1.16896 11.3285 3.39161 11.7336C3.49177 13.04 4.60602 14.0693 5.93719 14.0427C6.18539 17.0441 10.1857 17.9223 11.6717 15.3102C13.9815 16.6888 16.8565 14.5739 16.2261 11.9546C19.2765 10.3122 18.1336 5.66499 14.6512 5.63962ZM12.3956 10.8368C12.2796 10.8899 12.1675 10.9553 12.0625 11.0313C11.8417 11.1909 11.5358 11.1562 11.3563 10.9514C10.883 10.4007 9.95214 10.6569 9.82556 11.371C9.77402 11.6459 9.51671 11.8329 9.23944 11.7971C8.85263 11.7488 8.45037 11.8176 8.1036 11.9923C7.67639 12.193 7.33612 11.8301 7.34007 11.5245C7.33408 10.7861 6.7765 10.1714 6.04312 10.0947C5.72132 10.061 5.50479 9.74751 5.58799 9.4343C5.66352 9.15014 5.74377 8.47921 5.23854 7.87948C5.02939 7.63121 5.09226 7.2547 5.36973 7.08749C5.7622 6.85093 6.04995 6.46173 6.15911 6.01965C6.21108 5.80923 6.38642 5.65197 6.6012 5.62312C6.81608 5.59441 7.02664 5.69975 7.13225 5.88902C7.56234 6.68112 8.7397 6.6809 9.16961 5.88902C9.27522 5.69975 9.48599 5.59445 9.70067 5.62312C9.91544 5.65197 10.0908 5.80923 10.1427 6.01965C10.3341 6.79433 11.0258 7.33534 11.825 7.33534C11.992 7.33534 12.2869 7.25569 12.4935 7.53911C12.605 7.69186 12.6261 7.8926 12.549 8.06524C12.1722 8.90894 12.4108 9.69168 12.6376 10.1012C12.7865 10.37 12.675 10.709 12.3956 10.8368Z" fill="white"/>
<path d="M16.0643 3.86896C17.1345 3.86896 18.0051 2.99831 18.0051 1.92814C17.9076 -0.643053 14.2207 -0.642385 14.1235 1.92817C14.1235 2.99831 14.9942 3.86896 16.0643 3.86896Z" fill="white"/>
<path d="M3.26759 14.2774C3.09943 13.5401 2.43834 12.9883 1.65082 12.9883C0.122987 12.9871 -0.586611 14.9099 0.564366 15.9C0.467091 17.0217 1.37212 18.0058 2.49868 18.0004C4.60373 17.9763 5.17647 15.123 3.26759 14.2774Z" fill="white"/>
</svg>
