<svg width="20" height="20" viewBox="0 0 20 20" fill="none" xmlns="http://www.w3.org/2000/svg">
<path d="M18.1835 11.5454C17.1784 10.7942 15.8123 10.1992 14.2167 9.81556C13.9286 8.97978 13.3045 8.00396 12.3511 6.9006C11.3822 5.77951 10.4275 0.464571 10.3873 0.429141L9.99997 0.0878906L9.61263 0.429141C9.57247 0.464532 8.6177 5.77951 7.64887 6.9006C6.6954 8.00396 6.07133 8.97978 5.78329 9.81556C4.18762 10.1992 2.82156 10.7942 1.81641 11.5454C0.628126 12.4335 0 13.4981 0 14.6239C0 16.1135 1.09434 17.4805 3.08141 18.4731C4.93922 19.401 7.39626 19.9121 9.99997 19.9121C12.6037 19.9121 15.0607 19.401 16.9185 18.4731C18.9056 17.4805 19.9999 16.1135 19.9999 14.6239C19.9999 13.4981 19.3718 12.4335 18.1835 11.5454ZM9.99997 15.2098C11.4821 15.2098 12.7954 14.4735 13.5934 13.3474C15.2074 13.7578 15.8201 14.3354 15.8201 14.6239C15.8201 15.1957 13.7658 16.3085 9.99993 16.3085C6.23411 16.3085 4.17981 15.1957 4.17981 14.6239C4.17981 14.3354 4.7925 13.7578 6.40645 13.3474C7.2045 14.4735 8.51786 15.2098 9.99997 15.2098ZM16.3949 17.4247C14.6965 18.273 12.4254 18.7402 9.99997 18.7402C7.5745 18.7402 5.30344 18.273 3.60508 17.4247C2.05875 16.6523 1.17188 15.6315 1.17188 14.6239C1.17188 13.1943 2.92356 11.8134 5.60633 11.0715C5.63137 11.4941 5.71629 11.9008 5.8527 12.2833C5.16825 12.4769 4.58258 12.719 4.13442 12.9954C3.2034 13.5696 3.00797 14.1979 3.00797 14.6239C3.00797 16.4992 6.52536 17.4804 9.99997 17.4804C13.4746 17.4804 16.992 16.4992 16.992 14.6239C16.992 14.1979 16.7965 13.5696 15.8655 12.9954C15.4174 12.719 14.8317 12.4769 14.1472 12.2833C14.2836 11.9008 14.3686 11.4941 14.3936 11.0715C17.0764 11.8134 18.8281 13.1943 18.8281 14.6239C18.8281 15.6315 17.9412 16.6523 16.3949 17.4247Z" fill="white"/>
</svg>
