<svg width="20" height="19" viewBox="0 0 20 19" fill="none" xmlns="http://www.w3.org/2000/svg">
<path d="M18.4368 9.38453C19.222 8.42625 19.6484 7.23289 19.6484 5.9659C19.6484 3.01113 17.2828 0.607227 14.375 0.607227C13.1756 0.607227 12.0108 1.02832 11.0822 1.78152C10.3889 0.856406 9.295 0.289062 8.125 0.289062C6.16734 0.289062 4.55887 1.83609 4.42332 3.78934C4.40719 3.78918 4.39113 3.78906 4.375 3.78906C1.96262 3.78906 0 5.76473 0 8.19316C0 9.08613 0.270664 9.94926 0.782773 10.6891C1.15957 11.2336 1.64523 11.6825 2.20703 12.0094C2.01437 12.5146 1.91406 13.0559 1.91406 13.6022C1.91406 16.0307 3.85914 18.0063 6.25 18.0063C7.6023 18.0063 8.84844 17.3728 9.65754 16.3281C10.674 17.9612 12.4557 19 14.375 19C15.869 19 17.28 18.4012 18.348 17.314C19.4133 16.2296 20 14.7984 20 13.2841C20 11.8407 19.4365 10.4492 18.4368 9.38453ZM9.55879 10.523C9.4916 10.6031 9.41852 10.6785 9.34156 10.7471C8.94867 11.097 8.44457 11.2819 7.88371 11.2819C6.4875 11.2819 5.35156 10.146 5.35156 8.74977C5.35156 7.35355 6.4875 6.21762 7.88371 6.21762C8.39109 6.21762 8.88078 6.3673 9.29988 6.65043C9.56805 6.8316 9.63852 7.19582 9.45738 7.46398C9.27617 7.73211 8.91191 7.80258 8.64383 7.62148C8.41922 7.46973 8.15637 7.38953 7.88371 7.38953C7.13367 7.38953 6.52344 7.99977 6.52344 8.7498C6.52344 9.49984 7.13367 10.1101 7.88371 10.1101C8.15652 10.1101 8.3848 10.03 8.56215 9.87203C8.5968 9.84117 8.63 9.80691 8.66078 9.77016C8.86871 9.52219 9.23828 9.48973 9.48625 9.69762C9.73422 9.90543 9.76668 10.275 9.55879 10.523ZM10.2091 8.77254C10.2091 7.37633 11.3451 6.24039 12.7413 6.24039C14.1375 6.24039 15.2734 7.37633 15.2734 8.77254C15.2734 10.1687 14.1375 11.3047 12.7413 11.3047C11.3451 11.3047 10.2091 10.1687 10.2091 8.77254ZM16.2573 15.4875C15.8143 15.4931 15.4914 15.4957 15.2537 15.4957C14.6459 15.4957 14.5957 15.4789 14.5173 15.4528C14.3315 15.3909 14.1866 15.2435 14.1297 15.0586C14.0345 14.7489 14.19 14.5451 14.387 14.2872C14.5402 14.0867 14.8252 13.7134 15.3034 13.0303C15.446 12.8264 15.5053 12.6856 15.5295 12.5982L15.5337 12.5648C15.5215 12.4711 15.4412 12.3984 15.3442 12.3984C15.2409 12.3984 15.1717 12.4756 15.1567 12.5519C15.0943 12.8694 14.7864 13.0763 14.4688 13.0139C14.1513 12.9515 13.9445 12.6436 14.0068 12.326C14.132 11.6889 14.6944 11.2266 15.3443 11.2266C16.0958 11.2266 16.7072 11.838 16.7072 12.5895C16.7072 12.6144 16.7056 12.6392 16.7025 12.6638L16.6875 12.7812C16.685 12.8008 16.6815 12.8202 16.6771 12.8393C16.6136 13.113 16.4783 13.3952 16.2634 13.7022C16.0944 13.9438 15.9487 14.1478 15.8238 14.32C15.963 14.3189 16.105 14.3174 16.2427 14.3157C16.2452 14.3157 16.2477 14.3157 16.2502 14.3157C16.5703 14.3157 16.8319 14.5732 16.8359 14.8943C16.84 15.2179 16.5809 15.4834 16.2573 15.4875Z" fill="white"/>
</svg>
