<svg width="20" height="20" viewBox="0 0 20 20" fill="none" xmlns="http://www.w3.org/2000/svg">
<path d="M8.63959 15.3437C8.54424 14.9758 8.29783 14.6608 7.96354 14.4796C7.62881 14.2981 7.22979 14.2635 6.86869 14.3847L4.45514 15.1947C4.09428 15.3158 3.79697 15.584 3.63951 15.9306C3.48205 16.2773 3.47561 16.6776 3.62178 17.0291C3.75322 17.3451 3.87764 17.6426 3.99221 17.9154C4.40014 18.8868 5.35592 19.4847 6.36307 19.4847C6.64959 19.4855 6.94455 19.4342 7.22545 19.3344C8.53205 18.8958 9.25596 17.5169 8.87346 16.195C8.7885 15.9012 8.70983 15.6148 8.63959 15.3437Z" fill="white"/>
<path d="M7.67473 11.3831C7.66016 11.0096 7.66086 10.6588 7.66152 10.3195C7.66316 9.4767 7.66488 8.60518 7.43336 7.37748C7.06945 5.44815 6.15359 3.92697 4.92055 3.20404C4.13836 2.74541 3.29391 2.64764 2.47867 2.92123C1.38496 3.28826 0.583125 4.13123 0.220937 5.29483C-0.148867 6.48276 -0.0530471 7.9785 0.49793 9.62037C0.785351 10.4768 1.21262 11.6255 1.76789 13.0347C1.9807 13.5747 2.49785 13.9078 3.04895 13.9078C3.19438 13.9078 3.34227 13.8846 3.48746 13.8358L6.73691 12.7453C7.31281 12.552 7.69844 11.9919 7.67473 11.3831Z" fill="white"/>
<path d="M15.5448 12.9418C15.5448 12.9418 15.5448 12.9418 15.5448 12.9418L13.1312 12.1318C12.7701 12.0106 12.3711 12.0452 12.0364 12.2267C11.7021 12.4079 11.4557 12.7228 11.3603 13.0908C11.2902 13.3617 11.2115 13.6482 11.1265 13.9421C10.744 15.264 11.4678 16.643 12.7744 17.0814C13.0554 17.1813 13.3502 17.2326 13.6369 17.2318C14.6439 17.2318 15.5998 16.6339 16.0077 15.6626C16.1223 15.3898 16.2466 15.0923 16.3782 14.7762C16.5244 14.4248 16.5179 14.0244 16.3605 13.6778C16.203 13.3312 15.9057 13.0629 15.5448 12.9418Z" fill="white"/>
<path d="M19.779 3.0419C19.4168 1.8783 18.6151 1.03537 17.5213 0.668303C16.706 0.394709 15.8617 0.492482 15.0794 0.951115C13.8464 1.67404 12.9305 3.19522 12.5666 5.12455C12.3351 6.35221 12.3368 7.22369 12.3385 8.06647C12.3391 8.40576 12.3398 8.75666 12.3253 9.1303C12.3015 9.73901 12.6872 10.2991 13.2631 10.4924L16.5125 11.583C16.6578 11.6317 16.8055 11.6549 16.951 11.6549C17.5021 11.6549 18.0193 11.3218 18.2321 10.7818C18.7872 9.37303 19.2144 8.22428 19.502 7.36744C20.053 5.72557 20.1488 4.22983 19.779 3.0419Z" fill="white"/>
</svg>
