<svg width="16" height="24" viewBox="0 0 16 24" fill="none" xmlns="http://www.w3.org/2000/svg">
<path d="M1.30702 19.1586V13.9445C1.30702 13.5836 1.01443 13.291 0.653527 13.291C0.292592 13.291 0 13.5836 0 13.9445V22.4818C0 22.8427 0.292592 23.1353 0.653527 23.1353C1.01443 23.1353 1.30702 22.8427 1.30702 22.4818V21.2575L14.6929 21.226V22.4503C14.6929 22.8113 14.9855 23.1039 15.3464 23.1039C15.7073 23.1039 15.9999 22.8113 15.9999 22.4503V21.226V19.5165V19.1272L1.30702 19.1586Z" fill="white"/>
<path d="M15.9996 18.5979H6.06494V16.1369C6.06494 15.4227 6.64389 14.8438 7.35805 14.8438H13.3891C14.8308 14.8438 15.9996 16.0125 15.9996 17.4543V18.5979Z" fill="white"/>
<path d="M3.73973 18.3169C4.62087 18.3169 5.33517 17.6026 5.33517 16.7214C5.33517 15.8403 4.62087 15.126 3.73973 15.126C2.85859 15.126 2.14429 15.8403 2.14429 16.7214C2.14429 17.6026 2.85859 18.3169 3.73973 18.3169Z" fill="white"/>
<path d="M3.50928 12.2714C3.50928 12.4615 3.66339 12.6156 3.85348 12.6156H12.1143C12.3044 12.6156 12.4585 12.4615 12.4585 12.2714V11.2158H3.50928V12.2714Z" fill="white"/>
<path d="M7.98328 3.62109C6.08535 3.62109 4.54126 5.16518 4.54126 7.06311V10.5281H11.4253V7.06311C11.4253 5.16518 9.88121 3.62109 7.98328 3.62109Z" fill="white"/>
<path d="M7.96017 2.93044C8.15026 2.93044 8.30437 2.77633 8.30437 2.58624V1.20944C8.30437 1.01934 8.15026 0.865234 7.96017 0.865234C7.77008 0.865234 7.61597 1.01934 7.61597 1.20944V2.58624C7.61597 2.77633 7.77008 2.93044 7.96017 2.93044Z" fill="white"/>
<path d="M5.2507 3.41768C5.34605 3.58283 5.55672 3.63843 5.72088 3.54366C5.88553 3.44861 5.94193 3.2381 5.84686 3.07348L5.15846 1.88114C5.06339 1.71649 4.8529 1.66011 4.68828 1.75516C4.52363 1.85021 4.46723 2.06072 4.5623 2.22534L5.2507 3.41768Z" fill="white"/>
<path d="M4.0869 5.19403C4.18197 5.02941 4.12557 4.81889 3.96092 4.72385L2.76856 4.03544C2.60392 3.94038 2.39341 3.99678 2.29838 4.16142C2.20331 4.32604 2.25972 4.53656 2.42436 4.6316L3.61672 5.32C3.78063 5.41466 3.99144 5.35938 4.0869 5.19403Z" fill="white"/>
<path d="M10.2459 3.54368C10.4098 3.63833 10.6206 3.58303 10.7161 3.4177L11.4045 2.22536C11.4995 2.06074 11.4431 1.85023 11.2785 1.75518C11.1139 1.66009 10.9033 1.71652 10.8083 1.88116L10.1199 3.0735C10.0248 3.23812 10.0813 3.44863 10.2459 3.54368Z" fill="white"/>
<path d="M13.6682 4.1614C13.5731 3.99676 13.3627 3.9404 13.198 4.03542L12.0057 4.72383C11.841 4.81887 11.7846 5.02939 11.8797 5.19401C11.975 5.35915 12.1857 5.41475 12.3499 5.31998L13.5422 4.63158C13.7069 4.53654 13.7633 4.32604 13.6682 4.1614Z" fill="white"/>
</svg>
