<svg width="19" height="16" viewBox="0 0 19 16" fill="none" xmlns="http://www.w3.org/2000/svg">
<path d="M19 6.5664C19 7.87759 14.7448 8.94052 9.5 8.94052C4.25525 8.94052 0 7.87759 0 6.5664C0 5.95451 0.926574 5.39857 2.45105 4.97549C2.37413 5.27619 2.30769 5.55241 2.25175 5.79018C2.21962 5.9292 2.21576 6.07327 2.24038 6.21382C2.26501 6.35437 2.31762 6.48854 2.39511 6.60836C2.48845 6.74476 2.60788 6.86134 2.74651 6.95135C2.88514 7.04137 3.04021 7.10305 3.2028 7.13283C3.57692 7.20626 3.88462 7.27619 4.16434 7.33913C5.36364 7.60836 6.15385 7.78668 9.5 7.78668C12.9091 7.78668 13.6189 7.65381 14.9056 7.41255C15.1608 7.3636 15.4406 7.31115 15.7727 7.25521C15.9438 7.22921 16.1074 7.16713 16.2527 7.07309C16.398 6.97905 16.5216 6.8552 16.6154 6.70976C16.6961 6.58013 16.7479 6.43463 16.7672 6.28316C16.7865 6.1317 16.7729 5.97786 16.7273 5.83213C16.6329 5.51745 16.5525 5.23074 16.4755 4.95801C18.042 5.38108 19 5.94751 19 6.5664Z" fill="white"/>
<path d="M12.5585 11.8783C11.8564 11.9675 11.4911 12.187 11.4557 12.3147C11.4497 12.3362 11.433 12.4588 11.6934 12.7408C11.8064 12.8538 11.9412 12.9428 12.0896 13.0024C12.2379 13.0619 12.3968 13.0909 12.5566 13.0874C13.0321 13.0919 13.491 12.9122 13.8369 12.5858C14.198 12.2259 14.2073 12.0945 14.2055 12.0716C14.1305 11.9456 13.4445 11.7657 12.5585 11.8783Z" fill="white"/>
<path d="M6.63961 11.8783C6.45639 11.8548 6.27186 11.8429 6.08714 11.8428C5.48054 11.8428 5.05014 11.9756 4.98901 12.0814C4.99038 12.0944 4.99977 12.2262 5.36086 12.5854C5.70466 12.9151 6.16487 13.0956 6.64115 13.0874C6.80093 13.0908 6.95977 13.0619 7.1081 13.0024C7.25644 12.9429 7.39122 12.854 7.50435 12.7411C7.76488 12.4588 7.74815 12.3362 7.74217 12.3147C7.70683 12.187 7.34164 11.9674 6.63961 11.8783Z" fill="white"/>
<path d="M15.9129 9.89607C15.4147 9.98327 14.8953 10.0593 14.3559 10.1205C12.7427 10.2869 11.1216 10.3648 9.49988 10.354C7.87817 10.3648 6.25709 10.2869 4.6439 10.1205C4.10442 10.0593 3.58506 9.98327 3.08684 9.89607C2.41304 9.77816 2.05263 10.6065 2.18474 11.2695C2.28441 11.8493 2.49914 12.4032 2.81626 12.8987C3.13339 13.3942 3.54649 13.8212 4.03123 14.1546C5.07438 14.8396 6.30596 15.1804 7.55287 15.1293C7.74165 15.1153 7.92546 15.0622 8.09265 14.9734C8.25984 14.8846 8.40678 14.7621 8.52416 14.6135C8.84248 14.2864 8.99189 14.0419 9.49989 14.0338C10.0079 14.0419 10.1573 14.2864 10.4756 14.6135C10.593 14.7621 10.7399 14.8846 10.9071 14.9734C11.0743 15.0622 11.2581 15.1153 11.4469 15.1293C12.6938 15.1804 13.9254 14.8396 14.9686 14.1546C15.4533 13.8212 15.8664 13.3942 16.1835 12.8987C16.5007 12.4033 16.7154 11.8493 16.815 11.2695C16.9486 10.5989 16.5817 9.77903 15.9129 9.89607ZM8.01831 13.2161C7.84166 13.3986 7.62981 13.5433 7.39559 13.6414C7.16137 13.7395 6.90966 13.7891 6.65572 13.7871C6.63916 13.7878 6.62226 13.7878 6.6057 13.7878C5.9565 13.787 5.33305 13.5338 4.86718 13.0816C4.65292 12.8686 4.15081 12.3687 4.32956 11.8503C4.56465 11.1685 5.74369 11.1323 6.24239 11.1469C7.17012 11.176 8.2283 11.4495 8.4161 12.129C8.45034 12.3291 8.43164 12.5348 8.36186 12.7255C8.29208 12.9162 8.17365 13.0853 8.01831 13.2161ZM14.3305 13.0816C13.8646 13.5337 13.2411 13.7869 12.5919 13.7877C12.5752 13.7877 12.5585 13.7877 12.5416 13.787C12.2876 13.789 12.036 13.7394 11.8018 13.6412C11.5676 13.543 11.3558 13.3983 11.1792 13.2158C11.0239 13.085 10.9055 12.9159 10.8357 12.7253C10.766 12.5346 10.7473 12.329 10.7815 12.1289C10.9693 11.4494 12.0275 11.1759 12.9552 11.1469C13.4529 11.1329 14.6326 11.1688 14.8679 11.8503C15.0465 12.368 14.5447 12.8682 14.3305 13.0816Z" fill="white"/>
<path d="M15.6537 6.5668C13.7061 6.89897 13.5418 7.08778 9.49985 7.08778C5.44041 7.08778 5.28657 6.83253 3.33901 6.44792C3.08027 6.39547 2.87747 6.20316 2.93342 5.94442C3.00684 5.62274 3.10476 5.22764 3.22712 4.78358C3.51034 3.73113 3.90545 2.39547 4.33202 1.08778C4.3982 0.858418 4.51801 0.648104 4.68156 0.474218C4.84511 0.300332 5.0477 0.167868 5.27258 0.0877761C5.80055 -0.118518 6.30405 0.14372 6.91244 0.364C7.73953 0.794806 8.66191 1.01007 9.59426 0.989874C11.1222 0.937427 11.3845 0.405958 13.0068 0.0178461C13.218 -0.0141342 13.4333 -0.00305 13.6401 0.0504311C13.8468 0.103912 14.0405 0.198683 14.2096 0.329035C14.9789 0.836028 15.0033 1.77659 15.332 3.25561C15.4544 3.80106 15.5663 4.26959 15.6991 4.76959C15.804 5.15421 15.9194 5.55631 16.0593 6.03183C16.0733 6.0942 16.0735 6.15889 16.06 6.22136C16.0464 6.28383 16.0194 6.3426 15.9808 6.39354C15.9421 6.44448 15.8929 6.48638 15.8364 6.51631C15.7799 6.54623 15.7175 6.56346 15.6537 6.5668Z" fill="white"/>
</svg>
